<?xml version="1.0" standalone="no"?>
<!DOCTYPE svg PUBLIC "-//W3C//DTD SVG 1.1//EN" "http://www.w3.org/Graphics/SVG/1.1/DTD/svg11.dtd" >
<svg xmlns="http://www.w3.org/2000/svg" xmlns:xlink="http://www.w3.org/1999/xlink" version="1.1">
<metadata>
Created by FontForge 20200427 at Tue Dec  2 21:41:22 2014
 By www
Copyright (c) 2013 by Kimberly Geswein. All rights reserved.
</metadata>
<defs>
<font id="KGPrimaryPenmanship2W00-Rg" horiz-adv-x="444" >
  <font-face 
    font-family="KGPrimaryPenmanship2W00-Rg"
    font-weight="400"
    font-stretch="normal"
    units-per-em="1024"
    panose-1="2 0 5 6 0 0 0 2 0 3"
    ascent="819"
    descent="-205"
    x-height="343"
    cap-height="608"
    bbox="-96.7368 -261.133 787.333 790.333"
    underline-thickness="51"
    underline-position="-178"
    unicode-range="U+0020-2265"
  />
<missing-glyph horiz-adv-x="254" 
 />
    <glyph glyph-name=".notdef" horiz-adv-x="254" 
 />
    <glyph glyph-name="glyph1" horiz-adv-x="0" 
 />
    <glyph glyph-name="glyph1" horiz-adv-x="0" 
 />
    <glyph glyph-name="glyph2" horiz-adv-x="254" 
 />
    <glyph glyph-name="space" unicode=" " horiz-adv-x="298" 
 />
    <glyph glyph-name="space" unicode="&#xa0;" horiz-adv-x="298" 
 />
    <glyph glyph-name="exclam" unicode="!" horiz-adv-x="183" 
d="M134 126q-3 -18 -17 -25t-28 -5.5t-25 10t-8 20.5l3 468q0 19 11.5 26.5t25.5 6.5t25.5 -8.5t11.5 -19.5zM136 23q0 -19 -12.5 -32t-31.5 -13t-32 13t-13 32t13 31.5t32 12.5t31.5 -12.5t12.5 -31.5z" />
    <glyph glyph-name="quotedbl" unicode="&#x22;" horiz-adv-x="380" 
d="M82 471q-10 9 -7 21.5t13 21t23.5 10t25.5 -11.5q13 -14 21.5 -37t9.5 -49.5t-7.5 -55t-30.5 -52.5q-12 -13 -26.5 -14t-25 5.5t-14.5 18t5 22.5q16 14 23.5 32t7.5 35t-5 31.5t-13 22.5zM221 475q-10 9 -7 21.5t13 21t23.5 10t25.5 -11.5q13 -14 21.5 -37t9.5 -49.5
t-7.5 -55t-30.5 -52.5q-12 -13 -26.5 -14t-25 5.5t-14.5 18t5 22.5q16 14 23.5 32t7.5 35t-5 31.5t-13 22.5z" />
    <glyph glyph-name="numbersign" unicode="#" horiz-adv-x="449" 
d="M122 169h-43q-19 0 -26.5 11.5t-6.5 25.5t8.5 25.5t19.5 11.5h48v55h-43q-19 0 -26.5 11.5t-6.5 25.5t8.5 25.5t19.5 11.5h49v46q4 18 17 25.5t27 6t24 -10.5t7 -23v-43l54 1v42q4 18 17 25.5t27 6t24 -10.5t7 -23v-40l45 1q18 -3 25.5 -16.5t6.5 -27t-10 -24t-23 -7.5
h-45v-55l46 1q18 -3 25.5 -16.5t6.5 -27t-10 -24t-23 -7.5h-46v-49q0 -19 -11.5 -26t-25.5 -6t-25.5 8.5t-11.5 19.5v52h-55v-46q0 -19 -11.5 -26t-25.5 -6t-25.5 8.5t-11.5 19.5v49zM197 244h54v55h-54v-55z" />
    <glyph glyph-name="dollar" unicode="$" horiz-adv-x="464" 
d="M182 -18q-48 11 -86.5 41t-50.5 79q-1 18 9.5 30t23.5 16.5t25 0t14 -18.5q4 -27 21.5 -44.5t42.5 -26.5v229q-29 12 -55.5 26.5t-46 35.5t-29.5 50t-6 70q6 61 45.5 97t90.5 47v12q3 18 16 25t27 6t25 -10t11 -22v-10q19 -4 40 -12.5t40.5 -23.5t36.5 -38t27 -56
q6 -15 -2 -26t-21 -15.5t-26 -2t-16 16.5q-10 42 -34.5 60t-45.5 23v-206q8 -4 12 -5q31 -13 61.5 -28.5t53 -38t34 -54.5t6.5 -77q-4 -37 -19.5 -65t-38.5 -47t-51.5 -29.5t-59.5 -13.5v-18q0 -19 -11.5 -26.5t-25.5 -6.5t-25.5 8.5t-11.5 19.5v28zM348 138q4 24 -1.5 42.5
t-18.5 32.5t-31 25t-40 20l-1 -207q35 5 60 26t32 61zM117 466q-5 -40 13 -62t50 -38v172q-28 -10 -44.5 -31t-18.5 -41z" />
    <glyph glyph-name="percent" unicode="%" horiz-adv-x="389" 
d="M282 595q10 15 25 16t27 -5.5t19 -19t1 -24.5l-254 -553q-8 -17 -21.5 -19.5t-25.5 4t-19.5 18t-2.5 22.5zM47 554q0 19 12.5 32t31.5 13t32 -13t13 -32t-13 -31.5t-32 -12.5t-31.5 12.5t-12.5 31.5zM256 50q0 19 12.5 32t31.5 13t32 -13t13 -32t-13 -31.5t-32 -12.5
t-31.5 12.5t-12.5 31.5z" />
    <glyph glyph-name="ampersand" unicode="&#x26;" horiz-adv-x="421" 
d="M130 313q-13 21 -25.5 52.5t-20 65.5t-7.5 67.5t12 60.5t37.5 43t69.5 15q39 -1 59.5 -17t27 -42t1 -59t-18 -67t-29 -67.5t-32.5 -59.5q-1 -3 10.5 -25.5t26.5 -49t28.5 -49.5t18.5 -28q10 38 6.5 74t-8.5 61q-3 16 5.5 25t21 10t24 -6t14.5 -22q19 -115 -19 -212
l48 -73q7 -12 3.5 -24t-13 -19t-22.5 -7t-23 12l-38 59q-22 -29 -57.5 -42t-80.5 -8q-46 4 -71.5 23.5t-34.5 48t-4.5 63.5t18 70.5t33 68.5t40.5 58zM161 249q-7 -11 -17.5 -29t-20 -39.5t-15.5 -44t-4 -42t14.5 -34t40.5 -19.5q26 -2 51 11t39 33zM172 369q4 7 12.5 23
t17 36t14.5 42t6.5 40.5t-7.5 31t-28 13.5q-12 1 -24.5 -8t-18.5 -30.5t-1 -57.5t29 -90z" />
    <glyph glyph-name="quotesingle" unicode="'" horiz-adv-x="237" 
d="M82 426q-10 9 -7 21.5t13 21t23.5 10t25.5 -11.5q13 -14 21.5 -37t9.5 -49.5t-7.5 -55t-30.5 -52.5q-12 -13 -26.5 -14t-25 5.5t-14.5 18t5 22.5q16 14 23.5 32t7.5 35t-5 31.5t-13 22.5z" />
    <glyph glyph-name="parenleft" unicode="(" horiz-adv-x="370" 
d="M282 -6q21 -2 29 -16t6.5 -29t-11.5 -27t-25 -9q-56 10 -99 42t-72 82.5t-42.5 118t-10.5 148.5q3 64 18 126t44.5 113t74.5 88.5t107 52.5q14 3 23.5 -6.5t11.5 -24t-5 -28.5t-25 -20q-51 -15 -84 -48t-52.5 -75.5t-28 -90.5t-10.5 -94q-3 -63 9 -117.5t34 -95.5t50 -65
t58 -25z" />
    <glyph glyph-name="parenright" unicode=")" horiz-adv-x="385" 
d="M121 -6q30 1 58 25t50 65t34 95.5t9 117.5q-2 46 -10.5 94t-28 90.5t-52.5 75.5t-84 48q-18 6 -25 20t-5 28.5t11.5 24t23.5 6.5q62 -15 107 -52.5t74.5 -88.5t44.5 -113t18 -126q3 -81 -10.5 -148.5t-42.5 -118t-72.5 -82.5t-98.5 -42q-15 -3 -25 9t-11.5 27t6.5 29
t29 16z" />
    <glyph glyph-name="asterisk" unicode="*" horiz-adv-x="492" 
d="M320 336l85 -47q14 -12 14 -27t-8 -26.5t-20.5 -15.5t-23.5 5l-76 41l2 -90q-3 -18 -16.5 -25.5t-27 -6.5t-24 9.5t-7.5 22.5l-1 77l-70 -55q-16 -9 -30 -3.5t-21.5 17t-7.5 24.5t12 20l86 68l-88 49q-16 10 -16.5 23.5t7.5 25t20.5 18t22.5 0.5l83 -46l-1 93
q0 19 11.5 26.5t25.5 6.5t26 -8.5t12 -19.5l1 -85l53 43q15 12 28 7.5t21.5 -15.5t9.5 -25t-8 -22z" />
    <glyph glyph-name="plus" unicode="+" horiz-adv-x="395" 
d="M160 195h-81q-19 0 -26.5 11.5t-6.5 25.5t8.5 25.5t19.5 11.5l87 1l1 83q3 18 16.5 25.5t27 6t23.5 -10.5t7 -23l-1 -80l86 1q18 -3 25.5 -16.5t6.5 -27t-10 -24t-23 -7.5l-86 -1v-86q0 -19 -12 -26t-26 -6t-25 8.5t-11 19.5v89z" />
    <glyph glyph-name="comma" unicode="," horiz-adv-x="223" 
d="M76 79q-10 9 -7 21.5t13 21t23.5 10t25.5 -11.5q13 -14 21.5 -37t9.5 -49.5t-7.5 -55t-30.5 -52.5q-12 -13 -26.5 -14t-25 5.5t-14.5 18t5 22.5q16 14 23.5 32t7.5 35t-5 31.5t-13 22.5z" />
    <glyph glyph-name="hyphen" unicode="-" horiz-adv-x="403" 
d="M321 272q18 -3 25.5 -16.5t6.5 -27t-10 -24t-23 -7.5l-241 -2q-19 0 -26.5 11.5t-6.5 25.5t8.5 25.5t19.5 11.5z" />
    <glyph glyph-name="period" unicode="." horiz-adv-x="166" 
d="M39 41q0 19 12.5 32t31.5 13t32 -13t13 -32t-13 -31.5t-32 -12.5t-31.5 12.5t-12.5 31.5z" />
    <glyph glyph-name="slash" unicode="/" horiz-adv-x="382" 
d="M282 595q10 15 25 16t27 -5.5t19 -19t1 -24.5l-254 -553q-8 -17 -21.5 -19.5t-25.5 4t-19.5 18t-2.5 22.5z" />
    <glyph glyph-name="zero" unicode="0" horiz-adv-x="534" 
d="M49 299q0 64 17 121.5t47 101t70 68.5t85 25t85 -25t70 -68.5t47 -101t17 -121.5q0 -65 -17 -120.5t-47 -97t-70 -65t-85 -23.5t-85 23.5t-70 65t-47 97t-17 120.5zM123 293q0 -46 11.5 -86.5t31.5 -71t46.5 -48t56.5 -17.5t56 17.5t45.5 48t30.5 71t11 86.5t-11.5 89.5
t-31.5 77t-46.5 54t-56.5 20.5t-56 -20.5t-45.5 -54t-30.5 -77t-11 -89.5z" />
    <glyph glyph-name="one" unicode="1" horiz-adv-x="183" 
d="M52 578q3 18 16 25t27 6t25 -10t11 -22l2 -549q0 -19 -11.5 -26.5t-25.5 -6.5t-25.5 8.5t-11.5 19.5z" />
    <glyph glyph-name="two" unicode="2" horiz-adv-x="441" 
d="M84 -6q-18 0 -27 10t-11 22.5t2.5 24.5t14.5 16q49 48 95 98t81.5 99.5t56.5 97.5t20 91q-1 38 -22 61t-52 28q-20 3 -40.5 -0.5t-39 -14.5t-32.5 -29t-20 -43q-3 -14 -16 -16t-26 3t-21 16.5t-2 26.5q14 39 39 66.5t55 43.5t63.5 21t64.5 -1q26 -5 50 -18.5t42 -34.5
t27.5 -50t7.5 -64q-3 -52 -22 -103t-48.5 -99.5t-65.5 -93t-74 -84.5h191q18 -3 24.5 -16t4 -26t-12.5 -23t-24 -7z" />
    <glyph glyph-name="three" unicode="3" horiz-adv-x="461" 
d="M219 285q-9 -1 -16.5 9t-10 23t2.5 24.5t20 13.5q15 0 35.5 5.5t39 18.5t30 34t8.5 53q-2 15 -10.5 30t-23.5 26.5t-36 18t-46 4.5q-8 -1 -22.5 -3.5t-30.5 -11.5t-30.5 -26t-21.5 -46q-3 -14 -16 -16.5t-26 2t-21 15.5t-2 26q12 39 32.5 64t44.5 40t48 21.5t43 7.5
q32 2 64.5 -6.5t59.5 -27t45 -47t22 -67.5q5 -51 -11.5 -86t-45.5 -57q38 -24 59 -69t14 -111q-5 -51 -26 -86t-50.5 -56t-64 -29.5t-66.5 -6.5q-19 1 -43 7.5t-48 21.5t-44.5 40t-32.5 64q-6 15 2 26t21 15.5t26 1.5t16 -16q7 -29 21.5 -46t30.5 -26t30.5 -11.5t22.5 -3.5
q25 -2 48 5t40.5 22t29 36t14.5 46q3 32 -6 57t-27 42t-42 26t-50 9z" />
    <glyph glyph-name="four" unicode="4" horiz-adv-x="441" 
d="M314 274h-188q-35 0 -57 10.5t-22 44.5l-3 249q3 18 17 24t28.5 3.5t25.5 -12t8 -21.5l-1 -220h192l-2 226q3 18 17 24.5t28 4.5t25 -11t8 -21l2 -547q0 -19 -11.5 -26.5t-26 -6.5t-26 8.5t-11.5 19.5z" />
    <glyph glyph-name="five" unicode="5" horiz-adv-x="451" 
d="M49 535q0 35 10.5 57t44.5 22h283q18 -3 24 -17t3.5 -28.5t-12 -25.5t-21.5 -8l-254 4v-135q63 15 114 6.5t87.5 -34.5t57.5 -66.5t24 -89.5q4 -65 -9 -114.5t-43 -81t-75.5 -43.5t-106.5 -1q-65 11 -102 56.5t-35 108.5q0 14 12 23.5t26 12t26.5 -3.5t13.5 -23
q4 -53 30 -76t55 -27q38 -5 64 6.5t41.5 34t21.5 53t5 63.5q-2 34 -17.5 63t-42.5 46.5t-64 20.5t-80 -14q-7 -3 -18.5 -4.5t-23.5 2t-22 15t-14 34.5z" />
    <glyph glyph-name="six" unicode="6" horiz-adv-x="486" 
d="M385 611q12 -4 17 -18t3 -28.5t-11.5 -24t-27.5 -5.5q-43 6 -76 -1.5t-57.5 -24t-41 -39t-27.5 -47t-17.5 -47.5t-9.5 -40q20 15 47.5 24t53.5 12q40 3 75.5 -9t63.5 -36.5t45 -58.5t19 -74t-10.5 -77t-37 -66.5t-58.5 -48.5t-74 -23q-63 -6 -106 18.5t-68.5 69
t-33.5 103.5t0 123q4 29 11 67t22 76.5t38.5 74.5t59.5 61.5t85 37t116 1.5zM126 165q2 -24 14 -46t30 -37.5t40.5 -24t46.5 -5.5q24 2 45 13.5t36.5 29.5t23.5 41t7 47q-2 24 -12.5 44.5t-28 35.5t-40 23t-46.5 6q-24 -3 -46 -12t-38.5 -25t-25.5 -38.5t-6 -51.5z" />
    <glyph glyph-name="seven" unicode="7" horiz-adv-x="477" 
d="M379 618q39 1 53.5 -20t-3.5 -63l-223 -521q-6 -18 -19.5 -21.5t-26.5 1.5t-21.5 16t-4.5 22l214 509h-273q-19 0 -26 11t-6 24.5t8.5 25t19.5 11.5z" />
    <glyph glyph-name="eight" unicode="8" horiz-adv-x="445" 
d="M404 168q0 -36 -14.5 -69t-39 -57.5t-57.5 -39t-69 -14.5t-68.5 14.5t-57 39t-38.5 57.5t-14 69q0 42 18.5 79.5t50.5 62.5q-31 23 -49 57.5t-18 77.5q0 36 13.5 69t37.5 57.5t56 39t68 14.5t68 -14.5t56 -39t37.5 -57.5t13.5 -69q0 -42 -18 -76.5t-48 -57.5
q32 -25 52 -62.5t20 -80.5zM331 169q0 21 -9 40t-23.5 33.5t-33.5 23t-40 8.5t-39.5 -8.5t-33 -23t-23 -33.5t-8.5 -40t8.5 -40t23 -33t33 -22.5t39.5 -8.5t40 8.5t33.5 22.5t23.5 33t9 40zM121 444q0 -21 8 -38t22 -29.5t32 -19t39 -6.5t39 6.5t32 19t22 29.5t8 38t-8 40
t-22 33t-32 22.5t-39 8.5t-39 -8.5t-32 -22.5t-22 -33t-8 -40z" />
    <glyph glyph-name="nine" unicode="9" horiz-adv-x="443" 
d="M318 580q0 12 11.5 19.5t25.5 8.5t25.5 -6.5t11.5 -26.5l1 -556q-3 -21 -15.5 -29t-26 -6.5t-24.5 12t-12 26.5v18.5v45.5t-0.5 58.5t-0.5 58.5t-0.5 45t-0.5 19q-21 -15 -46 -23.5t-52 -8.5q-36 0 -68 15t-56 40t-37.5 58.5t-13.5 69.5t13.5 69t37.5 58t56 39.5t68 14.5
q29 0 54.5 -9t47.5 -26zM113 419q0 -21 8 -40.5t22 -34t32 -23.5t39 -9t39.5 8.5t32.5 22.5t22 33t7 40q-2 54 -30.5 81t-70.5 27q-21 0 -39 -8.5t-32 -23t-22 -33.5t-8 -40z" />
    <glyph glyph-name="colon" unicode=":" horiz-adv-x="201" 
d="M55 131q0 19 12.5 32t31.5 13t32 -13t13 -32t-13 -31.5t-32 -12.5t-31.5 12.5t-12.5 31.5zM55 320q0 19 12.5 32t31.5 13t32 -13t13 -32t-13 -31.5t-32 -12.5t-31.5 12.5t-12.5 31.5z" />
    <glyph glyph-name="semicolon" unicode=";" horiz-adv-x="219" 
d="M55 320q0 19 12.5 32t31.5 13t32 -13t13 -32t-13 -31.5t-32 -12.5t-31.5 12.5t-12.5 31.5zM76 79q-10 9 -7 21.5t13 21t23.5 10t25.5 -11.5q13 -14 21.5 -37t9.5 -49.5t-7.5 -55t-30.5 -52.5q-12 -13 -26.5 -14t-25 5.5t-14.5 18t5 22.5q16 14 23.5 32t7.5 35t-5 31.5
t-13 22.5z" />
    <glyph glyph-name="less" unicode="&#x3c;" horiz-adv-x="378" 
d="M81 200q-16 9 -21 21.5t-2 24.5t11 22t19 14l194 109q11 4 21.5 -3.5t15 -20t1 -26t-19.5 -22.5l-141 -76l151 -77q17 -6 19.5 -19.5t-3.5 -26t-18 -20.5t-22 -3z" />
    <glyph glyph-name="equal" unicode="=" horiz-adv-x="404" 
d="M321 207q18 -3 25.5 -16.5t6.5 -27t-10 -24t-23 -7.5l-241 -2q-19 0 -26.5 11.5t-6.5 25.5t8.5 25.5t19.5 11.5zM321 336q18 -3 25.5 -16.5t6.5 -27t-10 -24t-23 -7.5l-241 -2q-19 0 -26.5 11.5t-6.5 25.5t8.5 25.5t19.5 11.5z" />
    <glyph glyph-name="greater" unicode="&#x3e;" horiz-adv-x="388" 
d="M109 98q-11 -5 -22.5 3t-17.5 20.5t-3.5 26t19.5 19.5l151 77l-141 76q-16 9 -19.5 22.5t1 26t15 20t21.5 3.5l194 -109q10 -4 18.5 -14t11.5 -22t-2 -24.5t-21 -21.5z" />
    <glyph glyph-name="question" unicode="?" horiz-adv-x="460" 
d="M165 248q0 18 5.5 28t14 15t18 6t18.5 1q24 0 43.5 8.5t34 22.5t24 32.5t12.5 39.5q4 25 0 51.5t-16.5 48.5t-32.5 37.5t-48 18.5q-48 5 -82.5 -21.5t-38.5 -81.5q-1 -17 -14 -23t-27.5 -3.5t-26 12t-10.5 23.5q4 47 22.5 80.5t47 54t65.5 28.5t79 5q46 -5 79 -27.5
t53.5 -55t28.5 -72.5t2 -79q-5 -32 -18 -62t-35 -54t-52.5 -39.5t-70.5 -18.5l-1 -56q0 -19 -11.5 -26.5t-25.5 -6.5t-25.5 8.5t-11.5 19.5v86zM241 31q0 -19 -12.5 -32t-31.5 -13t-32 13t-13 32t13 31.5t32 12.5t31.5 -12.5t12.5 -31.5z" />
    <glyph glyph-name="at" unicode="@" horiz-adv-x="789" 
d="M401 525q-58 -2 -107 -23.5t-85 -57.5t-57 -85.5t-23 -107.5q-2 -50 15 -97.5t55.5 -83.5t101 -55t151.5 -12q19 1 27.5 -9.5t8 -24t-8.5 -25.5t-23 -13q-104 -10 -180 13.5t-126 68.5t-74 106t-25 126q-1 74 25.5 139.5t73.5 115t113 78.5t145 30t139 -20.5t101.5 -58.5
t64.5 -84.5t28.5 -98.5t-6.5 -101.5t-41 -93t-74 -73t-106 -41.5q-14 -3 -21.5 4.5t-11 20t-4.5 28.5t-1 31q-22 -17 -47.5 -26t-54.5 -9q-36 0 -68 14.5t-56 39.5t-37.5 58t-13.5 69t13.5 69t37.5 57.5t56 39t68 14.5q27 0 52 -8.5t46 -23.5q4 17 18 23.5t28.5 4.5
t25.5 -11t8 -21l-1 -288q39 5 66.5 37t39.5 78t5 97.5t-36.5 95t-84.5 70.5t-140 24zM272 266q0 -21 8 -40t22 -33.5t32 -23t39 -8.5t39 8.5t32 23t22 33.5t8 40t-8 40t-22 33t-32 22.5t-39 8.5t-39 -8.5t-32 -22.5t-22 -33t-8 -40z" />
    <glyph glyph-name="A" unicode="A" horiz-adv-x="554" 
d="M247 585q8 16 20.5 22t24.5 3.5t22.5 -10.5t14.5 -18l192 -555q4 -11 -4 -22t-21 -16.5t-26.5 -2.5t-19.5 20l-73 207h-178l-72 -204q-6 -17 -19.5 -20t-26.5 2.5t-21 16.5t-4 22zM226 289h124l-62 175z" />
    <glyph glyph-name="B" unicode="B" horiz-adv-x="490" 
d="M71 552q0 4 3.5 13.5t11.5 20t21 19t33 11.5q15 3 41 4t56.5 -1.5t61 -11.5t56 -27t42 -47.5t17.5 -72.5q0 -24 -7 -45t-20 -38t-29.5 -30.5t-34.5 -23.5q24 -11 45.5 -28.5t37 -39t24 -47t7.5 -52.5q-6 -99 -80 -138.5t-220 -30.5q-14 1 -27 1.5t-23 6.5t-16 20t-6 43z
M360 167q-1 35 -21 58.5t-51.5 37.5t-70 19t-77.5 3v-222q32 -7 70.5 -7t72 11t55.5 35t22 65zM342 459q0 20 -14.5 38.5t-41 31t-63.5 16.5t-82 -6l-1 -179q27 -2 62 -0.5t66.5 11.5t52.5 31t21 57z" />
    <glyph glyph-name="C" unicode="C" horiz-adv-x="526" 
d="M401 181q7 18 21.5 20.5t27 -5t19 -23t-2.5 -33.5q-29 -67 -78.5 -108t-109.5 -41q-45 0 -85 24t-70 65.5t-47 97.5t-17 121q0 64 17 121.5t47 101t70 68.5t85 25q63 0 112 -34t77 -110q8 -12 0.5 -24.5t-21.5 -19t-29.5 -4t-24.5 20.5q-20 51 -49 70t-67 19
q-30 0 -56 -20t-45.5 -53.5t-30.5 -77t-11 -89.5t11.5 -86.5t31.5 -70.5t46.5 -47t56.5 -17q39 0 71.5 30.5t50.5 78.5z" />
    <glyph glyph-name="D" unicode="D" horiz-adv-x="506" 
d="M71 552q0 4 3.5 14t11.5 20.5t21 19t33 10.5q88 7 149 -19.5t98 -75.5t52.5 -114t13.5 -133q-2 -60 -19.5 -114t-54.5 -93.5t-96.5 -61t-145.5 -18.5q-14 0 -27.5 0.5t-23.5 6.5t-15.5 20.5t-5.5 43.5zM140 63q64 -6 108.5 8t72 43t40.5 70.5t15 91.5q2 54 -7.5 105
t-36 89t-73 58t-118.5 11z" />
    <glyph glyph-name="E" unicode="E" horiz-adv-x="488" 
d="M136 -16q-9 0 -20 2t-20 6.5t-15 10.5t-6 15l-7 546q0 26 14 39.5t52 13.5l269 -2q19 0 26.5 -11.5t6.5 -25.5t-8.5 -25.5t-19.5 -11.5l-261 -3v-188l173 -1q19 0 26.5 -11.5t6.5 -25.5t-8.5 -25.5t-19.5 -11.5l-177 -3l1 -209l256 -2q19 0 26.5 -11.5t6.5 -25.5
t-8.5 -25.5t-19.5 -11.5z" />
    <glyph glyph-name="F" unicode="F" horiz-adv-x="490" 
d="M149 10q0 -12 -12 -16.5t-25.5 -3t-25 7.5t-11.5 15l-7 557q0 26 14 39.5t52 13.5l269 -2q19 0 26.5 -11.5t6.5 -25.5t-8.5 -25.5t-19.5 -11.5l-261 -3v-194l173 -1q19 0 26.5 -11.5t6.5 -25.5t-8.5 -25.5t-19.5 -11.5l-177 -3l1 -262v0z" />
    <glyph glyph-name="G" unicode="G" horiz-adv-x="546" 
d="M279 69q26 0 50.5 10t43 32t31 57.5t14.5 86.5l-117 -2q-19 0 -26.5 11.5t-6.5 25.5t8.5 25.5t19.5 11.5l130 1q27 0 41.5 -6.5t21 -17t7 -22.5t-0.5 -23q-4 -68 -22.5 -118t-48 -83.5t-67 -50t-79.5 -16.5q-45 0 -85 24t-70 65.5t-47 97.5t-17 121q0 64 17 121.5t47 101
t70 68.5t85 25q31 0 60 -12.5t54 -34.5t45 -53t34 -68q3 -9 -8 -19t-25.5 -15t-27.5 -4.5t-14 12.5q-20 48 -51 82t-69 34q-30 0 -56 -21t-45.5 -55t-31 -78t-11.5 -90t12 -87t32 -71.5t46.5 -48t56.5 -17.5z" />
    <glyph glyph-name="H" unicode="H" horiz-adv-x="520" 
d="M384 274h-252l1 -246q0 -19 -11.5 -26.5t-25.5 -6.5t-25.5 8.5t-11.5 19.5l-7 555q3 18 17 24t28.5 3.5t25.5 -12t8 -21.5l1 -220h252l-2 226q3 18 17 24.5t28 4.5t25 -11t8 -21l2 -547q0 -19 -11.5 -26.5t-26 -6.5t-26 8.5t-11.5 19.5z" />
    <glyph glyph-name="I" unicode="I" horiz-adv-x="406" 
d="M160 74l-3 461l-88 -1q-19 0 -26.5 11.5t-6.5 25.5t8.5 25.5t19.5 11.5h274q18 -3 24.5 -16t4 -26t-12.5 -23t-24 -7l-94 -1l1 -461l93 -1q14 3 24 -7t12.5 -23t-4 -26t-24.5 -16h-274q-12 0 -19.5 11.5t-8.5 25.5t6.5 25.5t26.5 11.5l88 -1h3z" />
    <glyph glyph-name="J" unicode="J" horiz-adv-x="565" 
d="M103 181q18 -48 50.5 -79t71.5 -30q28 1 46 24t29 61t15 86t5 99.5t0 102t-2 92.5l-133 2q-19 0 -26.5 11.5t-6.5 25.5t8.5 25.5t19.5 11.5h326q18 -3 24.5 -16t4 -26t-12.5 -23t-24 -7l-100 -1q2 -51 4 -110.5t0 -119.5t-11 -116.5t-29 -100.5t-53 -71.5t-83 -30.5
q-30 -2 -58 9t-52 31t-44 48t-34 61q-9 18 -2.5 33.5t19 23t27 5t21.5 -20.5z" />
    <glyph glyph-name="K" unicode="K" horiz-adv-x="506" 
d="M52 578q3 18 17 25t28.5 5.5t25.5 -10t8 -20.5l1 -224l242 249q16 8 30 0.5t21.5 -21t7 -27.5t-12.5 -19l-179 -178l205 -295q9 -7 8.5 -21t-8 -26t-20.5 -16.5t-28 6.5l-212 297q-29 -27 -39 -38.5t-15 -10.5l1 -226q0 -19 -11.5 -26.5t-25.5 -6.5t-25.5 8.5t-11.5 19.5
z" />
    <glyph glyph-name="L" unicode="L" horiz-adv-x="478" 
d="M52 578q3 18 17 24t28.5 3t25.5 -12.5t8 -21.5l2 -496l273 4q18 -3 23 -16.5t1.5 -28t-14 -25t-22.5 -7.5l-274 -4q-10 0 -20.5 1.5t-19.5 6.5t-15 15t-6 28z" />
    <glyph glyph-name="M" unicode="M" horiz-adv-x="656" 
d="M131 380l2 -364q0 -19 -11.5 -26.5t-25.5 -6.5t-25.5 8.5t-11.5 19.5l-7 567q2 13 13 20t24 8t24.5 -4.5t16.5 -17.5l195 -461l196 464q3 12 16 16t27 1t25.5 -11.5t10.5 -21.5l2 -556q0 -19 -11.5 -26.5t-25.5 -6.5t-25.5 8.5t-11.5 19.5l-5 380l-160 -370
q-5 -11 -15.5 -16t-23 -4.5t-23.5 6.5t-16 17z" />
    <glyph glyph-name="N" unicode="N" horiz-adv-x="514" 
d="M131 444l2 -426q0 -19 -11.5 -26.5t-25.5 -6.5t-25.5 8.5t-11.5 19.5l-7 565q2 15 12.5 22.5t23.5 9t25.5 -4t18.5 -15.5l256 -437l-5 425q3 18 16 25t27 6t25 -10t11 -22l2 -561q0 -12 -9.5 -18.5t-22 -8t-24.5 2.5t-17 13z" />
    <glyph glyph-name="O" unicode="O" horiz-adv-x="556" 
d="M59 299q0 64 17 121.5t47 101t70 68.5t85 25t85 -25t70 -68.5t47 -101t17 -121.5q0 -65 -17 -120.5t-47 -97t-70 -65t-85 -23.5t-85 23.5t-70 65t-47 97t-17 120.5zM133 293q0 -46 11.5 -86.5t31.5 -71t46.5 -48t56.5 -17.5t56 17.5t45.5 48t30.5 71t11 86.5t-11.5 89.5
t-31.5 77t-46.5 54t-56.5 20.5t-56 -20.5t-45.5 -54t-30.5 -77t-11 -89.5z" />
    <glyph glyph-name="P" unicode="P" horiz-adv-x="438" 
d="M125 8q-6 -11 -18.5 -16t-25 -4.5t-22.5 6t-10 15.5l2 522q0 38 21 61t55 24h41t56 -4t61 -13.5t56 -28t41.5 -48t17.5 -73.5q1 -56 -24 -95t-65 -63t-89 -33.5t-97 -6.5v-243zM328 451q0 20 -14.5 39.5t-41 33t-63.5 18.5t-82 -3l-2 -216q27 -3 62 3t66.5 21.5t53 41.5
t21.5 62z" />
    <glyph glyph-name="Q" unicode="Q" horiz-adv-x="552" 
d="M392 37q-25 -21 -53.5 -32.5t-60.5 -11.5q-45 0 -85 23.5t-70 65t-47 97t-17 120.5q0 64 17 121.5t47 101t70 68.5t85 25t85 -25t70 -68.5t47 -101t17 -121.5q0 -60 -15.5 -112.5t-41.5 -93.5l38 -50q8 -17 2 -29.5t-18 -18.5t-26 -4t-20 15zM135 293q0 -46 11.5 -86.5
t31 -70.5t45.5 -47t56 -17q36 0 67 26l-42 55q-11 15 -6.5 28t16 20.5t25.5 8.5t21 -8l31 -43q14 28 21.5 62t7.5 72q0 46 -11.5 89t-31 76.5t-45.5 53.5t-56 20t-55.5 -20t-44.5 -53.5t-30 -76.5t-11 -89z" />
    <glyph glyph-name="R" unicode="R" horiz-adv-x="484" 
d="M136 8q-6 -11 -18 -16t-24 -4.5t-21.5 6t-9.5 15.5l2 522q0 38 21 61t55 24h41t56 -4t61 -13.5t56 -28t41.5 -48t17.5 -73.5q0 -24 -7.5 -46.5t-20 -41.5t-29.5 -34t-35 -25l104 -278q4 -14 -7.5 -22.5t-27 -11t-30 1t-15.5 12.5l-104 284q-32 -8 -62 -6.5t-44 4.5v-278z
M342 451q0 20 -15.5 39.5t-42.5 33t-65 18.5t-83 -3v-181q27 -3 62.5 -2.5t67.5 9.5t54 29.5t22 56.5z" />
    <glyph glyph-name="S" unicode="S" horiz-adv-x="469" 
d="M403 485q6 -15 -2 -26t-21 -15.5t-26 -2t-16 16.5q-7 29 -21.5 46t-30.5 26t-31 11.5t-22 3.5q-25 2 -46 -4.5t-36 -18t-24 -26.5t-10 -30q-3 -32 8 -52.5t32.5 -34.5t51 -25t61.5 -24q31 -13 61.5 -28.5t53 -38t34 -54.5t6.5 -77q-5 -47 -28 -79.5t-56.5 -51t-73 -24
t-77.5 2.5q-51 10 -91.5 40.5t-53.5 81.5q-1 18 9.5 30t23.5 16.5t25 0t14 -18.5q5 -36 34 -55t65 -24q23 -3 45 0.5t40 14.5t30.5 28.5t16.5 43.5q4 28 -4 48.5t-25 35.5t-41 26t-51 22q-34 13 -68.5 28t-61.5 37t-42.5 54.5t-10.5 80.5q4 39 22 67.5t45 47t59.5 27
t64.5 6.5q19 -1 43 -7.5t48 -21.5t44.5 -40t32.5 -64z" />
    <glyph glyph-name="T" unicode="T" horiz-adv-x="542" 
d="M474 611q18 -3 23.5 -16t2.5 -26t-13.5 -23t-24.5 -7l-156 -1l2 -519q0 -19 -11.5 -26.5t-25.5 -6.5t-25.5 8.5t-11.5 19.5l-7 524l-147 -1q-19 0 -26.5 11.5t-6.5 25.5t8.5 25.5t19.5 11.5h399z" />
    <glyph glyph-name="U" unicode="U" horiz-adv-x="496" 
d="M132 588q-7 -122 -5 -207.5t7 -143.5q5 -64 19 -98.5t30.5 -51t32 -20t22.5 -3.5q14 0 32.5 6.5t37 23t33.5 43.5t23 68l6 372q1 16 12 26.5t24.5 12t26 -6.5t15.5 -29l-7 -564q0 -19 -11.5 -26.5t-25.5 -6.5t-25.5 8.5t-11.5 19.5l-1 46q-17 -24 -47 -45.5t-68 -22.5
q-65 -1 -103.5 25.5t-59 69.5t-27.5 96.5t-9 107.5q-2 58 -2.5 131t4.5 164q1 19 13.5 26.5t27 6.5t26.5 -8.5t11 -19.5z" />
    <glyph glyph-name="V" unicode="V" horiz-adv-x="574" 
d="M330 4q-8 -17 -20.5 -22.5t-24.5 -3t-22.5 10t-14.5 18.5l-192 555q-4 11 4 22t21 16.5t26.5 2.5t19.5 -20l162 -458l161 455q6 17 19.5 20t26.5 -2.5t21 -16.5t4 -22z" />
    <glyph glyph-name="W" unicode="W" horiz-adv-x="830" 
d="M418 404l-107 -400q-8 -17 -20.5 -22.5t-24.5 -3t-22.5 10t-14.5 18.5l-179 555q-4 11 4 22t21 16.5t26.5 2.5t19.5 -20l149 -458l113 435q4 11 13.5 16.5t20.5 5.5t21 -5t15 -16l115 -435l147 458q6 17 19.5 20t26.5 -2.5t21 -16.5t4 -22l-177 -555q-4 -11 -14.5 -18.5
t-22.5 -10t-24.5 3t-20.5 22.5z" />
    <glyph glyph-name="X" unicode="X" horiz-adv-x="482" 
d="M244 390l114 214q10 15 25.5 15.5t28.5 -7t19 -20t-1 -22.5l-143 -262l146 -273q5 -11 -2.5 -22.5t-19.5 -18t-25.5 -4.5t-21.5 19l-120 220l-120 -220q-8 -17 -21.5 -19t-25.5 4.5t-19.5 18t-2.5 22.5l145 273l-142 262q-8 10 -1.5 22.5t19.5 20t28 7t26 -15.5z" />
    <glyph glyph-name="Y" unicode="Y" horiz-adv-x="460" 
d="M198 255q-2 4 -3 7l-157 307q-4 11 3.5 21.5t19.5 16t25.5 2.5t22.5 -19l130 -245l112 246q7 17 21 20t26.5 -2.5t20 -16.5t3.5 -22l-144 -309l-1 -251q0 -19 -11.5 -26.5t-25.5 -6.5t-25.5 8.5t-11.5 19.5z" />
    <glyph glyph-name="Z" unicode="Z" horiz-adv-x="482" 
d="M84 -13q-17 0 -25 8.5t-9 22t4.5 28.5t16.5 28l261 462l-260 -2q-18 3 -25 16t-6 27t9.5 25t22.5 11h329q9 0 18 -5.5t14 -16.5t3 -28t-15 -39l-261 -461l248 -1q19 0 26.5 -11.5t6.5 -25.5t-8.5 -25.5t-19.5 -11.5z" />
    <glyph glyph-name="bracketleft" unicode="[" horiz-adv-x="260" 
d="M105 -106q-9 0 -20 2t-20 6.5t-15 10.5t-6 15l-7 713q0 26 14 39.5t52 13.5l94 1q19 0 26.5 -11.5t6.5 -25.5t-8.5 -25.5t-19.5 -11.5l-86 -3l2 -647l81 -2q19 0 26.5 -11.5t6.5 -25.5t-8.5 -25.5t-19.5 -11.5z" />
    <glyph glyph-name="backslash" unicode="\" horiz-adv-x="387" 
d="M356 34q5 -11 -2.5 -22.5t-19.5 -18t-26 -4t-21 19.5l-254 553q-6 12 1 24.5t19 19t26.5 5.5t25.5 -16z" />
    <glyph glyph-name="bracketright" unicode="]" horiz-adv-x="276" 
d="M71 -105q-12 0 -19.5 11.5t-8.5 25.5t6.5 25.5t26.5 11.5l81 2l2 647l-86 3q-12 0 -19.5 11.5t-8.5 25.5t6.5 25.5t26.5 11.5l94 -1q38 0 52 -13.5t14 -39.5l-7 -713q0 -9 -6 -15t-15 -10.5t-20 -6.5t-20 -2z" />
    <glyph glyph-name="asciicircum" unicode="^" horiz-adv-x="275" 
d="M92 346q9 12 20.5 17t23 4.5t21.5 -6.5t17 -15l47 -69q4 -10 -1 -21t-14 -17.5t-21 -6t-22 12.5l-31 43l-29 -42q-8 -12 -19.5 -12.5t-21.5 5t-16 15.5t-2 20z" />
    <glyph glyph-name="underscore" unicode="_" horiz-adv-x="378" 
d="M311 53q18 -3 25.5 -16.5t6.5 -27t-10 -24t-23 -7.5l-241 -2q-19 0 -26.5 11.5t-6.5 25.5t8.5 25.5t19.5 11.5z" />
    <glyph glyph-name="grave" unicode="`" horiz-adv-x="224" 
d="M181 423q8 -8 5 -21.5t-12.5 -23.5t-23 -13t-26.5 11l-63 70q-12 9 -10.5 22t11 23.5t24 14t29.5 -7.5z" />
    <glyph glyph-name="a" unicode="a" 
d="M323 24q-22 -17 -47.5 -26t-54.5 -9q-36 0 -68 14.5t-56 39.5t-37.5 58t-13.5 69t13.5 69t37.5 57.5t56 39t68 14.5q27 0 52 -8.5t46 -23.5q4 17 18 23.5t28.5 4.5t25.5 -11t8 -21l-1 -301q0 -19 -11.5 -26.5t-25.5 -6.5t-25.5 8.5t-11.5 19.5zM119 169q0 -21 8 -40
t22 -33.5t32 -23t39 -8.5t39 8.5t32 23t22 33.5t8 40t-8 40t-22 33t-32 22.5t-39 8.5t-39 -8.5t-32 -22.5t-22 -33t-8 -40z" />
    <glyph glyph-name="b" unicode="b" horiz-adv-x="445" 
d="M128 8q0 -12 -11.5 -19.5t-25.5 -8.5t-25.5 6.5t-11.5 26.5l-1 567q3 21 15.5 29t26 6.5t24.5 -12t12 -26.5v-19.5v-48t0.5 -61.5t0.5 -62t0.5 -48t0.5 -20q21 15 46 23.5t52 8.5q36 0 68 -14.5t56 -39t37.5 -57.5t13.5 -69t-13.5 -69t-37.5 -58t-56 -39.5t-68 -14.5
q-29 0 -54.5 9t-47.5 26zM333 169q0 21 -8 40t-22 33t-32 22.5t-39 8.5t-39 -8.5t-32 -22.5t-22 -33t-8 -40t8 -40t22 -33.5t32 -23t39 -8.5t39 8.5t32 23t22 33.5t8 40z" />
    <glyph glyph-name="c" unicode="c" horiz-adv-x="424" 
d="M312 123q8 13 22 13.5t25.5 -6.5t17.5 -20.5t-3 -29.5q-23 -42 -63.5 -66.5t-89.5 -24.5q-36 0 -68 14.5t-56 39.5t-37.5 58t-13.5 69t13.5 69t37.5 58t56 39.5t68 13.5q60 -2 98 -29.5t52 -63.5q5 -12 -3 -22.5t-20 -16.5t-25 -5t-18 11q-14 29 -36.5 39t-48.5 10
q-21 0 -39 -8.5t-32 -22.5t-22 -33t-8 -40t8 -40t22 -33.5t32 -23t39 -8.5q30 0 50 12t42 47z" />
    <glyph glyph-name="d" unicode="d" horiz-adv-x="452" 
d="M322 24q-22 -17 -47.5 -26t-54.5 -9q-36 0 -68 14.5t-56 39.5t-37.5 58t-13.5 69t13.5 69t37.5 57.5t56 39t68 14.5q27 0 52 -8.5t46 -23.5q0 1 0.5 20t0.5 48t0.5 62t0.5 61.5v47.5v20q1 16 12 26.5t24.5 12t26 -6.5t15.5 -29l-1 -567q0 -19 -11.5 -26.5t-25.5 -6.5
t-25.5 8.5t-11.5 19.5zM118 169q0 -21 8 -40t22 -33.5t32 -23t39 -8.5t39 8.5t32 23t22 33.5t8 40t-8 40t-22 33t-32 22.5t-39 8.5t-39 -8.5t-32 -22.5t-22 -33t-8 -40z" />
    <glyph glyph-name="e" unicode="e" horiz-adv-x="439" 
d="M314 102q10 11 25 11t27 -7.5t16.5 -20t-6.5 -26.5q-28 -35 -63.5 -52.5t-72 -20t-71.5 9t-62.5 35.5t-44 59.5t-16.5 79.5q0 36 13.5 68.5t37.5 57t56 39t68 15.5q31 1 59.5 -8t51 -26t37.5 -42t20 -56q5 -34 -10.5 -53.5t-68.5 -19.5l-189 1q6 -31 26.5 -54t48 -31.5
t59 0.5t59.5 41zM220 275q-29 -1 -52 -16.5t-36 -40.5l184 -2q-5 19 -15 30.5t-23 18t-28 8.5t-30 2z" />
    <glyph glyph-name="f" unicode="f" horiz-adv-x="442" 
d="M203 292q-2 -79 -1.5 -156t2.5 -133q1 -6 -11.5 -12t-28 -7t-28.5 5.5t-11 24.5q-2 28 -2 50v50.5v69.5v107h-52q-19 0 -26.5 11.5t-6.5 25.5t8.5 25.5t19.5 11.5h59q4 52 14.5 98.5t28 81t44 55t63.5 20.5q30 0 52.5 -10t38 -24.5t24.5 -31t13 -29.5q9 -18 2.5 -33.5
t-19 -23t-27 -5t-21.5 20.5q-8 26 -22 40t-40 15q-16 0 -28.5 -13t-21 -36.5t-14 -55.5t-8.5 -69h114q18 -3 24.5 -16t4 -26t-12.5 -23t-24 -7z" />
    <glyph glyph-name="g" unicode="g" horiz-adv-x="436" 
d="M317 340q0 12 11.5 19.5t25.5 8.5t25.5 -6.5t11.5 -26.5v-261q0 -129 -43 -194t-148 -61q-41 1 -72 19t-67 59q-12 13 -7.5 26t16.5 21t26.5 10t23.5 -6q20 -29 44 -41t45 -14q30 -3 50.5 7t32.5 28t16.5 43t3.5 54q-20 -13 -46.5 -20t-51.5 -7q-36 0 -68 14.5t-56 39
t-37.5 57.5t-13.5 69t13.5 69t37.5 58t56 39.5t68 14.5q29 0 54.5 -9t47.5 -26zM112 179q0 -21 8 -40t22 -33t32 -22.5t39 -8.5t39 8.5t32 22.5t22 33t8 40t-8 40t-22 33.5t-32 23t-39 8.5t-39 -8.5t-32 -23t-22 -33.5t-8 -40z" />
    <glyph glyph-name="h" unicode="h" horiz-adv-x="417" 
d="M299 15q2 86 -4 137t-16.5 78t-24 35t-25.5 8q-21 0 -39 -8.5t-32 -23t-22 -33.5t-8 -40v-142q-1 -16 -12 -26.5t-24.5 -12t-26 6.5t-15.5 29l1 554q0 19 11.5 26.5t25.5 6.5t25.5 -8.5t11.5 -19.5l1 -269q22 17 47.5 26t54.5 9q52 0 81 -24.5t43.5 -68t17.5 -104
t3 -131.5q0 -19 -11.5 -26.5t-25.5 -6.5t-25.5 8.5t-11.5 19.5z" />
    <glyph glyph-name="i" unicode="i" horiz-adv-x="194" 
d="M59 316q3 18 17 24.5t29 4.5t26 -11t8 -21l-1 -285q0 -19 -11.5 -26.5t-25.5 -6.5t-25.5 8.5t-11.5 19.5zM57 419q0 19 12.5 32t31.5 13t32 -13t13 -32t-13 -31.5t-32 -12.5t-31.5 12.5t-12.5 31.5z" />
    <glyph glyph-name="j" unicode="j" horiz-adv-x="182" 
d="M55 340q0 12 11.5 19.5t25.5 8.5t25.5 -6.5t11.5 -26.5v-261q0 -65 -10.5 -115.5t-33.5 -84.5t-59 -48.5t-88 -6.5q-20 3 -28 16t-6.5 26.5t12.5 24t31 7.5q57 -8 83.5 48.5t25.5 183.5zM47 446q0 19 12.5 32t31.5 13t32 -13t13 -32t-13 -31.5t-32 -12.5t-31.5 12.5
t-12.5 31.5z" />
    <glyph glyph-name="k" unicode="k" horiz-adv-x="404" 
d="M52 578q3 18 17 24.5t28.5 4.5t25.5 -11t8 -21l1 -336l156 132q16 8 30 0.5t21.5 -21t7 -27.5t-12.5 -19l-93 -75l113 -185q6 -10 0.5 -23t-17 -22t-26 -9.5t-25.5 14.5l-108 174l-46 -36l1 -114q0 -19 -11.5 -26.5t-25.5 -6.5t-25.5 8.5t-11.5 19.5z" />
    <glyph glyph-name="l" unicode="l" horiz-adv-x="186" 
d="M52 578q3 18 16 25t27 6t25 -10t11 -22l2 -549q0 -19 -11.5 -26.5t-25.5 -6.5t-25.5 8.5t-11.5 19.5z" />
    <glyph glyph-name="m" unicode="m" horiz-adv-x="643" 
d="M299 15q2 86 -4 137t-16.5 78t-24 35t-25.5 8q-21 0 -39 -8.5t-32 -23t-22 -33.5t-8 -40v-142q-1 -16 -12 -26.5t-24.5 -12t-26 6.5t-15.5 29l1 301q0 19 11.5 26.5t25.5 6.5t25.5 -8.5t11.5 -19.5l1 -16q22 17 47.5 26t54.5 9q42 0 69 -16.5t43 -46.5q24 32 58.5 49.5
t60.5 17.5q52 0 81 -24.5t43.5 -68t17.5 -104t3 -131.5q0 -19 -11.5 -26.5t-25.5 -6.5t-25.5 8.5t-11.5 19.5q2 86 -4 137t-16.5 78t-24 35t-25.5 8q-35 0 -59.5 -25t-35.5 -57q5 -38 6.5 -81.5t1.5 -93.5q0 -19 -11.5 -26.5t-25.5 -6.5t-25.5 8.5t-11.5 19.5z" />
    <glyph glyph-name="n" unicode="n" horiz-adv-x="417" 
d="M299 15q2 86 -4 137t-16.5 78t-24 35t-25.5 8q-21 0 -39 -8.5t-32 -23t-22 -33.5t-8 -40v-142q-1 -16 -12 -26.5t-24.5 -12t-26 6.5t-15.5 29l1 301q0 19 11.5 26.5t25.5 6.5t25.5 -8.5t11.5 -19.5l1 -16q22 17 47.5 26t54.5 9q52 0 81 -24.5t43.5 -68t17.5 -104
t3 -131.5q0 -19 -11.5 -26.5t-25.5 -6.5t-25.5 8.5t-11.5 19.5z" />
    <glyph glyph-name="o" unicode="o" 
d="M46 170q0 36 13.5 69t37.5 57.5t56 39t68 14.5t68 -14.5t56 -39t37.5 -57.5t13.5 -69t-13.5 -69t-37.5 -58t-56 -39.5t-68 -14.5t-68 14.5t-56 39.5t-37.5 58t-13.5 69zM119 169q0 -21 8 -40t22 -33.5t32 -23t39 -8.5t39 8.5t32 23t22 33.5t8 40t-8 40t-22 33t-32 22.5
t-39 8.5t-39 -8.5t-32 -22.5t-22 -33t-8 -40z" />
    <glyph glyph-name="p" unicode="p" horiz-adv-x="447" 
d="M126 313q22 17 47.5 26t54.5 9q36 0 68 -14.5t56 -39.5t37.5 -58t13.5 -69t-13.5 -69t-37.5 -57.5t-56 -39t-68 -14.5q-27 0 -52 8.5t-46 23.5q0 -1 -0.5 -26.5t-1 -56t-0.5 -55.5v-26q-1 -16 -12 -26.5t-24.5 -12t-26 6.5t-15.5 29l1 472q0 19 11.5 26.5t25.5 6.5
t25.5 -8.5t11.5 -19.5zM330 168q0 21 -8 40t-22 33.5t-32 23t-39 8.5t-39 -8.5t-32 -23t-22 -33.5t-8 -40t8 -40t22 -33t32 -22.5t39 -8.5t39 8.5t32 22.5t22 33t8 40z" />
    <glyph glyph-name="q" unicode="q" horiz-adv-x="462" 
d="M405 321q0 -37 -1 -83t-2 -93.5t0 -92.5t5 -80t11 -57t20 -23q17 -2 22 12.5t5 33.5t11 28.5t24 9t24.5 -11t12.5 -29.5q3 -54 -20.5 -86.5t-79.5 -33.5q-36 0 -56 24t-30 57.5t-13 68t-4 55.5q-26 -21 -54.5 -27t-54.5 -6q-36 0 -68 14.5t-56 39t-37.5 57.5t-13.5 69
t13.5 69t37.5 58t56 39.5t68 14.5q29 0 54.5 -9t47.5 -26l1 16q0 12 13.5 19.5t28.5 8t26.5 -8t8.5 -27.5zM123 168q0 -21 8 -40t22 -33t32 -22.5t39 -8.5t39 8.5t32 22.5t22 33t8 40t-8 40t-22 33.5t-32 23t-39 8.5t-39 -8.5t-32 -23t-22 -33.5t-8 -40z" />
    <glyph glyph-name="r" unicode="r" horiz-adv-x="404" 
d="M302 237q-15 14 -33.5 25t-39.5 11t-39 -8.5t-32 -23t-22 -33.5t-8 -40v-142q-1 -16 -12 -26.5t-24.5 -12t-26 6.5t-15.5 29l1 301q0 19 11.5 26.5t25.5 6.5t25.5 -8.5t11.5 -19.5l1 -16q22 17 47.5 26t54.5 9q42 0 77 -17.5t56 -50.5q6 -10 3 -23t-12 -22t-22 -10.5
t-28 12.5z" />
    <glyph glyph-name="s" unicode="s" horiz-adv-x="407" 
d="M353 278q7 -14 0 -25.5t-20 -17t-26 -3t-17 16.5q-12 20 -32.5 29.5t-35.5 11.5q-26 4 -49 -8t-27 -28q-3 -16 2.5 -25.5t16.5 -15.5t27 -10t34 -7q26 -5 51 -12.5t44 -21t30 -34.5t8 -54q-2 -27 -17.5 -46.5t-38 -31t-50 -15.5t-54.5 -1q-24 3 -47 11.5t-42.5 22.5
t-34 34t-21.5 46q-2 18 7.5 30t22.5 16.5t25 0.5t15 -18q8 -42 34 -57t54 -17q27 -2 48.5 6.5t23.5 22.5q4 26 -15.5 37t-49.5 17q-23 5 -49 10.5t-48 17t-36 32.5t-14 56q0 28 12.5 49t33 35.5t47 20.5t54.5 4q38 -3 74.5 -22t59.5 -57z" />
    <glyph glyph-name="t" unicode="t" horiz-adv-x="385" 
d="M152 375l-2 158q3 18 17 24.5t28.5 5t25.5 -10.5t8 -21v-156h88q18 -3 25.5 -16t5.5 -26.5t-13 -23.5t-30 -8h-75l1 -277q0 -19 -12 -26.5t-26 -6.5t-26 8.5t-12 19.5l-2 282h-83q-19 0 -26.5 11.5t-6.5 25.5t8.5 25.5t19.5 11.5h87z" />
    <glyph glyph-name="u" unicode="u" horiz-adv-x="423" 
d="M131 327q-7 -92 -2.5 -143.5t15 -77t24.5 -31.5t26 -6q21 0 39 8.5t32 23t22 33.5t8 40v142q1 16 12 26.5t24.5 12t26 -6.5t15.5 -29l-1 -301q0 -19 -11.5 -26.5t-25.5 -6.5t-25.5 8.5t-11.5 19.5l-1 16q-22 -17 -47.5 -26t-54.5 -9q-52 0 -82.5 23t-45 65.5t-16.5 103.5
t2 136q1 19 13.5 26.5t27 6.5t26.5 -8.5t11 -19.5z" />
    <glyph glyph-name="v" unicode="v" horiz-adv-x="395" 
d="M241 15q-8 -17 -20.5 -22.5t-24.5 -3t-22.5 10t-14.5 18.5l-121 289q-4 11 4 22t21 16.5t26.5 2.5t19.5 -20l91 -210l80 212q6 17 19.5 20t26.5 -2.5t21 -16.5t4 -22z" />
    <glyph glyph-name="w" unicode="w" horiz-adv-x="616" 
d="M464 13q-8 -17 -20.5 -22.5t-24.5 -3t-22.5 10t-14.5 18.5l-73 189l-65 -190q-8 -17 -20.5 -22.5t-24.5 -3t-22.5 10t-14.5 18.5l-111 289q-4 11 4 22t21 16.5t26.5 2.5t19.5 -20l81 -202l69 194q5 13 15.5 20.5t22.5 8.5t23 -5.5t17 -21.5l73 -198l71 204q6 17 19.5 20
t26.5 -2.5t21 -16.5t4 -22z" />
    <glyph glyph-name="x" unicode="x" horiz-adv-x="394" 
d="M244 168l92 -127q10 -16 4.5 -28.5t-17.5 -19t-26 -6.5t-20 10l-80 107l-80 -107q-6 -10 -20 -10t-26 6.5t-17.5 19t4.5 28.5l92 127l-95 128q-7 17 2 29t23 16.5t28.5 1.5t19.5 -15l69 -95l69 95q4 12 18.5 15t29 -1.5t23.5 -16.5t2 -29z" />
    <glyph glyph-name="y" unicode="y" horiz-adv-x="458" 
d="M216 -1l-171 304q-4 18 5 29.5t22.5 16t27 1t18.5 -15.5l135 -232l84 234q10 16 24.5 18t27.5 -4.5t20 -18.5t2 -24l-175 -470q-6 -17 -19.5 -20t-26 3t-20.5 17t-4 22z" />
    <glyph glyph-name="z" unicode="z" horiz-adv-x="411" 
d="M84 -13q-17 0 -27 6t-13.5 16.5t0 23.5t14.5 26l194 218l-184 -2q-18 3 -25 16t-6 27t9.5 25t22.5 11h267q9 0 18.5 -8t14.5 -21t3.5 -29t-16.5 -31l-192 -202l177 -1q19 0 26.5 -11.5t6.5 -25.5t-8.5 -25.5t-19.5 -11.5z" />
    <glyph glyph-name="braceleft" unicode="{" horiz-adv-x="380" 
d="M229 334q-1 -5 -4.5 -10.5t-12 -12.5t-24 -17t-39.5 -23q23 -9 38 -14.5t24 -9t13 -7.5t5 -10q-3 -72 -1 -122t9.5 -80.5t21.5 -43.5t35 -13q21 -2 29 -15.5t6.5 -28.5t-11.5 -27t-25 -10q-51 6 -80 35t-42.5 70.5t-14.5 91.5t3 99l-80 41q-17 7 -23 20t-4.5 26t9 24
t18.5 16l81 51q0 53 2 104.5t15.5 94t42.5 73.5t83 42q14 3 23.5 -7t11.5 -24t-5 -28t-25 -20q-40 -12 -56 -41t-20 -66t-2 -79t-1 -79z" />
    <glyph glyph-name="bar" unicode="|" horiz-adv-x="186" 
d="M52 578q3 18 16 25t27 6t25 -10t11 -22l2 -549q0 -19 -11.5 -26.5t-25.5 -6.5t-25.5 8.5t-11.5 19.5z" />
    <glyph glyph-name="braceright" unicode="}" horiz-adv-x="393" 
d="M148 334q-3 37 -1 79t-2 79t-20 66t-56 41q-18 6 -25 20t-5 28t11.5 24t23.5 7q54 -11 83 -42t42.5 -73.5t15.5 -94t2 -104.5l81 -51q10 -5 18 -16t9.5 -24t-4.5 -26t-23 -20l-80 -41q4 -49 3 -99t-14.5 -91.5t-42.5 -70.5t-80 -35q-15 -2 -25 10t-11.5 27t6.5 28.5
t29 15.5q21 0 35 13t21.5 43.5t9.5 80.5t-1 122q1 6 5 10t13 7.5t24 9t38 14.5q-24 13 -39.5 23t-24 17t-12 12.5t-4.5 10.5z" />
    <glyph glyph-name="asciitilde" unicode="~" horiz-adv-x="410" 
d="M304 353q4 13 15.5 18t23.5 2.5t20.5 -12.5t7.5 -27q-4 -42 -29.5 -68.5t-57.5 -28.5q-26 -2 -43.5 10t-32.5 26t-30 25t-34 8q-15 -2 -21 -15t-13 -35q-6 -17 -18.5 -20t-24 3t-18 19.5t-0.5 29.5q14 35 35 60t56 24q29 0 47.5 -11t32 -23.5t26.5 -23t31 -10.5
q16 0 21 14t6 35z" />
    <glyph glyph-name="exclamdown" unicode="&#xa1;" horiz-adv-x="183" 
d="M9.00781 464.008q3 17.999 16.999 24.998q13.999 7 27.999 5.5q13.999 -1.5 24.998 -9.99902q10.999 -8.5 8 -20.499l-3 -467.972q0 -18.999 -11.5 -26.498q-11.499 -7.5 -25.498 -6.5t-25.498 8.5q-11.5 7.49902 -11.5 19.498zM7.00781 567.001q0 18.999 12.5 31.998
q12.499 13 31.498 13t31.998 -13q12.999 -12.999 12.999 -31.998q0 -18.998 -12.999 -31.498q-12.999 -12.499 -31.998 -12.499t-31.498 12.499q-12.5 12.5 -12.5 31.498z" />
    <glyph glyph-name="cent" unicode="&#xa2;" horiz-adv-x="424" 
d="M190 64q-30 6 -56 22.5t-45 40t-29.5 53t-10.5 61.5q0 31 10 60t28 52.5t43 40t54 23.5v18q3 18 16 25t27 6t25 -10t11 -22v-18q44 -9 72 -34t39 -54q5 -12 -3 -22.5t-20 -16.5t-25 -5t-18 11q-8 17 -19.5 27t-25.5 15l1 -195q25 11 51 52q8 13 22 13.5t25.5 -6.5
t17.5 -20.5t-3 -29.5q-18 -32 -47.5 -55t-64.5 -31v-15q0 -19 -11.5 -26.5t-25.5 -6.5t-25.5 8.5t-11.5 19.5zM122 240q0 -33 19 -60.5t48 -38.5l-3 195q-28 -11 -46 -37.5t-18 -58.5z" />
    <glyph glyph-name="sterling" unicode="&#xa3;" horiz-adv-x="445" 
d="M200 317q-2 -64 -1.5 -127t1.5 -115l187 4q18 -3 23 -16.5t1.5 -28t-14 -25t-22.5 -7.5l-194 -4q-25 0 -42.5 11t-18.5 40h1q-1 25 -1 46v49v68.5v103.5h-52q-19 0 -26.5 11.5t-6.5 25.5t8.5 25.5t19.5 11.5h59q4 52 14.5 98.5t28 81t44 55t63.5 20.5q30 0 52.5 -10
t38 -24.5t24.5 -31t13 -29.5q9 -18 2.5 -33.5t-19 -23t-27 -5t-21.5 20.5q-8 26 -22 40t-40 15q-16 0 -28.5 -13t-21 -36.5t-14 -55.5t-8.5 -69h114q18 -3 24.5 -16t4 -26t-12.5 -23t-24 -7z" />
    <glyph glyph-name="yen" unicode="&#xa5;" horiz-adv-x="460" 
d="M196 260l-1 2l-157 307q-4 11 3.5 21.5t19.5 16t25.5 2.5t22.5 -19l130 -245l112 246q7 17 21 20t26.5 -2.5t20 -16.5t3.5 -22l-144 -309l82 1q18 -3 25.5 -16.5t6.5 -27t-10 -24t-23 -7.5l-82 -1v-54l83 1q18 -3 25.5 -16.5t6.5 -27t-10 -24t-23 -7.5l-82 -1v-47
q0 -19 -11.5 -26.5t-25.5 -6.5t-25.5 8.5t-11.5 19.5l-1 51h-84q-19 0 -26.5 11.5t-6.5 25.5t8.5 25.5t19.5 11.5l87 1l-1 54h-81q-19 0 -26.5 11.5t-6.5 25.5t8.5 25.5t19.5 11.5z" />
    <glyph glyph-name="dieresis" unicode="&#xa8;" horiz-adv-x="298" 
d="M40 405q0 19 12.5 32t31.5 13t32 -13t13 -32t-13 -31.5t-32 -12.5t-31.5 12.5t-12.5 31.5zM166 405q0 19 12.5 32t31.5 13t32 -13t13 -32t-13 -31.5t-32 -12.5t-31.5 12.5t-12.5 31.5z" />
    <glyph glyph-name="copyright" unicode="&#xa9;" horiz-adv-x="650" 
d="M411 269q8 13 22 13.5t25.5 -6.5t17.5 -20.5t-3 -29.5q-23 -42 -63.5 -66.5t-89.5 -24.5q-36 0 -68 14.5t-56 39.5t-37.5 58t-13.5 69t13.5 69t37.5 58t56 39.5t68 13.5q60 -2 98 -29.5t52 -63.5q5 -12 -3 -22.5t-20 -16.5t-25 -5t-18 11q-14 29 -36.5 39t-48.5 10
q-21 0 -39 -8.5t-32 -22.5t-22 -33t-8 -40t8 -40t22 -33.5t32 -23t39 -8.5q30 0 50 12t42 47zM603 286q-3 -71 -29 -123t-66.5 -86t-91.5 -50.5t-103.5 -15t-102 21t-88 56t-61.5 91t-22 125.5q1 79 27 137t67 96.5t92.5 56.5t105 16.5t104 -23t89 -62t60.5 -101t19 -139.5z
M539 288q5 64 -13.5 112.5t-50 81t-72 49t-79.5 18.5q-39 1 -77.5 -14.5t-70 -46.5t-52 -76.5t-22.5 -103.5q-2 -57 15.5 -99.5t46.5 -71t66 -44t73 -17.5q39 -2 79 6.5t73.5 32.5t56 66t27.5 107z" />
    <glyph glyph-name="ordfeminine" unicode="&#xaa;" horiz-adv-x="282" 
d="M202 164q-29 -21 -61 -21q-22 0 -41 9t-33.5 24t-22.5 34.5t-8 41.5t8 41.5t22.5 34.5t33.5 23.5t41 8.5q33 0 58 -19q2 10 10.5 13.5t17.5 2.5t15.5 -6.5t4.5 -12.5v-180q0 -11 -7 -15.5t-15.5 -4t-15.5 5t-7 11.5v9zM79 251q0 -25 18 -44t43 -19t43 19t18 44
q0 26 -18 44.5t-43 18.5t-43 -18.5t-18 -44.5z" />
    <glyph glyph-name="guillemotleft" unicode="&#xab;" horiz-adv-x="585" 
d="M81 200q-16 9 -21 21.5t-2 24.5t11 22t19 14l194 109q11 4 21.5 -3.5t15 -20t1 -26t-19.5 -22.5l-141 -76l151 -77q17 -6 19.5 -19.5t-3.5 -26t-18 -20.5t-22 -3zM286 207q-16 9 -21 21.5t-2 24.5t11 22t19 14l194 109q11 4 21.5 -3.5t15 -20t1 -26t-19.5 -22.5l-141 -76
l151 -77q17 -6 19.5 -19.5t-3.5 -26t-18 -20.5t-22 -3z" />
    <glyph glyph-name="logicalnot" unicode="&#xac;" horiz-adv-x="460" 
d="M344 336q27 1 43 -12.5t16 -51.5l-1 -119q0 -19 -12 -26t-26 -6t-25 8.5t-11 19.5v111l-249 -1q-19 0 -26.5 11.5t-6.5 25.5t8.5 25.5t19.5 11.5z" />
    <glyph glyph-name="registered" unicode="&#xae;" horiz-adv-x="646" 
d="M603 286q-3 -71 -29 -123t-66.5 -86t-91.5 -50.5t-103.5 -15t-102 21t-88 56t-61.5 91t-22 125.5q1 79 27 137t67 96.5t92.5 56.5t105 16.5t104 -23t89 -62t60.5 -101t19 -139.5zM539 288q5 64 -13.5 112.5t-50 81t-72 49t-79.5 18.5q-39 1 -77.5 -14.5t-70 -46.5
t-52 -76.5t-22.5 -103.5q-2 -57 15.5 -99.5t46.5 -71t66 -44t73 -17.5q39 -2 79 6.5t73.5 32.5t56 66t27.5 107zM272 138q-3 -7 -13 -10t-20.5 -2.5t-19 3.5t-8.5 9l1 308q0 23 18.5 36.5t38.5 13.5q14 0 41 -0.5t54.5 -9.5t48 -29t21.5 -59q1 -29 -15.5 -52t-37.5 -34
l66 -160q2 -8 -6 -14t-19.5 -8t-21 -1t-10.5 6l-61 168q-19 -5 -36 -4t-25 3zM380 403q0 10 -8.5 19t-23.5 15t-35.5 7.5t-43.5 -2.5l-1 -88q14 -2 33 -1.5t36.5 5.5t30 15.5t12.5 29.5z" />
    <glyph glyph-name="macron" unicode="&#xaf;" horiz-adv-x="366" 
d="M304 444q18 -3 25.5 -16.5t6.5 -27t-10 -24t-23 -7.5l-241 -2q-19 0 -26.5 11.5t-6.5 25.5t8.5 25.5t19.5 11.5z" />
    <glyph glyph-name="degree" unicode="&#xb0;" horiz-adv-x="205" 
d="M83 425q0 -19 19 -19q8 0 14 5.5t6 13.5t-6 14t-14 6t-13.5 -6t-5.5 -14zM38 425q0 27 18.5 46t45.5 19t46 -19t19 -46t-19 -45.5t-46 -18.5t-45.5 18.5t-18.5 45.5z" />
    <glyph glyph-name="plusminus" unicode="&#xb1;" horiz-adv-x="403" 
d="M321 182q18 -3 25.5 -16.5t6.5 -27t-10 -24t-23 -7.5l-241 -2q-19 0 -26.5 11.5t-6.5 25.5t8.5 25.5t19.5 11.5zM163 316h-81q-19 0 -26.5 11.5t-6.5 25.5t8.5 25.5t19.5 11.5l87 1l1 83q3 18 16.5 25.5t27 6t23.5 -10.5t7 -23l-1 -80l86 1q18 -3 25.5 -16.5t6.5 -27
t-10 -24t-23 -7.5l-86 -1v-86q0 -19 -12 -26t-26 -6t-25 8.5t-11 19.5v89z" />
    <glyph glyph-name="uni00B2" unicode="&#xb2;" horiz-adv-x="281" 
d="M58 146q-11 0 -16 6t-6.5 13.5t1.5 15t9 9.5q30 28 57.5 58.5t48.5 60.5t33.5 58.5t12.5 54.5q-1 23 -13.5 36.5t-31.5 16.5q-12 2 -24 0t-23 -8.5t-19.5 -17.5t-12.5 -26q-2 -8 -9.5 -9.5t-15.5 1.5t-13 10t-1 16q9 23 23.5 39.5t32.5 26.5t38 13t39 -1q32 -6 55.5 -32
t20.5 -68q-2 -32 -13.5 -62.5t-28.5 -59.5t-39 -55.5t-45 -50.5h115q11 -2 14.5 -10t2 -16t-7 -13.5t-14.5 -3.5z" />
    <glyph glyph-name="uni00B3" unicode="&#xb3;" horiz-adv-x="293" 
d="M139 321q-5 0 -9.5 6t-6 13.5t1.5 14t12 8.5q9 0 21 3.5t23.5 11t18.5 20.5t5 32q-1 9 -6.5 18t-14.5 16t-21.5 10.5t-27.5 2.5q-5 0 -13.5 -2t-18.5 -7t-18.5 -15t-12.5 -28q-2 -8 -9.5 -10t-15.5 1t-13 9.5t-1 15.5q7 23 19.5 38t27 24t29 13t25.5 5q19 1 39 -4t36 -16
t27 -28.5t13 -40.5q3 -31 -7 -51.5t-28 -34.5q23 -14 36 -41.5t8 -66.5q-3 -31 -15.5 -52t-30 -33.5t-38.5 -17.5t-40 -4q-11 1 -25.5 4.5t-29 12.5t-27 24.5t-19.5 38.5q-4 9 1 15.5t13 9.5t15.5 1t9.5 -10q4 -17 12.5 -27.5t18.5 -15.5t18.5 -7t13.5 -2q30 -2 53 16.5
t26 49.5q2 19 -3.5 34t-16 25t-25 15.5t-30.5 5.5z" />
    <glyph glyph-name="acute" unicode="&#xb4;" horiz-adv-x="231" 
d="M118 498q15 11 29.5 8.5t23.5 -12t10.5 -23t-9.5 -25.5l-63 -70q-13 -14 -26.5 -11t-23 13t-12.5 23.5t5 21.5z" />
    <glyph glyph-name="cedilla" unicode="&#xb8;" horiz-adv-x="273" 
d="M117 20l2 -25q58 -2 86 -24.5t28 -57.5q0 -52 -33.5 -73.5t-87.5 -20.5q-20 0 -30.5 11t-12 24t7 24.5t28.5 12.5q9 0 19.5 0.5t18.5 2.5t13 6.5t4 13.5q-2 11 -11 14t-39 2q-4 0 -14.5 1t-20 9.5t-16 26.5t-1.5 53h59z" />
    <glyph glyph-name="uni00B9" unicode="&#xb9;" horiz-adv-x="126" 
d="M39 497q2 11 10 15t16.5 3.5t15 -6t6.5 -13.5l1 -329q0 -11 -7 -15.5t-15.5 -4t-15.5 5t-7 11.5z" />
    <glyph glyph-name="guillemotright" unicode="&#xbb;" horiz-adv-x="609" 
d="M109 98q-11 -5 -22.5 3t-17.5 20.5t-3.5 26t19.5 19.5l151 77l-141 76q-16 9 -19.5 22.5t1 26t15 20t21.5 3.5l194 -109q10 -4 18.5 -14t11.5 -22t-2 -24.5t-21 -21.5zM335 97q-11 -5 -22.5 3t-17.5 20.5t-3.5 26t19.5 19.5l151 77l-141 76q-16 9 -19.5 22.5t1 26t15 20
t21.5 3.5l194 -109q10 -4 18.5 -14t11.5 -22t-2 -24.5t-21 -21.5z" />
    <glyph glyph-name="onequarter" unicode="&#xbc;" horiz-adv-x="557" 
d="M62 588q2 11 10 15t16.5 3.5t15 -6t6.5 -13.5l1 -329q0 -11 -7 -15.5t-15.5 -4t-15.5 5t-7 11.5zM389 608q8 7 17 6t15 -6.5t8.5 -14t-2.5 -14.5l-343 -567q-7 -9 -15 -8.5t-14.5 5.5t-9.5 13t1 14zM471 160h-112q-21 0 -34.5 6.5t-13.5 26.5l-2 150q2 11 10.5 14.5
t17.5 2t15 -7.5t5 -13l-1 -132h115l-1 136q2 11 10.5 15t17 2.5t14.5 -7t5 -12.5l1 -328q0 -11 -7 -15.5t-15.5 -4t-15.5 5t-7 11.5z" />
    <glyph glyph-name="onehalf" unicode="&#xbd;" horiz-adv-x="557" 
d="M62 588q2 11 10 15t16.5 3.5t15 -6t6.5 -13.5l1 -329q0 -11 -7 -15.5t-15.5 -4t-15.5 5t-7 11.5zM389 608q8 7 17 6t15 -6.5t8.5 -14t-2.5 -14.5l-343 -567q-7 -9 -15 -8.5t-14.5 5.5t-9.5 13t1 14zM324 8q-11 0 -16 6t-6.5 13.5t1.5 15t9 9.5q30 28 57.5 58.5t48.5 60.5
t33.5 58.5t12.5 54.5q-1 23 -13.5 36.5t-31.5 16.5q-12 2 -24 0t-23 -8.5t-19.5 -17.5t-12.5 -26q-2 -8 -9.5 -9.5t-15.5 1.5t-13 10t-1 16q9 23 23.5 39.5t32.5 26.5t38 13t39 -1q32 -6 55.5 -32t20.5 -68q-2 -32 -13.5 -62.5t-28.5 -59.5t-39 -55.5t-45 -50.5h115
q11 -2 14.5 -10t2 -16t-7 -13.5t-14.5 -3.5z" />
    <glyph glyph-name="threequarters" unicode="&#xbe;" horiz-adv-x="671" 
d="M482 608q8 7 17 6t15 -6.5t8.5 -14t-2.5 -14.5l-343 -567q-7 -9 -15 -8.5t-14.5 5.5t-9.5 13t1 14zM146 413q-5 0 -9.5 6t-6 13.5t1.5 14t12 8.5q9 0 21 3.5t23.5 11t18.5 20.5t5 32q-1 9 -6.5 18t-14.5 16t-21.5 10.5t-27.5 2.5q-5 0 -13.5 -2t-18.5 -7t-18.5 -15
t-12.5 -28q-2 -8 -9.5 -10t-15.5 1t-13 9.5t-1 15.5q7 23 19.5 38t27 24t29 13t25.5 5q19 1 39 -4t36 -16t27 -28.5t13 -40.5q3 -31 -7 -51.5t-28 -34.5q23 -14 36 -41.5t8 -66.5q-3 -31 -15.5 -52t-30 -33.5t-38.5 -17.5t-40 -4q-11 1 -25.5 4.5t-29 12.5t-27 24.5
t-19.5 38.5q-4 9 1 15.5t13 9.5t15.5 1t9.5 -10q4 -17 12.5 -27.5t18.5 -15.5t18.5 -7t13.5 -2q30 -2 53 16.5t26 49.5q2 19 -3.5 34t-16 25t-25 15.5t-30.5 5.5zM571 164h-112q-21 0 -34.5 6.5t-13.5 26.5l-2 150q2 11 10.5 14.5t17.5 2t15 -7.5t5 -13l-1 -132h115l-1 136
q2 11 10.5 15t17 2.5t14.5 -7t5 -12.5l1 -328q0 -11 -7 -15.5t-15.5 -4t-15.5 5t-7 11.5z" />
    <glyph glyph-name="questiondown" unicode="&#xbf;" horiz-adv-x="460" 
d="M261.01 351.016q0 -17.999 -5.49902 -27.999q-5.5 -9.99902 -13.999 -14.999q-8.5 -5 -17.999 -5.99902q-9.5 -1 -18.499 -1q-23.999 0 -43.4971 -8.5q-19.499 -8.49902 -33.998 -22.498q-14.499 -14 -23.999 -32.498q-9.49902 -18.499 -12.499 -39.498
q-4 -24.998 0 -51.4971q4 -26.498 16.499 -48.4971q12.499 -21.998 32.498 -37.4971t47.9971 -18.499q47.9971 -5 82.4951 21.498q34.498 26.499 38.4971 81.4951q1 16.999 13.999 22.999q13 6 27.499 3.5t25.998 -12q11.499 -9.49902 10.499 -23.498
q-3.99902 -46.9971 -22.498 -80.4951t-46.9971 -53.9971q-28.498 -20.498 -65.4961 -28.498q-36.998 -7.99902 -78.9951 -5q-45.9971 5 -78.9951 27.499q-32.998 22.498 -53.4971 54.9961t-28.498 72.4961q-8 39.9971 -2 78.9951q5 31.998 17.999 61.9961t34.998 53.9971
q21.998 23.998 52.4961 39.4971q30.499 15.499 70.4961 18.499l1 55.9961q0 18.999 11.499 26.499q11.5 7.49902 25.499 6.49902t25.498 -8.49902q11.499 -7.5 11.499 -19.499v-85.9941zM185.015 568.002q0 18.999 12.499 31.998q12.5 12.999 31.498 12.999
q18.999 0 31.998 -12.999q13 -12.999 13 -31.998t-13 -31.498q-12.999 -12.499 -31.998 -12.499q-18.998 0 -31.498 12.499q-12.499 12.499 -12.499 31.498z" />
    <glyph glyph-name="Agrave" unicode="&#xc0;" horiz-adv-x="554" 
d="M247 585q8 16 20.5 22t24.5 3.5t22.5 -10.5t14.5 -18l192 -555q4 -11 -4 -22t-21 -16.5t-26.5 -2.5t-19.5 20l-73 207h-178l-72 -204q-6 -17 -19.5 -20t-26.5 2.5t-21 16.5t-4 22zM226 289h124l-62 175zM341 693q8 -8 5 -21.5t-12.5 -23.5t-23 -13t-26.5 11l-63 70
q-12 9 -10.5 22t11 23.5t24 14t29.5 -7.5z" />
    <glyph glyph-name="Aacute" unicode="&#xc1;" horiz-adv-x="554" 
d="M247 585q8 16 20.5 22t24.5 3.5t22.5 -10.5t14.5 -18l192 -555q4 -11 -4 -22t-21 -16.5t-26.5 -2.5t-19.5 20l-73 207h-178l-72 -204q-6 -17 -19.5 -20t-26.5 2.5t-21 16.5t-4 22zM226 289h124l-62 175zM285 765q15 11 29.5 8.5t23.5 -12t10.5 -23t-9.5 -25.5l-63 -70
q-13 -14 -26.5 -11t-23 13t-12.5 23.5t5 21.5z" />
    <glyph glyph-name="Acircumflex" unicode="&#xc2;" horiz-adv-x="554" 
d="M247 585q8 16 20.5 22t24.5 3.5t22.5 -10.5t14.5 -18l192 -555q4 -11 -4 -22t-21 -16.5t-26.5 -2.5t-19.5 20l-73 207h-178l-72 -204q-6 -17 -19.5 -20t-26.5 2.5t-21 16.5t-4 22zM226 289h124l-62 175zM236 746q9 12 20.5 17t23 4.5t21.5 -6.5t17 -15l47 -69
q4 -10 -1 -21t-14 -17.5t-21 -6t-22 12.5l-31 43l-29 -42q-8 -12 -19.5 -12.5t-21.5 5t-16 15.5t-2 20z" />
    <glyph glyph-name="Atilde" unicode="&#xc3;" horiz-adv-x="554" 
d="M247 585q8 16 20.5 22t24.5 3.5t22.5 -10.5t14.5 -18l192 -555q4 -11 -4 -22t-21 -16.5t-26.5 -2.5t-19.5 20l-73 207h-178l-72 -204q-6 -17 -19.5 -20t-26.5 2.5t-21 16.5t-4 22zM226 289h124l-62 175zM377 769q4 13 15.5 18t23.5 2.5t20.5 -12.5t7.5 -27
q-4 -42 -29.5 -68.5t-57.5 -28.5q-26 -2 -43.5 10t-32.5 26t-30 25t-34 8q-15 -2 -21 -15t-13 -35q-6 -17 -18.5 -20t-24 3t-18 19.5t-0.5 29.5q14 35 35 60t56 24q29 0 47.5 -11t32 -23.5t26.5 -23t31 -10.5q16 0 21 14t6 35z" />
    <glyph glyph-name="Adieresis" unicode="&#xc4;" horiz-adv-x="554" 
d="M247 585q8 16 20.5 22t24.5 3.5t22.5 -10.5t14.5 -18l192 -555q4 -11 -4 -22t-21 -16.5t-26.5 -2.5t-19.5 20l-73 207h-178l-72 -204q-6 -17 -19.5 -20t-26.5 2.5t-21 16.5t-4 22zM226 289h124l-62 175zM169 675q0 19 12.5 32t31.5 13t32 -13t13 -32t-13 -31.5t-32 -12.5
t-31.5 12.5t-12.5 31.5zM295 675q0 19 12.5 32t31.5 13t32 -13t13 -32t-13 -31.5t-32 -12.5t-31.5 12.5t-12.5 31.5z" />
    <glyph glyph-name="Aring" unicode="&#xc5;" horiz-adv-x="554" 
d="M247 585q8 16 20.5 22t24.5 3.5t22.5 -10.5t14.5 -18l192 -555q4 -11 -4 -22t-21 -16.5t-26.5 -2.5t-19.5 20l-73 207h-178l-72 -204q-6 -17 -19.5 -20t-26.5 2.5t-21 16.5t-4 22zM226 289h124l-62 175zM257 695q0 -19 19 -19q8 0 14 5.5t6 13.5t-6 14t-14 6t-13.5 -6
t-5.5 -14zM212 695q0 27 18.5 46t45.5 19t46 -19t19 -46t-19 -45.5t-46 -18.5t-45.5 18.5t-18.5 45.5z" />
    <glyph glyph-name="AE" unicode="&#xc6;" horiz-adv-x="787" 
d="M436 -16q-9 0 -20 2t-20 6.5t-15 10.5t-6 15l-3 198l-140 2l-116 -203q-10 -17 -25 -17t-27 8t-18.5 21t0.5 24l315 542q9 11 17.5 16t17.5 7t18 1.5t20 -0.5l269 -2q19 0 26.5 -11.5t6.5 -25.5t-8.5 -25.5t-19.5 -11.5l-261 -3v-188l173 -1q19 0 26.5 -11.5t6.5 -25.5
t-8.5 -25.5t-19.5 -11.5l-177 -3l1 -209l256 -2q19 0 26.5 -11.5t6.5 -25.5t-8.5 -25.5t-19.5 -11.5zM271 293h100l-2 166z" />
    <glyph glyph-name="Ccedilla" unicode="&#xc7;" horiz-adv-x="526" 
d="M401 181q7 18 21.5 20.5t27 -5t19 -23t-2.5 -33.5q-29 -67 -78.5 -108t-109.5 -41q-45 0 -85 24t-70 65.5t-47 97.5t-17 121q0 64 17 121.5t47 101t70 68.5t85 25q63 0 112 -34t77 -110q8 -12 0.5 -24.5t-21.5 -19t-29.5 -4t-24.5 20.5q-20 51 -49 70t-67 19
q-30 0 -56 -20t-45.5 -53.5t-30.5 -77t-11 -89.5t11.5 -86.5t31.5 -70.5t46.5 -47t56.5 -17q39 0 71.5 30.5t50.5 78.5zM298 8l2 -25q58 -2 86 -24.5t28 -57.5q0 -52 -33.5 -73.5t-87.5 -20.5q-20 0 -30.5 11t-12 24t7 24.5t28.5 12.5q9 0 19.5 0.5t18.5 2.5t13 6.5t4 13.5
q-2 11 -11 14t-39 2q-4 0 -14.5 1t-20 9.5t-16 26.5t-1.5 53h59z" />
    <glyph glyph-name="Egrave" unicode="&#xc8;" horiz-adv-x="488" 
d="M136 -16q-9 0 -20 2t-20 6.5t-15 10.5t-6 15l-7 546q0 26 14 39.5t52 13.5l269 -2q19 0 26.5 -11.5t6.5 -25.5t-8.5 -25.5t-19.5 -11.5l-261 -3v-188l173 -1q19 0 26.5 -11.5t6.5 -25.5t-8.5 -25.5t-19.5 -11.5l-177 -3l1 -209l256 -2q19 0 26.5 -11.5t6.5 -25.5
t-8.5 -25.5t-19.5 -11.5zM308 693q8 -8 5 -21.5t-12.5 -23.5t-23 -13t-26.5 11l-63 70q-12 9 -10.5 22t11 23.5t24 14t29.5 -7.5z" />
    <glyph glyph-name="Eacute" unicode="&#xc9;" horiz-adv-x="488" 
d="M136 -16q-9 0 -20 2t-20 6.5t-15 10.5t-6 15l-7 546q0 26 14 39.5t52 13.5l269 -2q19 0 26.5 -11.5t6.5 -25.5t-8.5 -25.5t-19.5 -11.5l-261 -3v-188l173 -1q19 0 26.5 -11.5t6.5 -25.5t-8.5 -25.5t-19.5 -11.5l-177 -3l1 -209l256 -2q19 0 26.5 -11.5t6.5 -25.5
t-8.5 -25.5t-19.5 -11.5zM245 768q15 11 29.5 8.5t23.5 -12t10.5 -23t-9.5 -25.5l-63 -70q-13 -14 -26.5 -11t-23 13t-12.5 23.5t5 21.5z" />
    <glyph glyph-name="Ecircumflex" unicode="&#xca;" horiz-adv-x="488" 
d="M136 -16q-9 0 -20 2t-20 6.5t-15 10.5t-6 15l-7 546q0 26 14 39.5t52 13.5l269 -2q19 0 26.5 -11.5t6.5 -25.5t-8.5 -25.5t-19.5 -11.5l-261 -3v-188l173 -1q19 0 26.5 -11.5t6.5 -25.5t-8.5 -25.5t-19.5 -11.5l-177 -3l1 -209l256 -2q19 0 26.5 -11.5t6.5 -25.5
t-8.5 -25.5t-19.5 -11.5zM203 746q9 12 20.5 17t23 4.5t21.5 -6.5t17 -15l47 -69q4 -10 -1 -21t-14 -17.5t-21 -6t-22 12.5l-31 43l-29 -42q-8 -12 -19.5 -12.5t-21.5 5t-16 15.5t-2 20z" />
    <glyph glyph-name="Edieresis" unicode="&#xcb;" horiz-adv-x="488" 
d="M136 -16q-9 0 -20 2t-20 6.5t-15 10.5t-6 15l-7 546q0 26 14 39.5t52 13.5l269 -2q19 0 26.5 -11.5t6.5 -25.5t-8.5 -25.5t-19.5 -11.5l-261 -3v-188l173 -1q19 0 26.5 -11.5t6.5 -25.5t-8.5 -25.5t-19.5 -11.5l-177 -3l1 -209l256 -2q19 0 26.5 -11.5t6.5 -25.5
t-8.5 -25.5t-19.5 -11.5zM136 675q0 19 12.5 32t31.5 13t32 -13t13 -32t-13 -31.5t-32 -12.5t-31.5 12.5t-12.5 31.5zM262 675q0 19 12.5 32t31.5 13t32 -13t13 -32t-13 -31.5t-32 -12.5t-31.5 12.5t-12.5 31.5z" />
    <glyph glyph-name="Igrave" unicode="&#xcc;" horiz-adv-x="406" 
d="M160 74l-3 461l-88 -1q-19 0 -26.5 11.5t-6.5 25.5t8.5 25.5t19.5 11.5h274q18 -3 24.5 -16t4 -26t-12.5 -23t-24 -7l-94 -1l1 -461l93 -1q14 3 24 -7t12.5 -23t-4 -26t-24.5 -16h-274q-12 0 -19.5 11.5t-8.5 25.5t6.5 25.5t26.5 11.5l88 -1h3zM267 693q8 -8 5 -21.5
t-12.5 -23.5t-23 -13t-26.5 11l-63 70q-12 9 -10.5 22t11 23.5t24 14t29.5 -7.5z" />
    <glyph glyph-name="Iacute" unicode="&#xcd;" horiz-adv-x="406" 
d="M160 74l-3 461l-88 -1q-19 0 -26.5 11.5t-6.5 25.5t8.5 25.5t19.5 11.5h274q18 -3 24.5 -16t4 -26t-12.5 -23t-24 -7l-94 -1l1 -461l93 -1q14 3 24 -7t12.5 -23t-4 -26t-24.5 -16h-274q-12 0 -19.5 11.5t-8.5 25.5t6.5 25.5t26.5 11.5l88 -1h3zM204 768q15 11 29.5 8.5
t23.5 -12t10.5 -23t-9.5 -25.5l-63 -70q-13 -14 -26.5 -11t-23 13t-12.5 23.5t5 21.5z" />
    <glyph glyph-name="Icircumflex" unicode="&#xce;" horiz-adv-x="406" 
d="M160 74l-3 461l-88 -1q-19 0 -26.5 11.5t-6.5 25.5t8.5 25.5t19.5 11.5h274q18 -3 24.5 -16t4 -26t-12.5 -23t-24 -7l-94 -1l1 -461l93 -1q14 3 24 -7t12.5 -23t-4 -26t-24.5 -16h-274q-12 0 -19.5 11.5t-8.5 25.5t6.5 25.5t26.5 11.5l88 -1h3zM162 746q9 12 20.5 17
t23 4.5t21.5 -6.5t17 -15l47 -69q4 -10 -1 -21t-14 -17.5t-21 -6t-22 12.5l-31 43l-29 -42q-8 -12 -19.5 -12.5t-21.5 5t-16 15.5t-2 20z" />
    <glyph glyph-name="Idieresis" unicode="&#xcf;" horiz-adv-x="406" 
d="M160 74l-3 461l-88 -1q-19 0 -26.5 11.5t-6.5 25.5t8.5 25.5t19.5 11.5h274q18 -3 24.5 -16t4 -26t-12.5 -23t-24 -7l-94 -1l1 -461l93 -1q14 3 24 -7t12.5 -23t-4 -26t-24.5 -16h-274q-12 0 -19.5 11.5t-8.5 25.5t6.5 25.5t26.5 11.5l88 -1h3zM95 675q0 19 12.5 32
t31.5 13t32 -13t13 -32t-13 -31.5t-32 -12.5t-31.5 12.5t-12.5 31.5zM221 675q0 19 12.5 32t31.5 13t32 -13t13 -32t-13 -31.5t-32 -12.5t-31.5 12.5t-12.5 31.5z" />
    <glyph glyph-name="Eth" unicode="&#xd0;" horiz-adv-x="506" 
d="M71 552q0 4 3.5 14t11.5 20.5t21 19t33 10.5q88 7 149 -19.5t98 -75.5t52.5 -114t13.5 -133q-2 -60 -19.5 -114t-54.5 -93.5t-96.5 -61t-145.5 -18.5q-14 0 -27.5 0.5t-23.5 6.5t-15.5 20.5t-5.5 43.5zM140 63q64 -6 108.5 8t72 43t40.5 70.5t15 91.5q2 54 -7.5 105
t-36 89t-73 58t-118.5 11zM288 359q18 -3 25.5 -16.5t6.5 -27t-10 -24t-23 -7.5l-241 -2q-19 0 -26.5 11.5t-6.5 25.5t8.5 25.5t19.5 11.5z" />
    <glyph glyph-name="Ntilde" unicode="&#xd1;" horiz-adv-x="514" 
d="M131 444l2 -426q0 -19 -11.5 -26.5t-25.5 -6.5t-25.5 8.5t-11.5 19.5l-7 565q2 15 12.5 22.5t23.5 9t25.5 -4t18.5 -15.5l256 -437l-5 425q3 18 16 25t27 6t25 -10t11 -22l2 -561q0 -12 -9.5 -18.5t-22 -8t-24.5 2.5t-17 13zM357 769q4 13 15.5 18t23.5 2.5t20.5 -12.5
t7.5 -27q-4 -42 -29.5 -68.5t-57.5 -28.5q-26 -2 -43.5 10t-32.5 26t-30 25t-34 8q-15 -2 -21 -15t-13 -35q-6 -17 -18.5 -20t-24 3t-18 19.5t-0.5 29.5q14 35 35 60t56 24q29 0 47.5 -11t32 -23.5t26.5 -23t31 -10.5q16 0 21 14t6 35z" />
    <glyph glyph-name="Ograve" unicode="&#xd2;" horiz-adv-x="556" 
d="M59 299q0 64 17 121.5t47 101t70 68.5t85 25t85 -25t70 -68.5t47 -101t17 -121.5q0 -65 -17 -120.5t-47 -97t-70 -65t-85 -23.5t-85 23.5t-70 65t-47 97t-17 120.5zM133 293q0 -46 11.5 -86.5t31.5 -71t46.5 -48t56.5 -17.5t56 17.5t45.5 48t30.5 71t11 86.5t-11.5 89.5
t-31.5 77t-46.5 54t-56.5 20.5t-56 -20.5t-45.5 -54t-30.5 -77t-11 -89.5zM342 693q8 -8 5 -21.5t-12.5 -23.5t-23 -13t-26.5 11l-63 70q-12 9 -10.5 22t11 23.5t24 14t29.5 -7.5z" />
    <glyph glyph-name="Oacute" unicode="&#xd3;" horiz-adv-x="556" 
d="M59 299q0 64 17 121.5t47 101t70 68.5t85 25t85 -25t70 -68.5t47 -101t17 -121.5q0 -65 -17 -120.5t-47 -97t-70 -65t-85 -23.5t-85 23.5t-70 65t-47 97t-17 120.5zM133 293q0 -46 11.5 -86.5t31.5 -71t46.5 -48t56.5 -17.5t56 17.5t45.5 48t30.5 71t11 86.5t-11.5 89.5
t-31.5 77t-46.5 54t-56.5 20.5t-56 -20.5t-45.5 -54t-30.5 -77t-11 -89.5zM279 768q15 11 29.5 8.5t23.5 -12t10.5 -23t-9.5 -25.5l-63 -70q-13 -14 -26.5 -11t-23 13t-12.5 23.5t5 21.5z" />
    <glyph glyph-name="Ocircumflex" unicode="&#xd4;" horiz-adv-x="556" 
d="M59 299q0 64 17 121.5t47 101t70 68.5t85 25t85 -25t70 -68.5t47 -101t17 -121.5q0 -65 -17 -120.5t-47 -97t-70 -65t-85 -23.5t-85 23.5t-70 65t-47 97t-17 120.5zM133 293q0 -46 11.5 -86.5t31.5 -71t46.5 -48t56.5 -17.5t56 17.5t45.5 48t30.5 71t11 86.5t-11.5 89.5
t-31.5 77t-46.5 54t-56.5 20.5t-56 -20.5t-45.5 -54t-30.5 -77t-11 -89.5zM237 746q9 12 20.5 17t23 4.5t21.5 -6.5t17 -15l47 -69q4 -10 -1 -21t-14 -17.5t-21 -6t-22 12.5l-31 43l-29 -42q-8 -12 -19.5 -12.5t-21.5 5t-16 15.5t-2 20z" />
    <glyph glyph-name="Otilde" unicode="&#xd5;" horiz-adv-x="556" 
d="M59 299q0 64 17 121.5t47 101t70 68.5t85 25t85 -25t70 -68.5t47 -101t17 -121.5q0 -65 -17 -120.5t-47 -97t-70 -65t-85 -23.5t-85 23.5t-70 65t-47 97t-17 120.5zM133 293q0 -46 11.5 -86.5t31.5 -71t46.5 -48t56.5 -17.5t56 17.5t45.5 48t30.5 71t11 86.5t-11.5 89.5
t-31.5 77t-46.5 54t-56.5 20.5t-56 -20.5t-45.5 -54t-30.5 -77t-11 -89.5zM378 769q4 13 15.5 18t23.5 2.5t20.5 -12.5t7.5 -27q-4 -42 -29.5 -68.5t-57.5 -28.5q-26 -2 -43.5 10t-32.5 26t-30 25t-34 8q-15 -2 -21 -15t-13 -35q-6 -17 -18.5 -20t-24 3t-18 19.5t-0.5 29.5
q14 35 35 60t56 24q29 0 47.5 -11t32 -23.5t26.5 -23t31 -10.5q16 0 21 14t6 35z" />
    <glyph glyph-name="Odieresis" unicode="&#xd6;" horiz-adv-x="556" 
d="M59 299q0 64 17 121.5t47 101t70 68.5t85 25t85 -25t70 -68.5t47 -101t17 -121.5q0 -65 -17 -120.5t-47 -97t-70 -65t-85 -23.5t-85 23.5t-70 65t-47 97t-17 120.5zM133 293q0 -46 11.5 -86.5t31.5 -71t46.5 -48t56.5 -17.5t56 17.5t45.5 48t30.5 71t11 86.5t-11.5 89.5
t-31.5 77t-46.5 54t-56.5 20.5t-56 -20.5t-45.5 -54t-30.5 -77t-11 -89.5zM170 675q0 19 12.5 32t31.5 13t32 -13t13 -32t-13 -31.5t-32 -12.5t-31.5 12.5t-12.5 31.5zM296 675q0 19 12.5 32t31.5 13t32 -13t13 -32t-13 -31.5t-32 -12.5t-31.5 12.5t-12.5 31.5z" />
    <glyph glyph-name="multiply" unicode="&#xd7;" horiz-adv-x="395" 
d="M197 178l-58 -57q-13 -14 -26.5 -11t-23 13.5t-12 24t5.5 21.5l61 63l-58 59q-10 15 -6 29.5t15 23t24 9.5t21 -11l56 -57l60 61q15 10 29.5 6t23.5 -14.5t10 -24t-11 -21.5l-60 -61l61 -61q13 -14 10 -27.5t-13.5 -22.5t-24.5 -11.5t-22 6.5z" />
    <glyph glyph-name="Oslash" unicode="&#xd8;" horiz-adv-x="556" 
d="M59 299q0 64 17 121.5t47 101t70 68.5t85 25t85 -25t70 -68.5t47 -101t17 -121.5q0 -65 -17 -120.5t-47 -97t-70 -65t-85 -23.5t-85 23.5t-70 65t-47 97t-17 120.5zM133 293q0 -46 11.5 -86.5t31.5 -71t46.5 -48t56.5 -17.5t56 17.5t45.5 48t30.5 71t11 86.5t-11.5 89.5
t-31.5 77t-46.5 54t-56.5 20.5t-56 -20.5t-45.5 -54t-30.5 -77t-11 -89.5zM366 595q10 15 25 16t27 -5.5t19 -19t1 -24.5l-254 -553q-8 -17 -21.5 -19.5t-25.5 4t-19.5 18t-2.5 22.5z" />
    <glyph glyph-name="Ugrave" unicode="&#xd9;" horiz-adv-x="496" 
d="M132 588q-7 -122 -5 -207.5t7 -143.5q5 -64 19 -98.5t30.5 -51t32 -20t22.5 -3.5q14 0 32.5 6.5t37 23t33.5 43.5t23 68l6 372q1 16 12 26.5t24.5 12t26 -6.5t15.5 -29l-7 -564q0 -19 -11.5 -26.5t-25.5 -6.5t-25.5 8.5t-11.5 19.5l-1 46q-17 -24 -47 -45.5t-68 -22.5
q-65 -1 -103.5 25.5t-59 69.5t-27.5 96.5t-9 107.5q-2 58 -2.5 131t4.5 164q1 19 13.5 26.5t27 6.5t26.5 -8.5t11 -19.5zM312 693q8 -8 5 -21.5t-12.5 -23.5t-23 -13t-26.5 11l-63 70q-12 9 -10.5 22t11 23.5t24 14t29.5 -7.5z" />
    <glyph glyph-name="Uacute" unicode="&#xda;" horiz-adv-x="496" 
d="M132 588q-7 -122 -5 -207.5t7 -143.5q5 -64 19 -98.5t30.5 -51t32 -20t22.5 -3.5q14 0 32.5 6.5t37 23t33.5 43.5t23 68l6 372q1 16 12 26.5t24.5 12t26 -6.5t15.5 -29l-7 -564q0 -19 -11.5 -26.5t-25.5 -6.5t-25.5 8.5t-11.5 19.5l-1 46q-17 -24 -47 -45.5t-68 -22.5
q-65 -1 -103.5 25.5t-59 69.5t-27.5 96.5t-9 107.5q-2 58 -2.5 131t4.5 164q1 19 13.5 26.5t27 6.5t26.5 -8.5t11 -19.5zM249 768q15 11 29.5 8.5t23.5 -12t10.5 -23t-9.5 -25.5l-63 -70q-13 -14 -26.5 -11t-23 13t-12.5 23.5t5 21.5z" />
    <glyph glyph-name="Ucircumflex" unicode="&#xdb;" horiz-adv-x="496" 
d="M132 588q-7 -122 -5 -207.5t7 -143.5q5 -64 19 -98.5t30.5 -51t32 -20t22.5 -3.5q14 0 32.5 6.5t37 23t33.5 43.5t23 68l6 372q1 16 12 26.5t24.5 12t26 -6.5t15.5 -29l-7 -564q0 -19 -11.5 -26.5t-25.5 -6.5t-25.5 8.5t-11.5 19.5l-1 46q-17 -24 -47 -45.5t-68 -22.5
q-65 -1 -103.5 25.5t-59 69.5t-27.5 96.5t-9 107.5q-2 58 -2.5 131t4.5 164q1 19 13.5 26.5t27 6.5t26.5 -8.5t11 -19.5zM207 746q9 12 20.5 17t23 4.5t21.5 -6.5t17 -15l47 -69q4 -10 -1 -21t-14 -17.5t-21 -6t-22 12.5l-31 43l-29 -42q-8 -12 -19.5 -12.5t-21.5 5
t-16 15.5t-2 20z" />
    <glyph glyph-name="Udieresis" unicode="&#xdc;" horiz-adv-x="496" 
d="M132 588q-7 -122 -5 -207.5t7 -143.5q5 -64 19 -98.5t30.5 -51t32 -20t22.5 -3.5q14 0 32.5 6.5t37 23t33.5 43.5t23 68l6 372q1 16 12 26.5t24.5 12t26 -6.5t15.5 -29l-7 -564q0 -19 -11.5 -26.5t-25.5 -6.5t-25.5 8.5t-11.5 19.5l-1 46q-17 -24 -47 -45.5t-68 -22.5
q-65 -1 -103.5 25.5t-59 69.5t-27.5 96.5t-9 107.5q-2 58 -2.5 131t4.5 164q1 19 13.5 26.5t27 6.5t26.5 -8.5t11 -19.5zM140 675q0 19 12.5 32t31.5 13t32 -13t13 -32t-13 -31.5t-32 -12.5t-31.5 12.5t-12.5 31.5zM266 675q0 19 12.5 32t31.5 13t32 -13t13 -32t-13 -31.5
t-32 -12.5t-31.5 12.5t-12.5 31.5z" />
    <glyph glyph-name="Yacute" unicode="&#xdd;" horiz-adv-x="460" 
d="M198 255q-2 4 -3 7l-157 307q-4 11 3.5 21.5t19.5 16t25.5 2.5t22.5 -19l130 -245l112 246q7 17 21 20t26.5 -2.5t20 -16.5t3.5 -22l-144 -309l-1 -251q0 -19 -11.5 -26.5t-25.5 -6.5t-25.5 8.5t-11.5 19.5zM231 768q15 11 29.5 8.5t23.5 -12t10.5 -23t-9.5 -25.5
l-63 -70q-13 -14 -26.5 -11t-23 13t-12.5 23.5t5 21.5z" />
    <glyph glyph-name="Thorn" unicode="&#xde;" horiz-adv-x="443" 
d="M123 28q0 -12 -11.5 -19.5t-25.5 -8.5t-25.5 6.5t-11.5 26.5l-1 532q3 21 15.5 29t26 6.5t24.5 -12t12 -26.5v-21t0.5 -44t1 -44t0.5 -21q21 15 46 23.5t52 8.5q36 0 68 -14.5t56 -39t37.5 -57.5t13.5 -69t-13.5 -69t-37.5 -58t-56 -39.5t-68 -14.5q-29 0 -54.5 9
t-47.5 26zM328 283q0 21 -8 40t-22 33t-32 22.5t-39 8.5t-39 -8.5t-32 -22.5t-22 -33t-8 -40t8 -40t22 -33.5t32 -23t39 -8.5t39 8.5t32 23t22 33.5t8 40z" />
    <glyph glyph-name="germandbls" unicode="&#xdf;" horiz-adv-x="458" 
d="M124 -37q0 -20 -12 -30t-26 -10.5t-25.5 9.5t-11.5 32l6 552q0 36 15 65t54 35q16 3 41.5 4t56 -1.5t61 -11.5t56 -27t42 -47.5t17.5 -72.5q0 -24 -7 -45t-20 -38t-29.5 -30.5t-34.5 -23.5q24 -11 45.5 -28.5t37 -39t24 -47t7.5 -52.5q-3 -44 -23.5 -76.5t-53.5 -53.5
t-75 -31t-88 -10q-14 0 -23.5 11t-11.5 24t4.5 24.5t25.5 11.5q30 0 60 5t54 17.5t39 34t15 54.5q-1 27 -12.5 46.5t-31 33.5t-45.5 22.5t-54 12.5q-14 -2 -21 10.5t-8 27.5t5.5 28t20.5 12q24 2 47 8.5t41 18t29 29t11 43.5q0 18 -12 34.5t-33.5 29.5t-51.5 19t-67 3
q-5 0 -11 -2t-12 -6t-10 -11t-4 -18z" />
    <glyph glyph-name="agrave" unicode="&#xe0;" 
d="M323 24q-22 -17 -47.5 -26t-54.5 -9q-36 0 -68 14.5t-56 39.5t-37.5 58t-13.5 69t13.5 69t37.5 57.5t56 39t68 14.5q27 0 52 -8.5t46 -23.5q4 17 18 23.5t28.5 4.5t25.5 -11t8 -21l-1 -301q0 -19 -11.5 -26.5t-25.5 -6.5t-25.5 8.5t-11.5 19.5zM119 169q0 -21 8 -40
t22 -33.5t32 -23t39 -8.5t39 8.5t32 23t22 33.5t8 40t-8 40t-22 33t-32 22.5t-39 8.5t-39 -8.5t-32 -22.5t-22 -33t-8 -40zM286 423q8 -8 5 -21.5t-12.5 -23.5t-23 -13t-26.5 11l-63 70q-12 9 -10.5 22t11 23.5t24 14t29.5 -7.5z" />
    <glyph glyph-name="aacute" unicode="&#xe1;" 
d="M323 24q-22 -17 -47.5 -26t-54.5 -9q-36 0 -68 14.5t-56 39.5t-37.5 58t-13.5 69t13.5 69t37.5 57.5t56 39t68 14.5q27 0 52 -8.5t46 -23.5q4 17 18 23.5t28.5 4.5t25.5 -11t8 -21l-1 -301q0 -19 -11.5 -26.5t-25.5 -6.5t-25.5 8.5t-11.5 19.5zM119 169q0 -21 8 -40
t22 -33.5t32 -23t39 -8.5t39 8.5t32 23t22 33.5t8 40t-8 40t-22 33t-32 22.5t-39 8.5t-39 -8.5t-32 -22.5t-22 -33t-8 -40zM224 498q15 11 29.5 8.5t23.5 -12t10.5 -23t-9.5 -25.5l-63 -70q-13 -14 -26.5 -11t-23 13t-12.5 23.5t5 21.5z" />
    <glyph glyph-name="acircumflex" unicode="&#xe2;" 
d="M323 24q-22 -17 -47.5 -26t-54.5 -9q-36 0 -68 14.5t-56 39.5t-37.5 58t-13.5 69t13.5 69t37.5 57.5t56 39t68 14.5q27 0 52 -8.5t46 -23.5q4 17 18 23.5t28.5 4.5t25.5 -11t8 -21l-1 -301q0 -19 -11.5 -26.5t-25.5 -6.5t-25.5 8.5t-11.5 19.5zM119 169q0 -21 8 -40
t22 -33.5t32 -23t39 -8.5t39 8.5t32 23t22 33.5t8 40t-8 40t-22 33t-32 22.5t-39 8.5t-39 -8.5t-32 -22.5t-22 -33t-8 -40zM181 476q9 12 20.5 17t23 4.5t21.5 -6.5t17 -15l47 -69q4 -10 -1 -21t-14 -17.5t-21 -6t-22 12.5l-31 43l-29 -42q-8 -12 -19.5 -12.5t-21.5 5
t-16 15.5t-2 20z" />
    <glyph glyph-name="atilde" unicode="&#xe3;" 
d="M323 24q-22 -17 -47.5 -26t-54.5 -9q-36 0 -68 14.5t-56 39.5t-37.5 58t-13.5 69t13.5 69t37.5 57.5t56 39t68 14.5q27 0 52 -8.5t46 -23.5q4 17 18 23.5t28.5 4.5t25.5 -11t8 -21l-1 -301q0 -19 -11.5 -26.5t-25.5 -6.5t-25.5 8.5t-11.5 19.5zM119 169q0 -21 8 -40
t22 -33.5t32 -23t39 -8.5t39 8.5t32 23t22 33.5t8 40t-8 40t-22 33t-32 22.5t-39 8.5t-39 -8.5t-32 -22.5t-22 -33t-8 -40zM322 499q4 13 15.5 18t23.5 2.5t20.5 -12.5t7.5 -27q-4 -42 -29.5 -68.5t-57.5 -28.5q-26 -2 -43.5 10t-32.5 26t-30 25t-34 8q-15 -2 -21 -15
t-13 -35q-6 -17 -18.5 -20t-24 3t-18 19.5t-0.5 29.5q14 35 35 60t56 24q29 0 47.5 -11t32 -23.5t26.5 -23t31 -10.5q16 0 21 14t6 35z" />
    <glyph glyph-name="adieresis" unicode="&#xe4;" 
d="M323 24q-22 -17 -47.5 -26t-54.5 -9q-36 0 -68 14.5t-56 39.5t-37.5 58t-13.5 69t13.5 69t37.5 57.5t56 39t68 14.5q27 0 52 -8.5t46 -23.5q4 17 18 23.5t28.5 4.5t25.5 -11t8 -21l-1 -301q0 -19 -11.5 -26.5t-25.5 -6.5t-25.5 8.5t-11.5 19.5zM119 169q0 -21 8 -40
t22 -33.5t32 -23t39 -8.5t39 8.5t32 23t22 33.5t8 40t-8 40t-22 33t-32 22.5t-39 8.5t-39 -8.5t-32 -22.5t-22 -33t-8 -40zM114 405q0 19 12.5 32t31.5 13t32 -13t13 -32t-13 -31.5t-32 -12.5t-31.5 12.5t-12.5 31.5zM240 405q0 19 12.5 32t31.5 13t32 -13t13 -32t-13 -31.5
t-32 -12.5t-31.5 12.5t-12.5 31.5z" />
    <glyph glyph-name="aring" unicode="&#xe5;" 
d="M323 24q-22 -17 -47.5 -26t-54.5 -9q-36 0 -68 14.5t-56 39.5t-37.5 58t-13.5 69t13.5 69t37.5 57.5t56 39t68 14.5q27 0 52 -8.5t46 -23.5q4 17 18 23.5t28.5 4.5t25.5 -11t8 -21l-1 -301q0 -19 -11.5 -26.5t-25.5 -6.5t-25.5 8.5t-11.5 19.5zM119 169q0 -21 8 -40
t22 -33.5t32 -23t39 -8.5t39 8.5t32 23t22 33.5t8 40t-8 40t-22 33t-32 22.5t-39 8.5t-39 -8.5t-32 -22.5t-22 -33t-8 -40zM202 425q0 -19 19 -19q8 0 14 5.5t6 13.5t-6 14t-14 6t-13.5 -6t-5.5 -14zM157 425q0 27 18.5 46t45.5 19t46 -19t19 -46t-19 -45.5t-46 -18.5
t-45.5 18.5t-18.5 45.5z" />
    <glyph glyph-name="ae" unicode="&#xe6;" horiz-adv-x="630" 
d="M505 102q10 11 25 11t27 -7.5t16.5 -20t-6.5 -26.5q-26 -32 -58.5 -49.5t-66.5 -22t-67 3.5t-60 27q-22 -17 -47.5 -26t-54.5 -9q-36 0 -68 14.5t-56 39.5t-37.5 58t-13.5 69t13.5 69t37.5 57.5t56 39t68 14.5q26 0 50.5 -8.5t44.5 -22.5q22 17 48.5 26.5t55.5 10.5
q31 1 59.5 -8t51 -26t37.5 -42t20 -56q5 -34 -10.5 -53.5t-68.5 -19.5l-188 1v-7q8 -30 28.5 -51t48 -28.5t58 1.5t57.5 41zM111 163q0 -21 8 -40t22 -33.5t32 -23t39 -8.5q28 0 51 15q-12 20 -19 44t-7 53q0 46 21 85q-11 5 -22.5 8.5t-23.5 3.5q-21 0 -39 -8.5t-32 -22.5
t-22 -33t-8 -40zM411 275q-29 -1 -52 -16.5t-36 -40.5l184 -2q-5 19 -15 30.5t-23 18t-28 8.5t-30 2z" />
    <glyph glyph-name="ccedilla" unicode="&#xe7;" horiz-adv-x="424" 
d="M312 123q8 13 22 13.5t25.5 -6.5t17.5 -20.5t-3 -29.5q-23 -42 -63.5 -66.5t-89.5 -24.5q-36 0 -68 14.5t-56 39.5t-37.5 58t-13.5 69t13.5 69t37.5 58t56 39.5t68 13.5q60 -2 98 -29.5t52 -63.5q5 -12 -3 -22.5t-20 -16.5t-25 -5t-18 11q-14 29 -36.5 39t-48.5 10
q-21 0 -39 -8.5t-32 -22.5t-22 -33t-8 -40t8 -40t22 -33.5t32 -23t39 -8.5q30 0 50 12t42 47zM237 6l2 -25q58 -2 86 -24.5t28 -57.5q0 -52 -33.5 -73.5t-87.5 -20.5q-20 0 -30.5 11t-12 24t7 24.5t28.5 12.5q9 0 19.5 0.5t18.5 2.5t13 6.5t4 13.5q-2 11 -11 14t-39 2
q-4 0 -14.5 1t-20 9.5t-16 26.5t-1.5 53h59z" />
    <glyph glyph-name="egrave" unicode="&#xe8;" horiz-adv-x="439" 
d="M314 102q10 11 25 11t27 -7.5t16.5 -20t-6.5 -26.5q-28 -35 -63.5 -52.5t-72 -20t-71.5 9t-62.5 35.5t-44 59.5t-16.5 79.5q0 36 13.5 68.5t37.5 57t56 39t68 15.5q31 1 59.5 -8t51 -26t37.5 -42t20 -56q5 -34 -10.5 -53.5t-68.5 -19.5l-189 1q6 -31 26.5 -54t48 -31.5
t59 0.5t59.5 41zM220 275q-29 -1 -52 -16.5t-36 -40.5l184 -2q-5 19 -15 30.5t-23 18t-28 8.5t-30 2zM284 423q8 -8 5 -21.5t-12.5 -23.5t-23 -13t-26.5 11l-63 70q-12 9 -10.5 22t11 23.5t24 14t29.5 -7.5z" />
    <glyph glyph-name="eacute" unicode="&#xe9;" horiz-adv-x="439" 
d="M314 102q10 11 25 11t27 -7.5t16.5 -20t-6.5 -26.5q-28 -35 -63.5 -52.5t-72 -20t-71.5 9t-62.5 35.5t-44 59.5t-16.5 79.5q0 36 13.5 68.5t37.5 57t56 39t68 15.5q31 1 59.5 -8t51 -26t37.5 -42t20 -56q5 -34 -10.5 -53.5t-68.5 -19.5l-189 1q6 -31 26.5 -54t48 -31.5
t59 0.5t59.5 41zM220 275q-29 -1 -52 -16.5t-36 -40.5l184 -2q-5 19 -15 30.5t-23 18t-28 8.5t-30 2zM221 498q15 11 29.5 8.5t23.5 -12t10.5 -23t-9.5 -25.5l-63 -70q-13 -14 -26.5 -11t-23 13t-12.5 23.5t5 21.5z" />
    <glyph glyph-name="ecircumflex" unicode="&#xea;" horiz-adv-x="439" 
d="M314 102q10 11 25 11t27 -7.5t16.5 -20t-6.5 -26.5q-28 -35 -63.5 -52.5t-72 -20t-71.5 9t-62.5 35.5t-44 59.5t-16.5 79.5q0 36 13.5 68.5t37.5 57t56 39t68 15.5q31 1 59.5 -8t51 -26t37.5 -42t20 -56q5 -34 -10.5 -53.5t-68.5 -19.5l-189 1q6 -31 26.5 -54t48 -31.5
t59 0.5t59.5 41zM220 275q-29 -1 -52 -16.5t-36 -40.5l184 -2q-5 19 -15 30.5t-23 18t-28 8.5t-30 2zM179 476q9 12 20.5 17t23 4.5t21.5 -6.5t17 -15l47 -69q4 -10 -1 -21t-14 -17.5t-21 -6t-22 12.5l-31 43l-29 -42q-8 -12 -19.5 -12.5t-21.5 5t-16 15.5t-2 20z" />
    <glyph glyph-name="edieresis" unicode="&#xeb;" horiz-adv-x="439" 
d="M314 102q10 11 25 11t27 -7.5t16.5 -20t-6.5 -26.5q-28 -35 -63.5 -52.5t-72 -20t-71.5 9t-62.5 35.5t-44 59.5t-16.5 79.5q0 36 13.5 68.5t37.5 57t56 39t68 15.5q31 1 59.5 -8t51 -26t37.5 -42t20 -56q5 -34 -10.5 -53.5t-68.5 -19.5l-189 1q6 -31 26.5 -54t48 -31.5
t59 0.5t59.5 41zM220 275q-29 -1 -52 -16.5t-36 -40.5l184 -2q-5 19 -15 30.5t-23 18t-28 8.5t-30 2zM112 405q0 19 12.5 32t31.5 13t32 -13t13 -32t-13 -31.5t-32 -12.5t-31.5 12.5t-12.5 31.5zM238 405q0 19 12.5 32t31.5 13t32 -13t13 -32t-13 -31.5t-32 -12.5
t-31.5 12.5t-12.5 31.5z" />
    <glyph glyph-name="igrave" unicode="&#xec;" horiz-adv-x="194" 
d="M59 316q3 18 17 24.5t29 4.5t26 -11t8 -21l-1 -285q0 -19 -11.5 -26.5t-25.5 -6.5t-25.5 8.5t-11.5 19.5zM163 423q8 -8 5 -21.5t-12.5 -23.5t-23 -13t-26.5 11l-63 70q-12 9 -10.5 22t11 23.5t24 14t29.5 -7.5z" />
    <glyph glyph-name="iacute" unicode="&#xed;" horiz-adv-x="194" 
d="M59 316q3 18 17 24.5t29 4.5t26 -11t8 -21l-1 -285q0 -19 -11.5 -26.5t-25.5 -6.5t-25.5 8.5t-11.5 19.5zM100 498q15 11 29.5 8.5t23.5 -12t10.5 -23t-9.5 -25.5l-63 -70q-13 -14 -26.5 -11t-23 13t-12.5 23.5t5 21.5z" />
    <glyph glyph-name="icircumflex" unicode="&#xee;" horiz-adv-x="194" 
d="M59 316q3 18 17 24.5t29 4.5t26 -11t8 -21l-1 -285q0 -19 -11.5 -26.5t-25.5 -6.5t-25.5 8.5t-11.5 19.5zM58 476q9 12 20.5 17t23 4.5t21.5 -6.5t17 -15l47 -69q4 -10 -1 -21t-14 -17.5t-21 -6t-22 12.5l-31 43l-29 -42q-8 -12 -19.5 -12.5t-21.5 5t-16 15.5t-2 20z" />
    <glyph glyph-name="idieresis" unicode="&#xef;" horiz-adv-x="194" 
d="M59 316q3 18 17 24.5t29 4.5t26 -11t8 -21l-1 -285q0 -19 -11.5 -26.5t-25.5 -6.5t-25.5 8.5t-11.5 19.5zM-9 405q0 19 12.5 32t31.5 13t32 -13t13 -32t-13 -31.5t-32 -12.5t-31.5 12.5t-12.5 31.5zM117 405q0 19 12.5 32t31.5 13t32 -13t13 -32t-13 -31.5t-32 -12.5
t-31.5 12.5t-12.5 31.5z" />
    <glyph glyph-name="ntilde" unicode="&#xf1;" horiz-adv-x="417" 
d="M299 15q2 86 -4 137t-16.5 78t-24 35t-25.5 8q-21 0 -39 -8.5t-32 -23t-22 -33.5t-8 -40v-142q-1 -16 -12 -26.5t-24.5 -12t-26 6.5t-15.5 29l1 301q0 19 11.5 26.5t25.5 6.5t25.5 -8.5t11.5 -19.5l1 -16q22 17 47.5 26t54.5 9q52 0 81 -24.5t43.5 -68t17.5 -104
t3 -131.5q0 -19 -11.5 -26.5t-25.5 -6.5t-25.5 8.5t-11.5 19.5zM308 499q4 13 15.5 18t23.5 2.5t20.5 -12.5t7.5 -27q-4 -42 -29.5 -68.5t-57.5 -28.5q-26 -2 -43.5 10t-32.5 26t-30 25t-34 8q-15 -2 -21 -15t-13 -35q-6 -17 -18.5 -20t-24 3t-18 19.5t-0.5 29.5
q14 35 35 60t56 24q29 0 47.5 -11t32 -23.5t26.5 -23t31 -10.5q16 0 21 14t6 35z" />
    <glyph glyph-name="ograve" unicode="&#xf2;" 
d="M46 170q0 36 13.5 69t37.5 57.5t56 39t68 14.5t68 -14.5t56 -39t37.5 -57.5t13.5 -69t-13.5 -69t-37.5 -58t-56 -39.5t-68 -14.5t-68 14.5t-56 39.5t-37.5 58t-13.5 69zM119 169q0 -21 8 -40t22 -33.5t32 -23t39 -8.5t39 8.5t32 23t22 33.5t8 40t-8 40t-22 33t-32 22.5
t-39 8.5t-39 -8.5t-32 -22.5t-22 -33t-8 -40zM286 423q8 -8 5 -21.5t-12.5 -23.5t-23 -13t-26.5 11l-63 70q-12 9 -10.5 22t11 23.5t24 14t29.5 -7.5z" />
    <glyph glyph-name="oacute" unicode="&#xf3;" 
d="M46 170q0 36 13.5 69t37.5 57.5t56 39t68 14.5t68 -14.5t56 -39t37.5 -57.5t13.5 -69t-13.5 -69t-37.5 -58t-56 -39.5t-68 -14.5t-68 14.5t-56 39.5t-37.5 58t-13.5 69zM119 169q0 -21 8 -40t22 -33.5t32 -23t39 -8.5t39 8.5t32 23t22 33.5t8 40t-8 40t-22 33t-32 22.5
t-39 8.5t-39 -8.5t-32 -22.5t-22 -33t-8 -40zM224 498q15 11 29.5 8.5t23.5 -12t10.5 -23t-9.5 -25.5l-63 -70q-13 -14 -26.5 -11t-23 13t-12.5 23.5t5 21.5z" />
    <glyph glyph-name="ocircumflex" unicode="&#xf4;" 
d="M46 170q0 36 13.5 69t37.5 57.5t56 39t68 14.5t68 -14.5t56 -39t37.5 -57.5t13.5 -69t-13.5 -69t-37.5 -58t-56 -39.5t-68 -14.5t-68 14.5t-56 39.5t-37.5 58t-13.5 69zM119 169q0 -21 8 -40t22 -33.5t32 -23t39 -8.5t39 8.5t32 23t22 33.5t8 40t-8 40t-22 33t-32 22.5
t-39 8.5t-39 -8.5t-32 -22.5t-22 -33t-8 -40zM181 476q9 12 20.5 17t23 4.5t21.5 -6.5t17 -15l47 -69q4 -10 -1 -21t-14 -17.5t-21 -6t-22 12.5l-31 43l-29 -42q-8 -12 -19.5 -12.5t-21.5 5t-16 15.5t-2 20z" />
    <glyph glyph-name="otilde" unicode="&#xf5;" 
d="M46 170q0 36 13.5 69t37.5 57.5t56 39t68 14.5t68 -14.5t56 -39t37.5 -57.5t13.5 -69t-13.5 -69t-37.5 -58t-56 -39.5t-68 -14.5t-68 14.5t-56 39.5t-37.5 58t-13.5 69zM119 169q0 -21 8 -40t22 -33.5t32 -23t39 -8.5t39 8.5t32 23t22 33.5t8 40t-8 40t-22 33t-32 22.5
t-39 8.5t-39 -8.5t-32 -22.5t-22 -33t-8 -40zM322 499q4 13 15.5 18t23.5 2.5t20.5 -12.5t7.5 -27q-4 -42 -29.5 -68.5t-57.5 -28.5q-26 -2 -43.5 10t-32.5 26t-30 25t-34 8q-15 -2 -21 -15t-13 -35q-6 -17 -18.5 -20t-24 3t-18 19.5t-0.5 29.5q14 35 35 60t56 24
q29 0 47.5 -11t32 -23.5t26.5 -23t31 -10.5q16 0 21 14t6 35z" />
    <glyph glyph-name="odieresis" unicode="&#xf6;" 
d="M46 170q0 36 13.5 69t37.5 57.5t56 39t68 14.5t68 -14.5t56 -39t37.5 -57.5t13.5 -69t-13.5 -69t-37.5 -58t-56 -39.5t-68 -14.5t-68 14.5t-56 39.5t-37.5 58t-13.5 69zM119 169q0 -21 8 -40t22 -33.5t32 -23t39 -8.5t39 8.5t32 23t22 33.5t8 40t-8 40t-22 33t-32 22.5
t-39 8.5t-39 -8.5t-32 -22.5t-22 -33t-8 -40zM114 405q0 19 12.5 32t31.5 13t32 -13t13 -32t-13 -31.5t-32 -12.5t-31.5 12.5t-12.5 31.5zM240 405q0 19 12.5 32t31.5 13t32 -13t13 -32t-13 -31.5t-32 -12.5t-31.5 12.5t-12.5 31.5z" />
    <glyph glyph-name="divide" unicode="&#xf7;" horiz-adv-x="387" 
d="M141 139q0 19 12.5 32t31.5 13t32 -13t13 -32t-13 -31.5t-32 -12.5t-31.5 12.5t-12.5 31.5zM141 328q0 19 12.5 32t31.5 13t32 -13t13 -32t-13 -31.5t-32 -12.5t-31.5 12.5t-12.5 31.5zM314 273q18 -3 25.5 -16.5t6.5 -27t-10 -24t-23 -7.5l-241 -2q-19 0 -26.5 11.5
t-6.5 25.5t8.5 25.5t19.5 11.5z" />
    <glyph glyph-name="oslash" unicode="&#xf8;" 
d="M306 343q10 15 25 16t27 -5.5t19 -19t1 -24.5l-248 -321q-8 -17 -21.5 -19.5t-25.5 4t-19.5 18t-2.5 22.5zM46 170q0 36 13.5 69t37.5 57.5t56 39t68 14.5t68 -14.5t56 -39t37.5 -57.5t13.5 -69t-13.5 -69t-37.5 -58t-56 -39.5t-68 -14.5t-68 14.5t-56 39.5t-37.5 58
t-13.5 69zM119 169q0 -21 8 -40t22 -33.5t32 -23t39 -8.5t39 8.5t32 23t22 33.5t8 40t-8 40t-22 33t-32 22.5t-39 8.5t-39 -8.5t-32 -22.5t-22 -33t-8 -40z" />
    <glyph glyph-name="ugrave" unicode="&#xf9;" horiz-adv-x="423" 
d="M131 327q-7 -92 -2.5 -143.5t15 -77t24.5 -31.5t26 -6q21 0 39 8.5t32 23t22 33.5t8 40v142q1 16 12 26.5t24.5 12t26 -6.5t15.5 -29l-1 -301q0 -19 -11.5 -26.5t-25.5 -6.5t-25.5 8.5t-11.5 19.5l-1 16q-22 -17 -47.5 -26t-54.5 -9q-52 0 -82.5 23t-45 65.5t-16.5 103.5
t2 136q1 19 13.5 26.5t27 6.5t26.5 -8.5t11 -19.5zM276 423q8 -8 5 -21.5t-12.5 -23.5t-23 -13t-26.5 11l-63 70q-12 9 -10.5 22t11 23.5t24 14t29.5 -7.5z" />
    <glyph glyph-name="uacute" unicode="&#xfa;" horiz-adv-x="423" 
d="M131 327q-7 -92 -2.5 -143.5t15 -77t24.5 -31.5t26 -6q21 0 39 8.5t32 23t22 33.5t8 40v142q1 16 12 26.5t24.5 12t26 -6.5t15.5 -29l-1 -301q0 -19 -11.5 -26.5t-25.5 -6.5t-25.5 8.5t-11.5 19.5l-1 16q-22 -17 -47.5 -26t-54.5 -9q-52 0 -82.5 23t-45 65.5t-16.5 103.5
t2 136q1 19 13.5 26.5t27 6.5t26.5 -8.5t11 -19.5zM213 498q15 11 29.5 8.5t23.5 -12t10.5 -23t-9.5 -25.5l-63 -70q-13 -14 -26.5 -11t-23 13t-12.5 23.5t5 21.5z" />
    <glyph glyph-name="ucircumflex" unicode="&#xfb;" horiz-adv-x="423" 
d="M131 327q-7 -92 -2.5 -143.5t15 -77t24.5 -31.5t26 -6q21 0 39 8.5t32 23t22 33.5t8 40v142q1 16 12 26.5t24.5 12t26 -6.5t15.5 -29l-1 -301q0 -19 -11.5 -26.5t-25.5 -6.5t-25.5 8.5t-11.5 19.5l-1 16q-22 -17 -47.5 -26t-54.5 -9q-52 0 -82.5 23t-45 65.5t-16.5 103.5
t2 136q1 19 13.5 26.5t27 6.5t26.5 -8.5t11 -19.5zM171 476q9 12 20.5 17t23 4.5t21.5 -6.5t17 -15l47 -69q4 -10 -1 -21t-14 -17.5t-21 -6t-22 12.5l-31 43l-29 -42q-8 -12 -19.5 -12.5t-21.5 5t-16 15.5t-2 20z" />
    <glyph glyph-name="udieresis" unicode="&#xfc;" horiz-adv-x="423" 
d="M131 327q-7 -92 -2.5 -143.5t15 -77t24.5 -31.5t26 -6q21 0 39 8.5t32 23t22 33.5t8 40v142q1 16 12 26.5t24.5 12t26 -6.5t15.5 -29l-1 -301q0 -19 -11.5 -26.5t-25.5 -6.5t-25.5 8.5t-11.5 19.5l-1 16q-22 -17 -47.5 -26t-54.5 -9q-52 0 -82.5 23t-45 65.5t-16.5 103.5
t2 136q1 19 13.5 26.5t27 6.5t26.5 -8.5t11 -19.5zM104 405q0 19 12.5 32t31.5 13t32 -13t13 -32t-13 -31.5t-32 -12.5t-31.5 12.5t-12.5 31.5zM230 405q0 19 12.5 32t31.5 13t32 -13t13 -32t-13 -31.5t-32 -12.5t-31.5 12.5t-12.5 31.5z" />
    <glyph glyph-name="yacute" unicode="&#xfd;" horiz-adv-x="458" 
d="M216 -1l-171 304q-4 18 5 29.5t22.5 16t27 1t18.5 -15.5l135 -232l84 234q10 16 24.5 18t27.5 -4.5t20 -18.5t2 -24l-175 -470q-6 -17 -19.5 -20t-26 3t-20.5 17t-4 22zM231 498q15 11 29.5 8.5t23.5 -12t10.5 -23t-9.5 -25.5l-63 -70q-13 -14 -26.5 -11t-23 13
t-12.5 23.5t5 21.5z" />
    <glyph glyph-name="thorn" unicode="&#xfe;" horiz-adv-x="448" 
d="M123 -148q0 -12 -11.5 -19.5t-25.5 -8.5t-25.5 6.5t-11.5 26.5l-1 668q3 21 15.5 29t26 6.5t24.5 -12t12 -26.5v-14v-35t0.5 -45t0.5 -44.5t0.5 -34.5t0.5 -15q21 15 46 23.5t52 8.5q36 0 68 -14.5t56 -39t37.5 -57.5t13.5 -69t-13.5 -69t-37.5 -58t-56 -39.5t-68 -14.5
q-29 0 -54.5 9t-47.5 26zM328 185q0 21 -8 40t-22 33t-32 22.5t-39 8.5t-39 -8.5t-32 -22.5t-22 -33t-8 -40t8 -40t22 -33.5t32 -23t39 -8.5t39 8.5t32 23t22 33.5t8 40z" />
    <glyph glyph-name="ydieresis" unicode="&#xff;" horiz-adv-x="458" 
d="M216 -1l-171 304q-4 18 5 29.5t22.5 16t27 1t18.5 -15.5l135 -232l84 234q10 16 24.5 18t27.5 -4.5t20 -18.5t2 -24l-175 -470q-6 -17 -19.5 -20t-26 3t-20.5 17t-4 22zM121 405q0 19 12.5 32t31.5 13t32 -13t13 -32t-13 -31.5t-32 -12.5t-31.5 12.5t-12.5 31.5zM247 405
q0 19 12.5 32t31.5 13t32 -13t13 -32t-13 -31.5t-32 -12.5t-31.5 12.5t-12.5 31.5z" />
    <glyph glyph-name="Amacron" unicode="&#x100;" horiz-adv-x="554" 
d="M247 585q8 16 20.5 22t24.5 3.5t22.5 -10.5t14.5 -18l192 -555q4 -11 -4 -22t-21 -16.5t-26.5 -2.5t-19.5 20l-73 207h-178l-72 -204q-6 -17 -19.5 -20t-26.5 2.5t-21 16.5t-4 22zM226 289h124l-62 175zM399 714q18 -3 25.5 -16.5t6.5 -27t-10 -24t-23 -7.5l-241 -2
q-19 0 -26.5 11.5t-6.5 25.5t8.5 25.5t19.5 11.5z" />
    <glyph glyph-name="amacron" unicode="&#x101;" 
d="M323 24q-22 -17 -47.5 -26t-54.5 -9q-36 0 -68 14.5t-56 39.5t-37.5 58t-13.5 69t13.5 69t37.5 57.5t56 39t68 14.5q27 0 52 -8.5t46 -23.5q4 17 18 23.5t28.5 4.5t25.5 -11t8 -21l-1 -301q0 -19 -11.5 -26.5t-25.5 -6.5t-25.5 8.5t-11.5 19.5zM119 169q0 -21 8 -40
t22 -33.5t32 -23t39 -8.5t39 8.5t32 23t22 33.5t8 40t-8 40t-22 33t-32 22.5t-39 8.5t-39 -8.5t-32 -22.5t-22 -33t-8 -40zM344 444q18 -3 25.5 -16.5t6.5 -27t-10 -24t-23 -7.5l-241 -2q-19 0 -26.5 11.5t-6.5 25.5t8.5 25.5t19.5 11.5z" />
    <glyph glyph-name="Abreve" unicode="&#x102;" horiz-adv-x="554" 
d="M247 585q8 16 20.5 22t24.5 3.5t22.5 -10.5t14.5 -18l192 -555q4 -11 -4 -22t-21 -16.5t-26.5 -2.5t-19.5 20l-73 207h-178l-72 -204q-6 -17 -19.5 -20t-26.5 2.5t-21 16.5t-4 22zM226 289h124l-62 175zM345 742q6 12 18 13t22 -5t15 -17.5t-2 -25.5q-17 -32 -47.5 -47.5
t-63.5 -15t-63.5 15.5t-48.5 45q-9 15 -4 26t15 16.5t21.5 4.5t14.5 -10q12 -24 30.5 -34t36.5 -8.5t33.5 12.5t22.5 30z" />
    <glyph glyph-name="abreve" unicode="&#x103;" 
d="M323 24q-22 -17 -47.5 -26t-54.5 -9q-36 0 -68 14.5t-56 39.5t-37.5 58t-13.5 69t13.5 69t37.5 57.5t56 39t68 14.5q27 0 52 -8.5t46 -23.5q4 17 18 23.5t28.5 4.5t25.5 -11t8 -21l-1 -301q0 -19 -11.5 -26.5t-25.5 -6.5t-25.5 8.5t-11.5 19.5zM119 169q0 -21 8 -40
t22 -33.5t32 -23t39 -8.5t39 8.5t32 23t22 33.5t8 40t-8 40t-22 33t-32 22.5t-39 8.5t-39 -8.5t-32 -22.5t-22 -33t-8 -40zM282 464q6 12 18 13t22 -5t15 -17.5t-2 -25.5q-17 -32 -47.5 -47.5t-63.5 -15t-63.5 15.5t-48.5 45q-9 15 -4 26t15 16.5t21.5 4.5t14.5 -10
q12 -24 30.5 -34t36.5 -8.5t33.5 12.5t22.5 30z" />
    <glyph glyph-name="Aogonek" unicode="&#x104;" horiz-adv-x="554" 
d="M247 585q8 16 20.5 22t24.5 3.5t22.5 -10.5t14.5 -18l192 -555q4 -11 -4 -22t-21 -16.5t-26.5 -2.5t-19.5 20l-73 207h-178l-72 -204q-6 -17 -19.5 -20t-26.5 2.5t-21 16.5t-4 22zM226 289h124l-62 175zM495 16q-8 -8 -13 -20.5t-5 -27.5t7 -31t24 -30q9 -11 5 -22.5
t-14.5 -18t-25 -5.5t-26.5 14q-22 24 -30.5 50.5t-7.5 51t9.5 45.5t21.5 35q12 13 25.5 11.5t23.5 -10t13 -21t-7 -21.5z" />
    <glyph glyph-name="aogonek" unicode="&#x105;" 
d="M323 24q-22 -17 -47.5 -26t-54.5 -9q-36 0 -68 14.5t-56 39.5t-37.5 58t-13.5 69t13.5 69t37.5 57.5t56 39t68 14.5q27 0 52 -8.5t46 -23.5q4 17 18 23.5t28.5 4.5t25.5 -11t8 -21l-1 -301q0 -19 -11.5 -26.5t-25.5 -6.5t-25.5 8.5t-11.5 19.5zM119 169q0 -21 8 -40
t22 -33.5t32 -23t39 -8.5t39 8.5t32 23t22 33.5t8 40t-8 40t-22 33t-32 22.5t-39 8.5t-39 -8.5t-32 -22.5t-22 -33t-8 -40zM388 -16q-8 -8 -13 -20.5t-5 -27.5t7 -31t24 -30q9 -11 5 -22.5t-14.5 -18t-25 -5.5t-26.5 14q-22 24 -30.5 50.5t-7.5 51t9.5 45.5t21.5 35
q12 13 25.5 11.5t23.5 -10t13 -21t-7 -21.5z" />
    <glyph glyph-name="Cacute" unicode="&#x106;" horiz-adv-x="526" 
d="M401 181q7 18 21.5 20.5t27 -5t19 -23t-2.5 -33.5q-29 -67 -78.5 -108t-109.5 -41q-45 0 -85 24t-70 65.5t-47 97.5t-17 121q0 64 17 121.5t47 101t70 68.5t85 25q63 0 112 -34t77 -110q8 -12 0.5 -24.5t-21.5 -19t-29.5 -4t-24.5 20.5q-20 51 -49 70t-67 19
q-30 0 -56 -20t-45.5 -53.5t-30.5 -77t-11 -89.5t11.5 -86.5t31.5 -70.5t46.5 -47t56.5 -17q39 0 71.5 30.5t50.5 78.5zM312 774q15 11 29.5 8.5t23.5 -12t10.5 -23t-9.5 -25.5l-63 -70q-13 -14 -26.5 -11t-23 13t-12.5 23.5t5 21.5z" />
    <glyph glyph-name="cacute" unicode="&#x107;" horiz-adv-x="424" 
d="M312 123q8 13 22 13.5t25.5 -6.5t17.5 -20.5t-3 -29.5q-23 -42 -63.5 -66.5t-89.5 -24.5q-36 0 -68 14.5t-56 39.5t-37.5 58t-13.5 69t13.5 69t37.5 58t56 39.5t68 13.5q60 -2 98 -29.5t52 -63.5q5 -12 -3 -22.5t-20 -16.5t-25 -5t-18 11q-14 29 -36.5 39t-48.5 10
q-21 0 -39 -8.5t-32 -22.5t-22 -33t-8 -40t8 -40t22 -33.5t32 -23t39 -8.5q30 0 50 12t42 47zM214 498q15 11 29.5 8.5t23.5 -12t10.5 -23t-9.5 -25.5l-63 -70q-13 -14 -26.5 -11t-23 13t-12.5 23.5t5 21.5z" />
    <glyph glyph-name="Ccircumflex" unicode="&#x108;" horiz-adv-x="526" 
d="M401 181q7 18 21.5 20.5t27 -5t19 -23t-2.5 -33.5q-29 -67 -78.5 -108t-109.5 -41q-45 0 -85 24t-70 65.5t-47 97.5t-17 121q0 64 17 121.5t47 101t70 68.5t85 25q63 0 112 -34t77 -110q8 -12 0.5 -24.5t-21.5 -19t-29.5 -4t-24.5 20.5q-20 51 -49 70t-67 19
q-30 0 -56 -20t-45.5 -53.5t-30.5 -77t-11 -89.5t11.5 -86.5t31.5 -70.5t46.5 -47t56.5 -17q39 0 71.5 30.5t50.5 78.5zM222 746q9 12 20.5 17t23 4.5t21.5 -6.5t17 -15l47 -69q4 -10 -1 -21t-14 -17.5t-21 -6t-22 12.5l-31 43l-29 -42q-8 -12 -19.5 -12.5t-21.5 5t-16 15.5
t-2 20z" />
    <glyph glyph-name="ccircumflex" unicode="&#x109;" horiz-adv-x="424" 
d="M312 123q8 13 22 13.5t25.5 -6.5t17.5 -20.5t-3 -29.5q-23 -42 -63.5 -66.5t-89.5 -24.5q-36 0 -68 14.5t-56 39.5t-37.5 58t-13.5 69t13.5 69t37.5 58t56 39.5t68 13.5q60 -2 98 -29.5t52 -63.5q5 -12 -3 -22.5t-20 -16.5t-25 -5t-18 11q-14 29 -36.5 39t-48.5 10
q-21 0 -39 -8.5t-32 -22.5t-22 -33t-8 -40t8 -40t22 -33.5t32 -23t39 -8.5q30 0 50 12t42 47zM171 476q9 12 20.5 17t23 4.5t21.5 -6.5t17 -15l47 -69q4 -10 -1 -21t-14 -17.5t-21 -6t-22 12.5l-31 43l-29 -42q-8 -12 -19.5 -12.5t-21.5 5t-16 15.5t-2 20z" />
    <glyph glyph-name="Cdotaccent" unicode="&#x10a;" horiz-adv-x="526" 
d="M401 181q7 18 21.5 20.5t27 -5t19 -23t-2.5 -33.5q-29 -67 -78.5 -108t-109.5 -41q-45 0 -85 24t-70 65.5t-47 97.5t-17 121q0 64 17 121.5t47 101t70 68.5t85 25q63 0 112 -34t77 -110q8 -12 0.5 -24.5t-21.5 -19t-29.5 -4t-24.5 20.5q-20 51 -49 70t-67 19
q-30 0 -56 -20t-45.5 -53.5t-30.5 -77t-11 -89.5t11.5 -86.5t31.5 -70.5t46.5 -47t56.5 -17q39 0 71.5 30.5t50.5 78.5zM218 684q0 19 12.5 32t31.5 13t32 -13t13 -32t-13 -31.5t-32 -12.5t-31.5 12.5t-12.5 31.5z" />
    <glyph glyph-name="cdotaccent" unicode="&#x10b;" horiz-adv-x="424" 
d="M312 123q8 13 22 13.5t25.5 -6.5t17.5 -20.5t-3 -29.5q-23 -42 -63.5 -66.5t-89.5 -24.5q-36 0 -68 14.5t-56 39.5t-37.5 58t-13.5 69t13.5 69t37.5 58t56 39.5t68 13.5q60 -2 98 -29.5t52 -63.5q5 -12 -3 -22.5t-20 -16.5t-25 -5t-18 11q-14 29 -36.5 39t-48.5 10
q-21 0 -39 -8.5t-32 -22.5t-22 -33t-8 -40t8 -40t22 -33.5t32 -23t39 -8.5q30 0 50 12t42 47zM167 414q0 19 12.5 32t31.5 13t32 -13t13 -32t-13 -31.5t-32 -12.5t-31.5 12.5t-12.5 31.5z" />
    <glyph glyph-name="Ccaron" unicode="&#x10c;" horiz-adv-x="526" 
d="M401 181q7 18 21.5 20.5t27 -5t19 -23t-2.5 -33.5q-29 -67 -78.5 -108t-109.5 -41q-45 0 -85 24t-70 65.5t-47 97.5t-17 121q0 64 17 121.5t47 101t70 68.5t85 25q63 0 112 -34t77 -110q8 -12 0.5 -24.5t-21.5 -19t-29.5 -4t-24.5 20.5q-20 51 -49 70t-67 19
q-30 0 -56 -20t-45.5 -53.5t-30.5 -77t-11 -89.5t11.5 -86.5t31.5 -70.5t46.5 -47t56.5 -17q39 0 71.5 30.5t50.5 78.5zM303 653q-9 -12 -20.5 -17t-23 -4.5t-21.5 6.5t-17 15l-47 69q-4 10 1 21t14 17.5t20.5 6t22.5 -12.5l31 -43l29 42q7 12 19 12.5t22 -5t16 -15.5t2 -20
z" />
    <glyph glyph-name="ccaron" unicode="&#x10d;" horiz-adv-x="424" 
d="M312 123q8 13 22 13.5t25.5 -6.5t17.5 -20.5t-3 -29.5q-23 -42 -63.5 -66.5t-89.5 -24.5q-36 0 -68 14.5t-56 39.5t-37.5 58t-13.5 69t13.5 69t37.5 58t56 39.5t68 13.5q60 -2 98 -29.5t52 -63.5q5 -12 -3 -22.5t-20 -16.5t-25 -5t-18 11q-14 29 -36.5 39t-48.5 10
q-21 0 -39 -8.5t-32 -22.5t-22 -33t-8 -40t8 -40t22 -33.5t32 -23t39 -8.5q30 0 50 12t42 47zM252 383q-9 -12 -20.5 -17t-23 -4.5t-21.5 6.5t-17 15l-47 69q-4 10 1 21t14 17.5t20.5 6t22.5 -12.5l31 -43l29 42q7 12 19 12.5t22 -5t16 -15.5t2 -20z" />
    <glyph glyph-name="Dcaron" unicode="&#x10e;" horiz-adv-x="506" 
d="M71 552q0 4 3.5 14t11.5 20.5t21 19t33 10.5q88 7 149 -19.5t98 -75.5t52.5 -114t13.5 -133q-2 -60 -19.5 -114t-54.5 -93.5t-96.5 -61t-145.5 -18.5q-14 0 -27.5 0.5t-23.5 6.5t-15.5 20.5t-5.5 43.5zM140 63q64 -6 108.5 8t72 43t40.5 70.5t15 91.5q2 54 -7.5 105
t-36 89t-73 58t-118.5 11zM293 653q-9 -12 -20.5 -17t-23 -4.5t-21.5 6.5t-17 15l-47 69q-4 10 1 21t14 17.5t20.5 6t22.5 -12.5l31 -43l29 42q7 12 19 12.5t22 -5t16 -15.5t2 -20z" />
    <glyph glyph-name="dcaron" unicode="&#x10f;" horiz-adv-x="565" 
d="M322 24q-22 -17 -47.5 -26t-54.5 -9q-36 0 -68 14.5t-56 39.5t-37.5 58t-13.5 69t13.5 69t37.5 57.5t56 39t68 14.5q27 0 52 -8.5t46 -23.5q0 1 0.5 20t0.5 48t0.5 62t0.5 61.5v47.5v20q1 16 12 26.5t24.5 12t26 -6.5t15.5 -29l-1 -567q0 -19 -11.5 -26.5t-25.5 -6.5
t-25.5 8.5t-11.5 19.5zM118 169q0 -21 8 -40t22 -33.5t32 -23t39 -8.5t39 8.5t32 23t22 33.5t8 40t-8 40t-22 33t-32 22.5t-39 8.5t-39 -8.5t-32 -22.5t-22 -33t-8 -40zM436 455q-10 9 -7 21.5t13 21t23.5 10t25.5 -11.5q13 -14 21.5 -37t9.5 -49.5t-7.5 -55t-30.5 -52.5
q-12 -13 -26.5 -14t-25 5.5t-14.5 18t5 22.5q16 14 23.5 32t7.5 35t-5 31.5t-13 22.5z" />
    <glyph glyph-name="Dcroat" unicode="&#x110;" horiz-adv-x="506" 
d="M71 552q0 4 3.5 14t11.5 20.5t21 19t33 10.5q88 7 149 -19.5t98 -75.5t52.5 -114t13.5 -133q-2 -60 -19.5 -114t-54.5 -93.5t-96.5 -61t-145.5 -18.5q-14 0 -27.5 0.5t-23.5 6.5t-15.5 20.5t-5.5 43.5zM140 63q64 -6 108.5 8t72 43t40.5 70.5t15 91.5q2 54 -7.5 105
t-36 89t-73 58t-118.5 11zM288 359q18 -3 25.5 -16.5t6.5 -27t-10 -24t-23 -7.5l-241 -2q-19 0 -26.5 11.5t-6.5 25.5t8.5 25.5t19.5 11.5z" />
    <glyph glyph-name="dcroat" unicode="&#x111;" horiz-adv-x="452" 
d="M322 24q-22 -17 -47.5 -26t-54.5 -9q-36 0 -68 14.5t-56 39.5t-37.5 58t-13.5 69t13.5 69t37.5 57.5t56 39t68 14.5q27 0 52 -8.5t46 -23.5q0 1 0.5 20t0.5 48t0.5 62t0.5 61.5v47.5v20q1 16 12 26.5t24.5 12t26 -6.5t15.5 -29l-1 -567q0 -19 -11.5 -26.5t-25.5 -6.5
t-25.5 8.5t-11.5 19.5zM118 169q0 -21 8 -40t22 -33.5t32 -23t39 -8.5t39 8.5t32 23t22 33.5t8 40t-8 40t-22 33t-32 22.5t-39 8.5t-39 -8.5t-32 -22.5t-22 -33t-8 -40zM473 503q18 -3 25.5 -16.5t6.5 -27t-10 -24t-23 -7.5l-241 -2q-19 0 -26.5 11.5t-6.5 25.5t8.5 25.5
t19.5 11.5z" />
    <glyph glyph-name="Emacron" unicode="&#x112;" horiz-adv-x="488" 
d="M136 -16q-9 0 -20 2t-20 6.5t-15 10.5t-6 15l-7 546q0 26 14 39.5t52 13.5l269 -2q19 0 26.5 -11.5t6.5 -25.5t-8.5 -25.5t-19.5 -11.5l-261 -3v-188l173 -1q19 0 26.5 -11.5t6.5 -25.5t-8.5 -25.5t-19.5 -11.5l-177 -3l1 -209l256 -2q19 0 26.5 -11.5t6.5 -25.5
t-8.5 -25.5t-19.5 -11.5zM366 714q18 -3 25.5 -16.5t6.5 -27t-10 -24t-23 -7.5l-241 -2q-19 0 -26.5 11.5t-6.5 25.5t8.5 25.5t19.5 11.5z" />
    <glyph glyph-name="emacron" unicode="&#x113;" horiz-adv-x="439" 
d="M314 102q10 11 25 11t27 -7.5t16.5 -20t-6.5 -26.5q-28 -35 -63.5 -52.5t-72 -20t-71.5 9t-62.5 35.5t-44 59.5t-16.5 79.5q0 36 13.5 68.5t37.5 57t56 39t68 15.5q31 1 59.5 -8t51 -26t37.5 -42t20 -56q5 -34 -10.5 -53.5t-68.5 -19.5l-189 1q6 -31 26.5 -54t48 -31.5
t59 0.5t59.5 41zM220 275q-29 -1 -52 -16.5t-36 -40.5l184 -2q-5 19 -15 30.5t-23 18t-28 8.5t-30 2zM341 444q18 -3 25.5 -16.5t6.5 -27t-10 -24t-23 -7.5l-241 -2q-19 0 -26.5 11.5t-6.5 25.5t8.5 25.5t19.5 11.5z" />
    <glyph glyph-name="Ebreve" unicode="&#x114;" horiz-adv-x="488" 
d="M136 -16q-9 0 -20 2t-20 6.5t-15 10.5t-6 15l-7 546q0 26 14 39.5t52 13.5l269 -2q19 0 26.5 -11.5t6.5 -25.5t-8.5 -25.5t-19.5 -11.5l-261 -3v-188l173 -1q19 0 26.5 -11.5t6.5 -25.5t-8.5 -25.5t-19.5 -11.5l-177 -3l1 -209l256 -2q19 0 26.5 -11.5t6.5 -25.5
t-8.5 -25.5t-19.5 -11.5zM304 734q6 12 18 13t22 -5t15 -17.5t-2 -25.5q-17 -32 -47.5 -47.5t-63.5 -15t-63.5 15.5t-48.5 45q-9 15 -4 26t15 16.5t21.5 4.5t14.5 -10q12 -24 30.5 -34t36.5 -8.5t33.5 12.5t22.5 30z" />
    <glyph glyph-name="ebreve" unicode="&#x115;" horiz-adv-x="439" 
d="M314 102q10 11 25 11t27 -7.5t16.5 -20t-6.5 -26.5q-28 -35 -63.5 -52.5t-72 -20t-71.5 9t-62.5 35.5t-44 59.5t-16.5 79.5q0 36 13.5 68.5t37.5 57t56 39t68 15.5q31 1 59.5 -8t51 -26t37.5 -42t20 -56q5 -34 -10.5 -53.5t-68.5 -19.5l-189 1q6 -31 26.5 -54t48 -31.5
t59 0.5t59.5 41zM220 275q-29 -1 -52 -16.5t-36 -40.5l184 -2q-5 19 -15 30.5t-23 18t-28 8.5t-30 2zM280 464q6 12 18 13t22 -5t15 -17.5t-2 -25.5q-17 -32 -47.5 -47.5t-63.5 -15t-63.5 15.5t-48.5 45q-9 15 -4 26t15 16.5t21.5 4.5t14.5 -10q12 -24 30.5 -34t36.5 -8.5
t33.5 12.5t22.5 30z" />
    <glyph glyph-name="Edotaccent" unicode="&#x116;" horiz-adv-x="488" 
d="M136 -16q-9 0 -20 2t-20 6.5t-15 10.5t-6 15l-7 546q0 26 14 39.5t52 13.5l269 -2q19 0 26.5 -11.5t6.5 -25.5t-8.5 -25.5t-19.5 -11.5l-261 -3v-188l173 -1q19 0 26.5 -11.5t6.5 -25.5t-8.5 -25.5t-19.5 -11.5l-177 -3l1 -209l256 -2q19 0 26.5 -11.5t6.5 -25.5
t-8.5 -25.5t-19.5 -11.5zM199 684q0 19 12.5 32t31.5 13t32 -13t13 -32t-13 -31.5t-32 -12.5t-31.5 12.5t-12.5 31.5z" />
    <glyph glyph-name="edotaccent" unicode="&#x117;" horiz-adv-x="439" 
d="M314 102q10 11 25 11t27 -7.5t16.5 -20t-6.5 -26.5q-28 -35 -63.5 -52.5t-72 -20t-71.5 9t-62.5 35.5t-44 59.5t-16.5 79.5q0 36 13.5 68.5t37.5 57t56 39t68 15.5q31 1 59.5 -8t51 -26t37.5 -42t20 -56q5 -34 -10.5 -53.5t-68.5 -19.5l-189 1q6 -31 26.5 -54t48 -31.5
t59 0.5t59.5 41zM220 275q-29 -1 -52 -16.5t-36 -40.5l184 -2q-5 19 -15 30.5t-23 18t-28 8.5t-30 2zM175 414q0 19 12.5 32t31.5 13t32 -13t13 -32t-13 -31.5t-32 -12.5t-31.5 12.5t-12.5 31.5z" />
    <glyph glyph-name="Eogonek" unicode="&#x118;" horiz-adv-x="488" 
d="M136 -16q-9 0 -20 2t-20 6.5t-15 10.5t-6 15l-7 546q0 26 14 39.5t52 13.5l269 -2q19 0 26.5 -11.5t6.5 -25.5t-8.5 -25.5t-19.5 -11.5l-261 -3v-188l173 -1q19 0 26.5 -11.5t6.5 -25.5t-8.5 -25.5t-19.5 -11.5l-177 -3l1 -209l256 -2q19 0 26.5 -11.5t6.5 -25.5
t-8.5 -25.5t-19.5 -11.5zM411 -8q-8 -8 -13 -20.5t-5 -27.5t7 -31t24 -30q9 -11 5 -22.5t-14.5 -18t-25 -5.5t-26.5 14q-22 24 -30.5 50.5t-7.5 51t9.5 45.5t21.5 35q12 13 25.5 11.5t23.5 -10t13 -21t-7 -21.5z" />
    <glyph glyph-name="eogonek" unicode="&#x119;" horiz-adv-x="439" 
d="M314 102q10 11 25 11t27 -7.5t16.5 -20t-6.5 -26.5q-28 -35 -63.5 -52.5t-72 -20t-71.5 9t-62.5 35.5t-44 59.5t-16.5 79.5q0 36 13.5 68.5t37.5 57t56 39t68 15.5q31 1 59.5 -8t51 -26t37.5 -42t20 -56q5 -34 -10.5 -53.5t-68.5 -19.5l-189 1q6 -31 26.5 -54t48 -31.5
t59 0.5t59.5 41zM220 275q-29 -1 -52 -16.5t-36 -40.5l184 -2q-5 19 -15 30.5t-23 18t-28 8.5t-30 2zM339 23q-8 -8 -13 -20.5t-5 -27.5t7 -31t24 -30q9 -11 5 -22.5t-14.5 -18t-25 -5.5t-26.5 14q-22 24 -30.5 50.5t-7.5 51t9.5 45.5t21.5 35q12 13 25.5 11.5t23.5 -10
t13 -21t-7 -21.5z" />
    <glyph glyph-name="Ecaron" unicode="&#x11a;" horiz-adv-x="488" 
d="M136 -16q-9 0 -20 2t-20 6.5t-15 10.5t-6 15l-7 546q0 26 14 39.5t52 13.5l269 -2q19 0 26.5 -11.5t6.5 -25.5t-8.5 -25.5t-19.5 -11.5l-261 -3v-188l173 -1q19 0 26.5 -11.5t6.5 -25.5t-8.5 -25.5t-19.5 -11.5l-177 -3l1 -209l256 -2q19 0 26.5 -11.5t6.5 -25.5
t-8.5 -25.5t-19.5 -11.5zM284 653q-9 -12 -20.5 -17t-23 -4.5t-21.5 6.5t-17 15l-47 69q-4 10 1 21t14 17.5t20.5 6t22.5 -12.5l31 -43l29 42q7 12 19 12.5t22 -5t16 -15.5t2 -20z" />
    <glyph glyph-name="ecaron" unicode="&#x11b;" horiz-adv-x="439" 
d="M314 102q10 11 25 11t27 -7.5t16.5 -20t-6.5 -26.5q-28 -35 -63.5 -52.5t-72 -20t-71.5 9t-62.5 35.5t-44 59.5t-16.5 79.5q0 36 13.5 68.5t37.5 57t56 39t68 15.5q31 1 59.5 -8t51 -26t37.5 -42t20 -56q5 -34 -10.5 -53.5t-68.5 -19.5l-189 1q6 -31 26.5 -54t48 -31.5
t59 0.5t59.5 41zM220 275q-29 -1 -52 -16.5t-36 -40.5l184 -2q-5 19 -15 30.5t-23 18t-28 8.5t-30 2zM260 383q-9 -12 -20.5 -17t-23 -4.5t-21.5 6.5t-17 15l-47 69q-4 10 1 21t14 17.5t20.5 6t22.5 -12.5l31 -43l29 42q7 12 19 12.5t22 -5t16 -15.5t2 -20z" />
    <glyph glyph-name="Gcircumflex" unicode="&#x11c;" horiz-adv-x="546" 
d="M279 69q26 0 50.5 10t43 32t31 57.5t14.5 86.5l-117 -2q-19 0 -26.5 11.5t-6.5 25.5t8.5 25.5t19.5 11.5l130 1q27 0 41.5 -6.5t21 -17t7 -22.5t-0.5 -23q-4 -68 -22.5 -118t-48 -83.5t-67 -50t-79.5 -16.5q-45 0 -85 24t-70 65.5t-47 97.5t-17 121q0 64 17 121.5t47 101
t70 68.5t85 25q31 0 60 -12.5t54 -34.5t45 -53t34 -68q3 -9 -8 -19t-25.5 -15t-27.5 -4.5t-14 12.5q-20 48 -51 82t-69 34q-30 0 -56 -21t-45.5 -55t-31 -78t-11.5 -90t12 -87t32 -71.5t46.5 -48t56.5 -17.5zM232 746q9 12 20.5 17t23 4.5t21.5 -6.5t17 -15l47 -69
q4 -10 -1 -21t-14 -17.5t-21 -6t-22 12.5l-31 43l-29 -42q-8 -12 -19.5 -12.5t-21.5 5t-16 15.5t-2 20z" />
    <glyph glyph-name="gcircumflex" unicode="&#x11d;" horiz-adv-x="436" 
d="M317 340q0 12 11.5 19.5t25.5 8.5t25.5 -6.5t11.5 -26.5v-261q0 -129 -43 -194t-148 -61q-41 1 -72 19t-67 59q-12 13 -7.5 26t16.5 21t26.5 10t23.5 -6q20 -29 44 -41t45 -14q30 -3 50.5 7t32.5 28t16.5 43t3.5 54q-20 -13 -46.5 -20t-51.5 -7q-36 0 -68 14.5t-56 39
t-37.5 57.5t-13.5 69t13.5 69t37.5 58t56 39.5t68 14.5q29 0 54.5 -9t47.5 -26zM112 179q0 -21 8 -40t22 -33t32 -22.5t39 -8.5t39 8.5t32 22.5t22 33t8 40t-8 40t-22 33.5t-32 23t-39 8.5t-39 -8.5t-32 -23t-22 -33.5t-8 -40zM177 476q9 12 20.5 17t23 4.5t21.5 -6.5
t17 -15l47 -69q4 -10 -1 -21t-14 -17.5t-21 -6t-22 12.5l-31 43l-29 -42q-8 -12 -19.5 -12.5t-21.5 5t-16 15.5t-2 20z" />
    <glyph glyph-name="Gbreve" unicode="&#x11e;" horiz-adv-x="546" 
d="M279 69q26 0 50.5 10t43 32t31 57.5t14.5 86.5l-117 -2q-19 0 -26.5 11.5t-6.5 25.5t8.5 25.5t19.5 11.5l130 1q27 0 41.5 -6.5t21 -17t7 -22.5t-0.5 -23q-4 -68 -22.5 -118t-48 -83.5t-67 -50t-79.5 -16.5q-45 0 -85 24t-70 65.5t-47 97.5t-17 121q0 64 17 121.5t47 101
t70 68.5t85 25q31 0 60 -12.5t54 -34.5t45 -53t34 -68q3 -9 -8 -19t-25.5 -15t-27.5 -4.5t-14 12.5q-20 48 -51 82t-69 34q-30 0 -56 -21t-45.5 -55t-31 -78t-11.5 -90t12 -87t32 -71.5t46.5 -48t56.5 -17.5zM333 734q6 12 18 13t22 -5t15 -17.5t-2 -25.5
q-17 -32 -47.5 -47.5t-63.5 -15t-63.5 15.5t-48.5 45q-9 15 -4 26t15 16.5t21.5 4.5t14.5 -10q12 -24 30.5 -34t36.5 -8.5t33.5 12.5t22.5 30z" />
    <glyph glyph-name="gbreve" unicode="&#x11f;" horiz-adv-x="436" 
d="M317 340q0 12 11.5 19.5t25.5 8.5t25.5 -6.5t11.5 -26.5v-261q0 -129 -43 -194t-148 -61q-41 1 -72 19t-67 59q-12 13 -7.5 26t16.5 21t26.5 10t23.5 -6q20 -29 44 -41t45 -14q30 -3 50.5 7t32.5 28t16.5 43t3.5 54q-20 -13 -46.5 -20t-51.5 -7q-36 0 -68 14.5t-56 39
t-37.5 57.5t-13.5 69t13.5 69t37.5 58t56 39.5t68 14.5q29 0 54.5 -9t47.5 -26zM112 179q0 -21 8 -40t22 -33t32 -22.5t39 -8.5t39 8.5t32 22.5t22 33t8 40t-8 40t-22 33.5t-32 23t-39 8.5t-39 -8.5t-32 -23t-22 -33.5t-8 -40zM276 479q6 12 18 13t22 -5t15 -17.5t-2 -25.5
q-17 -32 -47.5 -47.5t-63.5 -15t-63.5 15.5t-48.5 45q-9 15 -4 26t15 16.5t21.5 4.5t14.5 -10q12 -24 30.5 -34t36.5 -8.5t33.5 12.5t22.5 30z" />
    <glyph glyph-name="Gdotaccent" unicode="&#x120;" horiz-adv-x="546" 
d="M279 69q26 0 50.5 10t43 32t31 57.5t14.5 86.5l-117 -2q-19 0 -26.5 11.5t-6.5 25.5t8.5 25.5t19.5 11.5l130 1q27 0 41.5 -6.5t21 -17t7 -22.5t-0.5 -23q-4 -68 -22.5 -118t-48 -83.5t-67 -50t-79.5 -16.5q-45 0 -85 24t-70 65.5t-47 97.5t-17 121q0 64 17 121.5t47 101
t70 68.5t85 25q31 0 60 -12.5t54 -34.5t45 -53t34 -68q3 -9 -8 -19t-25.5 -15t-27.5 -4.5t-14 12.5q-20 48 -51 82t-69 34q-30 0 -56 -21t-45.5 -55t-31 -78t-11.5 -90t12 -87t32 -71.5t46.5 -48t56.5 -17.5zM228 684q0 19 12.5 32t31.5 13t32 -13t13 -32t-13 -31.5
t-32 -12.5t-31.5 12.5t-12.5 31.5z" />
    <glyph glyph-name="gdotaccent" unicode="&#x121;" horiz-adv-x="436" 
d="M317 340q0 12 11.5 19.5t25.5 8.5t25.5 -6.5t11.5 -26.5v-261q0 -129 -43 -194t-148 -61q-41 1 -72 19t-67 59q-12 13 -7.5 26t16.5 21t26.5 10t23.5 -6q20 -29 44 -41t45 -14q30 -3 50.5 7t32.5 28t16.5 43t3.5 54q-20 -13 -46.5 -20t-51.5 -7q-36 0 -68 14.5t-56 39
t-37.5 57.5t-13.5 69t13.5 69t37.5 58t56 39.5t68 14.5q29 0 54.5 -9t47.5 -26zM112 179q0 -21 8 -40t22 -33t32 -22.5t39 -8.5t39 8.5t32 22.5t22 33t8 40t-8 40t-22 33.5t-32 23t-39 8.5t-39 -8.5t-32 -23t-22 -33.5t-8 -40zM171 433q0 19 12.5 32t31.5 13t32 -13t13 -32
t-13 -31.5t-32 -12.5t-31.5 12.5t-12.5 31.5z" />
    <glyph glyph-name="uni0122" unicode="&#x122;" horiz-adv-x="546" 
d="M279 69q26 0 50.5 10t43 32t31 57.5t14.5 86.5l-117 -2q-19 0 -26.5 11.5t-6.5 25.5t8.5 25.5t19.5 11.5l130 1q27 0 41.5 -6.5t21 -17t7 -22.5t-0.5 -23q-4 -68 -22.5 -118t-48 -83.5t-67 -50t-79.5 -16.5q-45 0 -85 24t-70 65.5t-47 97.5t-17 121q0 64 17 121.5t47 101
t70 68.5t85 25q31 0 60 -12.5t54 -34.5t45 -53t34 -68q3 -9 -8 -19t-25.5 -15t-27.5 -4.5t-14 12.5q-20 48 -51 82t-69 34q-30 0 -56 -21t-45.5 -55t-31 -78t-11.5 -90t12 -87t32 -71.5t46.5 -48t56.5 -17.5zM234 -82q-10 9 -7 21.5t13 21t23.5 10t25.5 -11.5
q13 -14 21.5 -37t9.5 -49.5t-7.5 -55t-30.5 -52.5q-12 -13 -26.5 -14t-25 5.5t-14.5 18t5 22.5q16 14 23.5 32t7.5 35t-5 31.5t-13 22.5z" />
    <glyph glyph-name="uni0123" unicode="&#x123;" horiz-adv-x="436" 
d="M317 340q0 12 11.5 19.5t25.5 8.5t25.5 -6.5t11.5 -26.5v-261q0 -129 -43 -194t-148 -61q-41 1 -72 19t-67 59q-12 13 -7.5 26t16.5 21t26.5 10t23.5 -6q20 -29 44 -41t45 -14q30 -3 50.5 7t32.5 28t16.5 43t3.5 54q-20 -13 -46.5 -20t-51.5 -7q-36 0 -68 14.5t-56 39
t-37.5 57.5t-13.5 69t13.5 69t37.5 58t56 39.5t68 14.5q29 0 54.5 -9t47.5 -26zM112 179q0 -21 8 -40t22 -33t32 -22.5t39 -8.5t39 8.5t32 22.5t22 33t8 40t-8 40t-22 33.5t-32 23t-39 8.5t-39 -8.5t-32 -23t-22 -33.5t-8 -40zM242 437q10 -9 7 -21.5t-13 -21t-23.5 -10
t-25.5 11.5q-13 14 -21.5 37t-9.5 49.5t7.5 55t30.5 52.5q12 13 26.5 14t25 -5.5t14.5 -18t-5 -22.5q-17 -14 -24 -32t-7 -35t5 -31.5t13 -22.5z" />
    <glyph glyph-name="Hcircumflex" unicode="&#x124;" horiz-adv-x="520" 
d="M384 274h-252l1 -246q0 -19 -11.5 -26.5t-25.5 -6.5t-25.5 8.5t-11.5 19.5l-7 555q3 18 17 24t28.5 3.5t25.5 -12t8 -21.5l1 -220h252l-2 226q3 18 17 24.5t28 4.5t25 -11t8 -21l2 -547q0 -19 -11.5 -26.5t-26 -6.5t-26 8.5t-11.5 19.5zM219 746q9 12 20.5 17t23 4.5
t21.5 -6.5t17 -15l47 -69q4 -10 -1 -21t-14 -17.5t-21 -6t-22 12.5l-31 43l-29 -42q-8 -12 -19.5 -12.5t-21.5 5t-16 15.5t-2 20z" />
    <glyph glyph-name="hcircumflex" unicode="&#x125;" horiz-adv-x="417" 
d="M299 15q2 86 -4 137t-16.5 78t-24 35t-25.5 8q-21 0 -39 -8.5t-32 -23t-22 -33.5t-8 -40v-142q-1 -16 -12 -26.5t-24.5 -12t-26 6.5t-15.5 29l1 554q0 19 11.5 26.5t25.5 6.5t25.5 -8.5t11.5 -19.5l1 -269q22 17 47.5 26t54.5 9q52 0 81 -24.5t43.5 -68t17.5 -104
t3 -131.5q0 -19 -11.5 -26.5t-25.5 -6.5t-25.5 8.5t-11.5 19.5zM198 694q9 12 20.5 17t23 4.5t21.5 -6.5t17 -15l47 -69q4 -10 -1 -21t-14 -17.5t-21 -6t-22 12.5l-31 43l-29 -42q-8 -12 -19.5 -12.5t-21.5 5t-16 15.5t-2 20z" />
    <glyph glyph-name="Hbar" unicode="&#x126;" horiz-adv-x="520" 
d="M472 503q18 -3 25.5 -16.5t6.5 -27t-10 -24t-23 -7.5l-428 -2q-19 0 -26.5 11.5t-6.5 25.5t8.5 25.5t19.5 11.5zM384 274h-252l1 -246q0 -19 -11.5 -26.5t-25.5 -6.5t-25.5 8.5t-11.5 19.5l-7 555q3 18 17 24t28.5 3.5t25.5 -12t8 -21.5l1 -220h252l-2 226q3 18 17 24.5
t28 4.5t25 -11t8 -21l2 -547q0 -19 -11.5 -26.5t-26 -6.5t-26 8.5t-11.5 19.5z" />
    <glyph glyph-name="hbar" unicode="&#x127;" horiz-adv-x="417" 
d="M299 15q2 86 -4 137t-16.5 78t-24 35t-25.5 8q-21 0 -39 -8.5t-32 -23t-22 -33.5t-8 -40v-142q-1 -16 -12 -26.5t-24.5 -12t-26 6.5t-15.5 29l1 554q0 19 11.5 26.5t25.5 6.5t25.5 -8.5t11.5 -19.5l1 -269q22 17 47.5 26t54.5 9q52 0 81 -24.5t43.5 -68t17.5 -104
t3 -131.5q0 -19 -11.5 -26.5t-25.5 -6.5t-25.5 8.5t-11.5 19.5zM244 474q18 -3 25.5 -16.5t6.5 -27t-10 -24t-23 -7.5l-241 -2q-19 0 -26.5 11.5t-6.5 25.5t8.5 25.5t19.5 11.5z" />
    <glyph glyph-name="Itilde" unicode="&#x128;" horiz-adv-x="406" 
d="M160 74l-3 461l-88 -1q-19 0 -26.5 11.5t-6.5 25.5t8.5 25.5t19.5 11.5h274q18 -3 24.5 -16t4 -26t-12.5 -23t-24 -7l-94 -1l1 -461l93 -1q14 3 24 -7t12.5 -23t-4 -26t-24.5 -16h-274q-12 0 -19.5 11.5t-8.5 25.5t6.5 25.5t26.5 11.5l88 -1h3zM303 769q4 13 15.5 18
t23.5 2.5t20.5 -12.5t7.5 -27q-4 -42 -29.5 -68.5t-57.5 -28.5q-26 -2 -43.5 10t-32.5 26t-30 25t-34 8q-15 -2 -21 -15t-13 -35q-6 -17 -18.5 -20t-24 3t-18 19.5t-0.5 29.5q14 35 35 60t56 24q29 0 47.5 -11t32 -23.5t26.5 -23t31 -10.5q16 0 21 14t6 35z" />
    <glyph glyph-name="itilde" unicode="&#x129;" horiz-adv-x="194" 
d="M59 316q3 18 17 24.5t29 4.5t26 -11t8 -21l-1 -285q0 -19 -11.5 -26.5t-25.5 -6.5t-25.5 8.5t-11.5 19.5zM198 499q4 13 15.5 18t23.5 2.5t20.5 -12.5t7.5 -27q-4 -42 -29.5 -68.5t-57.5 -28.5q-26 -2 -43.5 10t-32.5 26t-30 25t-34 8q-15 -2 -21 -15t-13 -35
q-6 -17 -18.5 -20t-24 3t-18 19.5t-0.5 29.5q14 35 35 60t56 24q29 0 47.5 -11t32 -23.5t26.5 -23t31 -10.5q16 0 21 14t6 35z" />
    <glyph glyph-name="Imacron" unicode="&#x12a;" horiz-adv-x="406" 
d="M160 74l-3 461l-88 -1q-19 0 -26.5 11.5t-6.5 25.5t8.5 25.5t19.5 11.5h274q18 -3 24.5 -16t4 -26t-12.5 -23t-24 -7l-94 -1l1 -461l93 -1q14 3 24 -7t12.5 -23t-4 -26t-24.5 -16h-274q-12 0 -19.5 11.5t-8.5 25.5t6.5 25.5t26.5 11.5l88 -1h3zM325 714q18 -3 25.5 -16.5
t6.5 -27t-10 -24t-23 -7.5l-241 -2q-19 0 -26.5 11.5t-6.5 25.5t8.5 25.5t19.5 11.5z" />
    <glyph glyph-name="imacron" unicode="&#x12b;" horiz-adv-x="194" 
d="M59 316q3 18 17 24.5t29 4.5t26 -11t8 -21l-1 -285q0 -19 -11.5 -26.5t-25.5 -6.5t-25.5 8.5t-11.5 19.5zM220 444q18 -3 25.5 -16.5t6.5 -27t-10 -24t-23 -7.5l-241 -2q-19 0 -26.5 11.5t-6.5 25.5t8.5 25.5t19.5 11.5z" />
    <glyph glyph-name="Ibreve" unicode="&#x12c;" horiz-adv-x="406" 
d="M160 74l-3 461l-88 -1q-19 0 -26.5 11.5t-6.5 25.5t8.5 25.5t19.5 11.5h274q18 -3 24.5 -16t4 -26t-12.5 -23t-24 -7l-94 -1l1 -461l93 -1q14 3 24 -7t12.5 -23t-4 -26t-24.5 -16h-274q-12 0 -19.5 11.5t-8.5 25.5t6.5 25.5t26.5 11.5l88 -1h3zM263 734q6 12 18 13t22 -5
t15 -17.5t-2 -25.5q-17 -32 -47.5 -47.5t-63.5 -15t-63.5 15.5t-48.5 45q-9 15 -4 26t15 16.5t21.5 4.5t14.5 -10q12 -24 30.5 -34t36.5 -8.5t33.5 12.5t22.5 30z" />
    <glyph glyph-name="ibreve" unicode="&#x12d;" horiz-adv-x="194" 
d="M59 316q3 18 17 24.5t29 4.5t26 -11t8 -21l-1 -285q0 -19 -11.5 -26.5t-25.5 -6.5t-25.5 8.5t-11.5 19.5zM159 464q6 12 18 13t22 -5t15 -17.5t-2 -25.5q-17 -32 -47.5 -47.5t-63.5 -15t-63.5 15.5t-48.5 45q-9 15 -4 26t15 16.5t21.5 4.5t14.5 -10q12 -24 30.5 -34
t36.5 -8.5t33.5 12.5t22.5 30z" />
    <glyph glyph-name="Iogonek" unicode="&#x12e;" horiz-adv-x="406" 
d="M160 74l-3 461l-88 -1q-19 0 -26.5 11.5t-6.5 25.5t8.5 25.5t19.5 11.5h274q18 -3 24.5 -16t4 -26t-12.5 -23t-24 -7l-94 -1l1 -461l93 -1q14 3 24 -7t12.5 -23t-4 -26t-24.5 -16h-274q-12 0 -19.5 11.5t-8.5 25.5t6.5 25.5t26.5 11.5l88 -1h3zM349 16q-8 -8 -13 -20.5
t-5 -27.5t7 -31t24 -30q9 -11 5 -22.5t-14.5 -18t-25 -5.5t-26.5 14q-22 24 -30.5 50.5t-7.5 51t9.5 45.5t21.5 35q12 13 25.5 11.5t23.5 -10t13 -21t-7 -21.5z" />
    <glyph glyph-name="iogonek" unicode="&#x12f;" horiz-adv-x="194" 
d="M59 316q3 18 17 24.5t29 4.5t26 -11t8 -21l-1 -285q0 -19 -11.5 -26.5t-25.5 -6.5t-25.5 8.5t-11.5 19.5zM57 419q0 19 12.5 32t31.5 13t32 -13t13 -32t-13 -31.5t-32 -12.5t-31.5 12.5t-12.5 31.5zM123 3q-8 -8 -13 -20.5t-5 -27.5t7 -31t24 -30q9 -11 5 -22.5
t-14.5 -18t-25 -5.5t-26.5 14q-22 24 -30.5 50.5t-7.5 51t9.5 45.5t21.5 35q12 13 25.5 11.5t23.5 -10t13 -21t-7 -21.5z" />
    <glyph glyph-name="Idotaccent" unicode="&#x130;" horiz-adv-x="406" 
d="M160 74l-3 461l-88 -1q-19 0 -26.5 11.5t-6.5 25.5t8.5 25.5t19.5 11.5h274q18 -3 24.5 -16t4 -26t-12.5 -23t-24 -7l-94 -1l1 -461l93 -1q14 3 24 -7t12.5 -23t-4 -26t-24.5 -16h-274q-12 0 -19.5 11.5t-8.5 25.5t6.5 25.5t26.5 11.5l88 -1h3zM158 684q0 19 12.5 32
t31.5 13t32 -13t13 -32t-13 -31.5t-32 -12.5t-31.5 12.5t-12.5 31.5z" />
    <glyph glyph-name="dotlessi" unicode="&#x131;" horiz-adv-x="194" 
d="M59 316q3 18 17 24.5t29 4.5t26 -11t8 -21l-1 -285q0 -19 -11.5 -26.5t-25.5 -6.5t-25.5 8.5t-11.5 19.5z" />
    <glyph glyph-name="Jcircumflex" unicode="&#x134;" horiz-adv-x="565" 
d="M103 181q18 -48 50.5 -79t71.5 -30q28 1 46 24t29 61t15 86t5 99.5t0 102t-2 92.5l-133 2q-19 0 -26.5 11.5t-6.5 25.5t8.5 25.5t19.5 11.5h326q18 -3 24.5 -16t4 -26t-12.5 -23t-24 -7l-100 -1q2 -51 4 -110.5t0 -119.5t-11 -116.5t-29 -100.5t-53 -71.5t-83 -30.5
q-30 -2 -58 9t-52 31t-44 48t-34 61q-9 18 -2.5 33.5t19 23t27 5t21.5 -20.5zM297 744q9 12 20.5 17t23 4.5t21.5 -6.5t17 -15l47 -69q4 -10 -1 -21t-14 -17.5t-21 -6t-22 12.5l-31 43l-29 -42q-8 -12 -19.5 -12.5t-21.5 5t-16 15.5t-2 20z" />
    <glyph glyph-name="jcircumflex" unicode="&#x135;" horiz-adv-x="182" 
d="M55 340q0 12 11.5 19.5t25.5 8.5t25.5 -6.5t11.5 -26.5v-261q0 -65 -10.5 -115.5t-33.5 -84.5t-59 -48.5t-88 -6.5q-20 3 -28 16t-6.5 26.5t12.5 24t31 7.5q57 -8 83.5 48.5t25.5 183.5zM49 526q9 12 20.5 17t23 4.5t21.5 -6.5t17 -15l47 -69q4 -10 -1 -21t-14 -17.5
t-21 -6t-22 12.5l-31 43l-29 -42q-8 -12 -19.5 -12.5t-21.5 5t-16 15.5t-2 20z" />
    <glyph glyph-name="uni0136" unicode="&#x136;" horiz-adv-x="506" 
d="M52 578q3 18 17 25t28.5 5.5t25.5 -10t8 -20.5l1 -224l242 249q16 8 30 0.5t21.5 -21t7 -27.5t-12.5 -19l-179 -178l205 -295q9 -7 8.5 -21t-8 -26t-20.5 -16.5t-28 6.5l-212 297q-29 -27 -39 -38.5t-15 -10.5l1 -226q0 -19 -11.5 -26.5t-25.5 -6.5t-25.5 8.5t-11.5 19.5
zM208 -15q-10 9 -7 21.5t13 21t23.5 10t25.5 -11.5q13 -14 21.5 -37t9.5 -49.5t-7.5 -55t-30.5 -52.5q-12 -13 -26.5 -14t-25 5.5t-14.5 18t5 22.5q16 14 23.5 32t7.5 35t-5 31.5t-13 22.5z" />
    <glyph glyph-name="uni0137" unicode="&#x137;" horiz-adv-x="404" 
d="M52 578q3 18 17 24.5t28.5 4.5t25.5 -11t8 -21l1 -336l156 132q16 8 30 0.5t21.5 -21t7 -27.5t-12.5 -19l-93 -75l113 -185q6 -10 0.5 -23t-17 -22t-26 -9.5t-25.5 14.5l-108 174l-46 -36l1 -114q0 -19 -11.5 -26.5t-25.5 -6.5t-25.5 8.5t-11.5 19.5zM174 -57
q-10 9 -7 21.5t13 21t23.5 10t25.5 -11.5q13 -14 21.5 -37t9.5 -49.5t-7.5 -55t-30.5 -52.5q-12 -13 -26.5 -14t-25 5.5t-14.5 18t5 22.5q16 14 23.5 32t7.5 35t-5 31.5t-13 22.5z" />
    <glyph glyph-name="Lacute" unicode="&#x139;" horiz-adv-x="478" 
d="M52 578q3 18 17 24t28.5 3t25.5 -12.5t8 -21.5l2 -496l273 4q18 -3 23 -16.5t1.5 -28t-14 -25t-22.5 -7.5l-274 -4q-10 0 -20.5 1.5t-19.5 6.5t-15 15t-6 28zM240 768q15 11 29.5 8.5t23.5 -12t10.5 -23t-9.5 -25.5l-63 -70q-13 -14 -26.5 -11t-23 13t-12.5 23.5t5 21.5z
" />
    <glyph glyph-name="lacute" unicode="&#x13a;" horiz-adv-x="186" 
d="M52 578q3 18 16 25t27 6t25 -10t11 -22l2 -549q0 -19 -11.5 -26.5t-25.5 -6.5t-25.5 8.5t-11.5 19.5zM86 761q15 11 29.5 8.5t23.5 -12t10.5 -23t-9.5 -25.5l-63 -70q-13 -14 -26.5 -11t-23 13t-12.5 23.5t5 21.5z" />
    <glyph glyph-name="uni013B" unicode="&#x13b;" horiz-adv-x="478" 
d="M52 578q3 18 17 24t28.5 3t25.5 -12.5t8 -21.5l2 -496l273 4q18 -3 23 -16.5t1.5 -28t-14 -25t-22.5 -7.5l-274 -4q-10 0 -20.5 1.5t-19.5 6.5t-15 15t-6 28zM195 -74q-10 9 -7 21.5t13 21t23.5 10t25.5 -11.5q13 -14 21.5 -37t9.5 -49.5t-7.5 -55t-30.5 -52.5
q-12 -13 -26.5 -14t-25 5.5t-14.5 18t5 22.5q16 14 23.5 32t7.5 35t-5 31.5t-13 22.5z" />
    <glyph glyph-name="uni013C" unicode="&#x13c;" horiz-adv-x="186" 
d="M52 578q3 18 16 25t27 6t25 -10t11 -22l2 -549q0 -19 -11.5 -26.5t-25.5 -6.5t-25.5 8.5t-11.5 19.5zM68 -74q-10 9 -7 21.5t13 21t23.5 10t25.5 -11.5q13 -14 21.5 -37t9.5 -49.5t-7.5 -55t-30.5 -52.5q-12 -13 -26.5 -14t-25 5.5t-14.5 18t5 22.5q16 14 23.5 32t7.5 35
t-5 31.5t-13 22.5z" />
    <glyph glyph-name="Lcaron" unicode="&#x13d;" horiz-adv-x="478" 
d="M52 578q3 18 17 24t28.5 3t25.5 -12.5t8 -21.5l2 -496l273 4q18 -3 23 -16.5t1.5 -28t-14 -25t-22.5 -7.5l-274 -4q-10 0 -20.5 1.5t-19.5 6.5t-15 15t-6 28zM206 516q-10 9 -7 21.5t13 21t23.5 10t25.5 -11.5q13 -14 21.5 -37t9.5 -49.5t-7.5 -55t-30.5 -52.5
q-12 -13 -26.5 -14t-25 5.5t-14.5 18t5 22.5q16 14 23.5 32t7.5 35t-5 31.5t-13 22.5z" />
    <glyph glyph-name="lcaron" unicode="&#x13e;" horiz-adv-x="302" 
d="M52 578q3 18 16 25t27 6t25 -10t11 -22l2 -549q0 -19 -11.5 -26.5t-25.5 -6.5t-25.5 8.5t-11.5 19.5zM175 451q-10 9 -7 21.5t13 21t23.5 10t25.5 -11.5q13 -14 21.5 -37t9.5 -49.5t-7.5 -55t-30.5 -52.5q-12 -13 -26.5 -14t-25 5.5t-14.5 18t5 22.5q16 14 23.5 32
t7.5 35t-5 31.5t-13 22.5z" />
    <glyph glyph-name="Ldot" unicode="&#x13f;" horiz-adv-x="478" 
d="M52 578q3 18 17 24t28.5 3t25.5 -12.5t8 -21.5l2 -496l273 4q18 -3 23 -16.5t1.5 -28t-14 -25t-22.5 -7.5l-274 -4q-10 0 -20.5 1.5t-19.5 6.5t-15 15t-6 28zM188 311q0 19 12.5 32t31.5 13t32 -13t13 -32t-13 -31.5t-32 -12.5t-31.5 12.5t-12.5 31.5z" />
    <glyph glyph-name="ldot" unicode="&#x140;" horiz-adv-x="276" 
d="M52 578q3 18 16 25t27 6t25 -10t11 -22l2 -549q0 -19 -11.5 -26.5t-25.5 -6.5t-25.5 8.5t-11.5 19.5zM152 263q0 19 12.5 32t31.5 13t32 -13t13 -32t-13 -31.5t-32 -12.5t-31.5 12.5t-12.5 31.5z" />
    <glyph glyph-name="Lslash" unicode="&#x141;" horiz-adv-x="522" 
d="M246 328q17 7 30.5 0t20 -19t4.5 -25.5t-15 -18.5l-201 -134q-16 -10 -28.5 -4.5t-19 18t-6.5 26.5t10 20zM96 578q3 18 17 24t28.5 3t25.5 -12.5t8 -21.5l2 -496l273 4q18 -3 23 -16.5t1.5 -28t-14 -25t-22.5 -7.5l-274 -4q-10 0 -20.5 1.5t-19.5 6.5t-15 15t-6 28z" />
    <glyph glyph-name="lslash" unicode="&#x142;" horiz-adv-x="258" 
d="M182 283q18 3 29.5 -5.5t15.5 -21t-0.5 -25.5t-18.5 -18l-123 -63q-17 -7 -28 1t-15.5 21.5t-1.5 27t14 17.5zM87 578q3 18 16 25t27 6t25 -10t11 -22l2 -549q0 -19 -11.5 -26.5t-25.5 -6.5t-25.5 8.5t-11.5 19.5z" />
    <glyph glyph-name="Nacute" unicode="&#x143;" horiz-adv-x="514" 
d="M131 444l2 -426q0 -19 -11.5 -26.5t-25.5 -6.5t-25.5 8.5t-11.5 19.5l-7 565q2 15 12.5 22.5t23.5 9t25.5 -4t18.5 -15.5l256 -437l-5 425q3 18 16 25t27 6t25 -10t11 -22l2 -561q0 -12 -9.5 -18.5t-22 -8t-24.5 2.5t-17 13zM258 768q15 11 29.5 8.5t23.5 -12t10.5 -23
t-9.5 -25.5l-63 -70q-13 -14 -26.5 -11t-23 13t-12.5 23.5t5 21.5z" />
    <glyph glyph-name="nacute" unicode="&#x144;" horiz-adv-x="417" 
d="M299 15q2 86 -4 137t-16.5 78t-24 35t-25.5 8q-21 0 -39 -8.5t-32 -23t-22 -33.5t-8 -40v-142q-1 -16 -12 -26.5t-24.5 -12t-26 6.5t-15.5 29l1 301q0 19 11.5 26.5t25.5 6.5t25.5 -8.5t11.5 -19.5l1 -16q22 17 47.5 26t54.5 9q52 0 81 -24.5t43.5 -68t17.5 -104
t3 -131.5q0 -19 -11.5 -26.5t-25.5 -6.5t-25.5 8.5t-11.5 19.5zM210 498q15 11 29.5 8.5t23.5 -12t10.5 -23t-9.5 -25.5l-63 -70q-13 -14 -26.5 -11t-23 13t-12.5 23.5t5 21.5z" />
    <glyph glyph-name="uni0145" unicode="&#x145;" horiz-adv-x="514" 
d="M131 444l2 -426q0 -19 -11.5 -26.5t-25.5 -6.5t-25.5 8.5t-11.5 19.5l-7 565q2 15 12.5 22.5t23.5 9t25.5 -4t18.5 -15.5l256 -437l-5 425q3 18 16 25t27 6t25 -10t11 -22l2 -561q0 -12 -9.5 -18.5t-22 -8t-24.5 2.5t-17 13zM217 -39q-10 9 -7 21.5t13 21t23.5 10
t25.5 -11.5q13 -14 21.5 -37t9.5 -49.5t-7.5 -55t-30.5 -52.5q-12 -13 -26.5 -14t-25 5.5t-14.5 18t5 22.5q16 14 23.5 32t7.5 35t-5 31.5t-13 22.5z" />
    <glyph glyph-name="uni0146" unicode="&#x146;" horiz-adv-x="417" 
d="M299 15q2 86 -4 137t-16.5 78t-24 35t-25.5 8q-21 0 -39 -8.5t-32 -23t-22 -33.5t-8 -40v-142q-1 -16 -12 -26.5t-24.5 -12t-26 6.5t-15.5 29l1 301q0 19 11.5 26.5t25.5 6.5t25.5 -8.5t11.5 -19.5l1 -16q22 17 47.5 26t54.5 9q52 0 81 -24.5t43.5 -68t17.5 -104
t3 -131.5q0 -19 -11.5 -26.5t-25.5 -6.5t-25.5 8.5t-11.5 19.5zM182 -50q-10 9 -7 21.5t13 21t23.5 10t25.5 -11.5q13 -14 21.5 -37t9.5 -49.5t-7.5 -55t-30.5 -52.5q-12 -13 -26.5 -14t-25 5.5t-14.5 18t5 22.5q16 14 23.5 32t7.5 35t-5 31.5t-13 22.5z" />
    <glyph glyph-name="Ncaron" unicode="&#x147;" horiz-adv-x="514" 
d="M131 444l2 -426q0 -19 -11.5 -26.5t-25.5 -6.5t-25.5 8.5t-11.5 19.5l-7 565q2 15 12.5 22.5t23.5 9t25.5 -4t18.5 -15.5l256 -437l-5 425q3 18 16 25t27 6t25 -10t11 -22l2 -561q0 -12 -9.5 -18.5t-22 -8t-24.5 2.5t-17 13zM297 653q-9 -12 -20.5 -17t-23 -4.5
t-21.5 6.5t-17 15l-47 69q-4 10 1 21t14 17.5t20.5 6t22.5 -12.5l31 -43l29 42q7 12 19 12.5t22 -5t16 -15.5t2 -20z" />
    <glyph glyph-name="ncaron" unicode="&#x148;" horiz-adv-x="417" 
d="M299 15q2 86 -4 137t-16.5 78t-24 35t-25.5 8q-21 0 -39 -8.5t-32 -23t-22 -33.5t-8 -40v-142q-1 -16 -12 -26.5t-24.5 -12t-26 6.5t-15.5 29l1 301q0 19 11.5 26.5t25.5 6.5t25.5 -8.5t11.5 -19.5l1 -16q22 17 47.5 26t54.5 9q52 0 81 -24.5t43.5 -68t17.5 -104
t3 -131.5q0 -19 -11.5 -26.5t-25.5 -6.5t-25.5 8.5t-11.5 19.5zM249 383q-9 -12 -20.5 -17t-23 -4.5t-21.5 6.5t-17 15l-47 69q-4 10 1 21t14 17.5t20.5 6t22.5 -12.5l31 -43l29 42q7 12 19 12.5t22 -5t16 -15.5t2 -20z" />
    <glyph glyph-name="napostrophe" unicode="&#x149;" horiz-adv-x="417" 
d="M299 15q2 86 -4 137t-16.5 78t-24 35t-25.5 8q-21 0 -39 -8.5t-32 -23t-22 -33.5t-8 -40v-142q-1 -16 -12 -26.5t-24.5 -12t-26 6.5t-15.5 29l1 301q0 19 11.5 26.5t25.5 6.5t25.5 -8.5t11.5 -19.5l1 -16q22 17 47.5 26t54.5 9q52 0 81 -24.5t43.5 -68t17.5 -104
t3 -131.5q0 -19 -11.5 -26.5t-25.5 -6.5t-25.5 8.5t-11.5 19.5zM73 545q-10 9 -7 21.5t13 21t23.5 10t25.5 -11.5q13 -14 21.5 -37t9.5 -49.5t-7.5 -55t-30.5 -52.5q-12 -13 -26.5 -14t-25 5.5t-14.5 18t5 22.5q16 14 23.5 32t7.5 35t-5 31.5t-13 22.5z" />
    <glyph glyph-name="Omacron" unicode="&#x14c;" horiz-adv-x="556" 
d="M59 299q0 64 17 121.5t47 101t70 68.5t85 25t85 -25t70 -68.5t47 -101t17 -121.5q0 -65 -17 -120.5t-47 -97t-70 -65t-85 -23.5t-85 23.5t-70 65t-47 97t-17 120.5zM133 293q0 -46 11.5 -86.5t31.5 -71t46.5 -48t56.5 -17.5t56 17.5t45.5 48t30.5 71t11 86.5t-11.5 89.5
t-31.5 77t-46.5 54t-56.5 20.5t-56 -20.5t-45.5 -54t-30.5 -77t-11 -89.5zM400 714q18 -3 25.5 -16.5t6.5 -27t-10 -24t-23 -7.5l-241 -2q-19 0 -26.5 11.5t-6.5 25.5t8.5 25.5t19.5 11.5z" />
    <glyph glyph-name="omacron" unicode="&#x14d;" 
d="M46 170q0 36 13.5 69t37.5 57.5t56 39t68 14.5t68 -14.5t56 -39t37.5 -57.5t13.5 -69t-13.5 -69t-37.5 -58t-56 -39.5t-68 -14.5t-68 14.5t-56 39.5t-37.5 58t-13.5 69zM119 169q0 -21 8 -40t22 -33.5t32 -23t39 -8.5t39 8.5t32 23t22 33.5t8 40t-8 40t-22 33t-32 22.5
t-39 8.5t-39 -8.5t-32 -22.5t-22 -33t-8 -40zM344 444q18 -3 25.5 -16.5t6.5 -27t-10 -24t-23 -7.5l-241 -2q-19 0 -26.5 11.5t-6.5 25.5t8.5 25.5t19.5 11.5z" />
    <glyph glyph-name="Obreve" unicode="&#x14e;" horiz-adv-x="556" 
d="M59 299q0 64 17 121.5t47 101t70 68.5t85 25t85 -25t70 -68.5t47 -101t17 -121.5q0 -65 -17 -120.5t-47 -97t-70 -65t-85 -23.5t-85 23.5t-70 65t-47 97t-17 120.5zM133 293q0 -46 11.5 -86.5t31.5 -71t46.5 -48t56.5 -17.5t56 17.5t45.5 48t30.5 71t11 86.5t-11.5 89.5
t-31.5 77t-46.5 54t-56.5 20.5t-56 -20.5t-45.5 -54t-30.5 -77t-11 -89.5zM338 734q6 12 18 13t22 -5t15 -17.5t-2 -25.5q-17 -32 -47.5 -47.5t-63.5 -15t-63.5 15.5t-48.5 45q-9 15 -4 26t15 16.5t21.5 4.5t14.5 -10q12 -24 30.5 -34t36.5 -8.5t33.5 12.5t22.5 30z" />
    <glyph glyph-name="obreve" unicode="&#x14f;" 
d="M46 170q0 36 13.5 69t37.5 57.5t56 39t68 14.5t68 -14.5t56 -39t37.5 -57.5t13.5 -69t-13.5 -69t-37.5 -58t-56 -39.5t-68 -14.5t-68 14.5t-56 39.5t-37.5 58t-13.5 69zM119 169q0 -21 8 -40t22 -33.5t32 -23t39 -8.5t39 8.5t32 23t22 33.5t8 40t-8 40t-22 33t-32 22.5
t-39 8.5t-39 -8.5t-32 -22.5t-22 -33t-8 -40zM282 464q6 12 18 13t22 -5t15 -17.5t-2 -25.5q-17 -32 -47.5 -47.5t-63.5 -15t-63.5 15.5t-48.5 45q-9 15 -4 26t15 16.5t21.5 4.5t14.5 -10q12 -24 30.5 -34t36.5 -8.5t33.5 12.5t22.5 30z" />
    <glyph glyph-name="Ohungarumlaut" unicode="&#x150;" horiz-adv-x="556" 
d="M59 299q0 64 17 121.5t47 101t70 68.5t85 25t85 -25t70 -68.5t47 -101t17 -121.5q0 -65 -17 -120.5t-47 -97t-70 -65t-85 -23.5t-85 23.5t-70 65t-47 97t-17 120.5zM133 293q0 -46 11.5 -86.5t31.5 -71t46.5 -48t56.5 -17.5t56 17.5t45.5 48t30.5 71t11 86.5t-11.5 89.5
t-31.5 77t-46.5 54t-56.5 20.5t-56 -20.5t-45.5 -54t-30.5 -77t-11 -89.5zM215 768q15 11 29.5 7.5t24 -14t11 -23.5t-10.5 -22l-63 -70q-13 -14 -26.5 -11t-23 13t-12.5 23.5t5 21.5zM344 768q15 11 29.5 7.5t24 -14t11 -23.5t-10.5 -22l-63 -70q-13 -14 -26.5 -11t-23 13
t-12.5 23.5t5 21.5z" />
    <glyph glyph-name="ohungarumlaut" unicode="&#x151;" 
d="M46 170q0 36 13.5 69t37.5 57.5t56 39t68 14.5t68 -14.5t56 -39t37.5 -57.5t13.5 -69t-13.5 -69t-37.5 -58t-56 -39.5t-68 -14.5t-68 14.5t-56 39.5t-37.5 58t-13.5 69zM119 169q0 -21 8 -40t22 -33.5t32 -23t39 -8.5t39 8.5t32 23t22 33.5t8 40t-8 40t-22 33t-32 22.5
t-39 8.5t-39 -8.5t-32 -22.5t-22 -33t-8 -40zM159 498q15 11 29.5 7.5t24 -14t11 -23.5t-10.5 -22l-63 -70q-13 -14 -26.5 -11t-23 13t-12.5 23.5t5 21.5zM288 498q15 11 29.5 7.5t24 -14t11 -23.5t-10.5 -22l-63 -70q-13 -14 -26.5 -11t-23 13t-12.5 23.5t5 21.5z" />
    <glyph glyph-name="OE" unicode="&#x152;" horiz-adv-x="670" 
d="M592 -13q-107 -1 -167 -1.5t-91 0t-41.5 1t-18.5 1.5q-56 0 -98.5 27t-70.5 71.5t-41 101.5t-11 116t19 115.5t49.5 100.5t81 71t113.5 26l269 -2q19 0 26.5 -11.5t6.5 -25.5t-8.5 -25.5t-19.5 -11.5l-261 -3v-188l173 -1q19 0 26.5 -11.5t6.5 -25.5t-8.5 -25.5
t-19.5 -11.5l-177 -3l1 -209l256 -2q19 0 26.5 -11.5t6.5 -25.5t-8.5 -25.5t-19.5 -11.5zM129 288q0 -42 10 -80t27 -67.5t40.5 -49t49.5 -24.5l-6 459q-26 -7 -48 -29.5t-38 -55t-25.5 -72t-9.5 -81.5z" />
    <glyph glyph-name="oe" unicode="&#x153;" horiz-adv-x="637" 
d="M512 102q10 11 25 11t27 -7.5t16.5 -20t-6.5 -26.5q-27 -33 -60 -50.5t-67.5 -21.5t-68 5t-61.5 29q-21 -16 -47 -25.5t-55 -9.5q-36 0 -68 14.5t-56 39.5t-37.5 58t-13.5 69t13.5 69t37.5 57.5t56 39t68 14.5q28 0 53.5 -9t46.5 -25q22 17 48.5 26.5t55.5 10.5
q31 1 59.5 -8t51 -26t37.5 -42t20 -56q5 -34 -10.5 -53.5t-68.5 -19.5l-189 1q6 -31 26.5 -54t48 -31.5t59 0.5t59.5 41zM214 61q27 0 53 16q-23 40 -23 93q0 23 5.5 44t15.5 40q-24 16 -51 16q-21 0 -39 -8.5t-32 -22.5t-22 -33t-8 -40t8 -40t22 -33.5t32 -23t39 -8.5z
M418 275q-29 -1 -52 -16.5t-36 -40.5l184 -2q-5 19 -15 30.5t-23 18t-28 8.5t-30 2z" />
    <glyph glyph-name="Racute" unicode="&#x154;" horiz-adv-x="484" 
d="M136 8q-6 -11 -18 -16t-24 -4.5t-21.5 6t-9.5 15.5l2 522q0 38 21 61t55 24h41t56 -4t61 -13.5t56 -28t41.5 -48t17.5 -73.5q0 -24 -7.5 -46.5t-20 -41.5t-29.5 -34t-35 -25l104 -278q4 -14 -7.5 -22.5t-27 -11t-30 1t-15.5 12.5l-104 284q-32 -8 -62 -6.5t-44 4.5v-278z
M342 451q0 20 -15.5 39.5t-42.5 33t-65 18.5t-83 -3v-181q27 -3 62.5 -2.5t67.5 9.5t54 29.5t22 56.5zM243 768q15 11 29.5 8.5t23.5 -12t10.5 -23t-9.5 -25.5l-63 -70q-13 -14 -26.5 -11t-23 13t-12.5 23.5t5 21.5z" />
    <glyph glyph-name="racute" unicode="&#x155;" horiz-adv-x="404" 
d="M302 237q-15 14 -33.5 25t-39.5 11t-39 -8.5t-32 -23t-22 -33.5t-8 -40v-142q-1 -16 -12 -26.5t-24.5 -12t-26 6.5t-15.5 29l1 301q0 19 11.5 26.5t25.5 6.5t25.5 -8.5t11.5 -19.5l1 -16q22 17 47.5 26t54.5 9q42 0 77 -17.5t56 -50.5q6 -10 3 -23t-12 -22t-22 -10.5
t-28 12.5zM229 506q15 11 29.5 8.5t23.5 -12t10.5 -23t-9.5 -25.5l-63 -70q-13 -14 -26.5 -11t-23 13t-12.5 23.5t5 21.5z" />
    <glyph glyph-name="uni0156" unicode="&#x156;" horiz-adv-x="484" 
d="M136 8q-6 -11 -18 -16t-24 -4.5t-21.5 6t-9.5 15.5l2 522q0 38 21 61t55 24h41t56 -4t61 -13.5t56 -28t41.5 -48t17.5 -73.5q0 -24 -7.5 -46.5t-20 -41.5t-29.5 -34t-35 -25l104 -278q4 -14 -7.5 -22.5t-27 -11t-30 1t-15.5 12.5l-104 284q-32 -8 -62 -6.5t-44 4.5v-278z
M342 451q0 20 -15.5 39.5t-42.5 33t-65 18.5t-83 -3v-181q27 -3 62.5 -2.5t67.5 9.5t54 29.5t22 56.5zM192 -51q-10 9 -7 21.5t13 21t23.5 10t25.5 -11.5q13 -14 21.5 -37t9.5 -49.5t-7.5 -55t-30.5 -52.5q-12 -13 -26.5 -14t-25 5.5t-14.5 18t5 22.5q16 14 23.5 32t7.5 35
t-5 31.5t-13 22.5z" />
    <glyph glyph-name="uni0157" unicode="&#x157;" horiz-adv-x="404" 
d="M302 237q-15 14 -33.5 25t-39.5 11t-39 -8.5t-32 -23t-22 -33.5t-8 -40v-142q-1 -16 -12 -26.5t-24.5 -12t-26 6.5t-15.5 29l1 301q0 19 11.5 26.5t25.5 6.5t25.5 -8.5t11.5 -19.5l1 -16q22 17 47.5 26t54.5 9q42 0 77 -17.5t56 -50.5q6 -10 3 -23t-12 -22t-22 -10.5
t-28 12.5zM174 -59q-10 9 -7 21.5t13 21t23.5 10t25.5 -11.5q13 -14 21.5 -37t9.5 -49.5t-7.5 -55t-30.5 -52.5q-12 -13 -26.5 -14t-25 5.5t-14.5 18t5 22.5q16 14 23.5 32t7.5 35t-5 31.5t-13 22.5z" />
    <glyph glyph-name="Rcaron" unicode="&#x158;" horiz-adv-x="484" 
d="M136 8q-6 -11 -18 -16t-24 -4.5t-21.5 6t-9.5 15.5l2 522q0 38 21 61t55 24h41t56 -4t61 -13.5t56 -28t41.5 -48t17.5 -73.5q0 -24 -7.5 -46.5t-20 -41.5t-29.5 -34t-35 -25l104 -278q4 -14 -7.5 -22.5t-27 -11t-30 1t-15.5 12.5l-104 284q-32 -8 -62 -6.5t-44 4.5v-278z
M342 451q0 20 -15.5 39.5t-42.5 33t-65 18.5t-83 -3v-181q27 -3 62.5 -2.5t67.5 9.5t54 29.5t22 56.5zM282 653q-9 -12 -20.5 -17t-23 -4.5t-21.5 6.5t-17 15l-47 69q-4 10 1 21t14 17.5t20.5 6t22.5 -12.5l31 -43l29 42q7 12 19 12.5t22 -5t16 -15.5t2 -20z" />
    <glyph glyph-name="rcaron" unicode="&#x159;" horiz-adv-x="404" 
d="M302 237q-15 14 -33.5 25t-39.5 11t-39 -8.5t-32 -23t-22 -33.5t-8 -40v-142q-1 -16 -12 -26.5t-24.5 -12t-26 6.5t-15.5 29l1 301q0 19 11.5 26.5t25.5 6.5t25.5 -8.5t11.5 -19.5l1 -16q22 17 47.5 26t54.5 9q42 0 77 -17.5t56 -50.5q6 -10 3 -23t-12 -22t-22 -10.5
t-28 12.5zM274 400q-9 -12 -20.5 -17t-23 -4.5t-21.5 6.5t-17 15l-47 69q-4 10 1 21t14 17.5t20.5 6t22.5 -12.5l31 -43l29 42q7 12 19 12.5t22 -5t16 -15.5t2 -20z" />
    <glyph glyph-name="Sacute" unicode="&#x15a;" horiz-adv-x="469" 
d="M403 485q6 -15 -2 -26t-21 -15.5t-26 -2t-16 16.5q-7 29 -21.5 46t-30.5 26t-31 11.5t-22 3.5q-25 2 -46 -4.5t-36 -18t-24 -26.5t-10 -30q-3 -32 8 -52.5t32.5 -34.5t51 -25t61.5 -24q31 -13 61.5 -28.5t53 -38t34 -54.5t6.5 -77q-5 -47 -28 -79.5t-56.5 -51t-73 -24
t-77.5 2.5q-51 10 -91.5 40.5t-53.5 81.5q-1 18 9.5 30t23.5 16.5t25 0t14 -18.5q5 -36 34 -55t65 -24q23 -3 45 0.5t40 14.5t30.5 28.5t16.5 43.5q4 28 -4 48.5t-25 35.5t-41 26t-51 22q-34 13 -68.5 28t-61.5 37t-42.5 54.5t-10.5 80.5q4 39 22 67.5t45 47t59.5 27
t64.5 6.5q19 -1 43 -7.5t48 -21.5t44.5 -40t32.5 -64zM236 768q15 11 29.5 8.5t23.5 -12t10.5 -23t-9.5 -25.5l-63 -70q-13 -14 -26.5 -11t-23 13t-12.5 23.5t5 21.5z" />
    <glyph glyph-name="sacute" unicode="&#x15b;" horiz-adv-x="387" 
d="M344 278q7 -14 0 -25.5t-20 -17t-26 -3t-17 16.5q-12 20 -32.5 29.5t-35.5 11.5q-26 4 -49 -8t-27 -28q-3 -16 2.5 -25.5t16.5 -15.5t27 -10t34 -7q26 -5 51 -12.5t44 -21t30 -34.5t8 -54q-2 -27 -17.5 -46.5t-38 -31t-50 -15.5t-54.5 -1q-24 3 -47 11.5t-42.5 22.5
t-34 34t-21.5 46q-2 18 7.5 30t22.5 16.5t25 0.5t15 -18q8 -42 34 -57t54 -17q27 -2 48.5 6.5t23.5 22.5q4 26 -15.5 37t-49.5 17q-23 5 -49 10.5t-48 17t-36 32.5t-14 56q0 28 12.5 49t33 35.5t47 20.5t54.5 4q38 -3 74.5 -22t59.5 -57zM213 512q15 11 29.5 8.5t23.5 -12
t10.5 -23t-9.5 -25.5l-63 -70q-13 -14 -26.5 -11t-23 13t-12.5 23.5t5 21.5z" />
    <glyph glyph-name="Scircumflex" unicode="&#x15c;" horiz-adv-x="469" 
d="M403 485q6 -15 -2 -26t-21 -15.5t-26 -2t-16 16.5q-7 29 -21.5 46t-30.5 26t-31 11.5t-22 3.5q-25 2 -46 -4.5t-36 -18t-24 -26.5t-10 -30q-3 -32 8 -52.5t32.5 -34.5t51 -25t61.5 -24q31 -13 61.5 -28.5t53 -38t34 -54.5t6.5 -77q-5 -47 -28 -79.5t-56.5 -51t-73 -24
t-77.5 2.5q-51 10 -91.5 40.5t-53.5 81.5q-1 18 9.5 30t23.5 16.5t25 0t14 -18.5q5 -36 34 -55t65 -24q23 -3 45 0.5t40 14.5t30.5 28.5t16.5 43.5q4 28 -4 48.5t-25 35.5t-41 26t-51 22q-34 13 -68.5 28t-61.5 37t-42.5 54.5t-10.5 80.5q4 39 22 67.5t45 47t59.5 27
t64.5 6.5q19 -1 43 -7.5t48 -21.5t44.5 -40t32.5 -64zM194 746q9 12 20.5 17t23 4.5t21.5 -6.5t17 -15l47 -69q4 -10 -1 -21t-14 -17.5t-21 -6t-22 12.5l-31 43l-29 -42q-8 -12 -19.5 -12.5t-21.5 5t-16 15.5t-2 20z" />
    <glyph glyph-name="scircumflex" unicode="&#x15d;" horiz-adv-x="387" 
d="M344 278q7 -14 0 -25.5t-20 -17t-26 -3t-17 16.5q-12 20 -32.5 29.5t-35.5 11.5q-26 4 -49 -8t-27 -28q-3 -16 2.5 -25.5t16.5 -15.5t27 -10t34 -7q26 -5 51 -12.5t44 -21t30 -34.5t8 -54q-2 -27 -17.5 -46.5t-38 -31t-50 -15.5t-54.5 -1q-24 3 -47 11.5t-42.5 22.5
t-34 34t-21.5 46q-2 18 7.5 30t22.5 16.5t25 0.5t15 -18q8 -42 34 -57t54 -17q27 -2 48.5 6.5t23.5 22.5q4 26 -15.5 37t-49.5 17q-23 5 -49 10.5t-48 17t-36 32.5t-14 56q0 28 12.5 49t33 35.5t47 20.5t54.5 4q38 -3 74.5 -22t59.5 -57zM153 476q9 12 20.5 17t23 4.5
t21.5 -6.5t17 -15l47 -69q4 -10 -1 -21t-14 -17.5t-21 -6t-22 12.5l-31 43l-29 -42q-8 -12 -19.5 -12.5t-21.5 5t-16 15.5t-2 20z" />
    <glyph glyph-name="Scedilla" unicode="&#x15e;" horiz-adv-x="469" 
d="M403 485q6 -15 -2 -26t-21 -15.5t-26 -2t-16 16.5q-7 29 -21.5 46t-30.5 26t-31 11.5t-22 3.5q-25 2 -46 -4.5t-36 -18t-24 -26.5t-10 -30q-3 -32 8 -52.5t32.5 -34.5t51 -25t61.5 -24q31 -13 61.5 -28.5t53 -38t34 -54.5t6.5 -77q-5 -47 -28 -79.5t-56.5 -51t-73 -24
t-77.5 2.5q-51 10 -91.5 40.5t-53.5 81.5q-1 18 9.5 30t23.5 16.5t25 0t14 -18.5q5 -36 34 -55t65 -24q23 -3 45 0.5t40 14.5t30.5 28.5t16.5 43.5q4 28 -4 48.5t-25 35.5t-41 26t-51 22q-34 13 -68.5 28t-61.5 37t-42.5 54.5t-10.5 80.5q4 39 22 67.5t45 47t59.5 27
t64.5 6.5q19 -1 43 -7.5t48 -21.5t44.5 -40t32.5 -64zM237 -12l2 -25q58 -2 86 -24.5t28 -57.5q0 -52 -33.5 -73.5t-87.5 -20.5q-20 0 -30.5 11t-12 24t7 24.5t28.5 12.5q9 0 19.5 0.5t18.5 2.5t13 6.5t4 13.5q-2 11 -11 14t-39 2q-4 0 -14.5 1t-20 9.5t-16 26.5t-1.5 53h59
z" />
    <glyph glyph-name="scedilla" unicode="&#x15f;" horiz-adv-x="387" 
d="M344 278q7 -14 0 -25.5t-20 -17t-26 -3t-17 16.5q-12 20 -32.5 29.5t-35.5 11.5q-26 4 -49 -8t-27 -28q-3 -16 2.5 -25.5t16.5 -15.5t27 -10t34 -7q26 -5 51 -12.5t44 -21t30 -34.5t8 -54q-2 -27 -17.5 -46.5t-38 -31t-50 -15.5t-54.5 -1q-24 3 -47 11.5t-42.5 22.5
t-34 34t-21.5 46q-2 18 7.5 30t22.5 16.5t25 0.5t15 -18q8 -42 34 -57t54 -17q27 -2 48.5 6.5t23.5 22.5q4 26 -15.5 37t-49.5 17q-23 5 -49 10.5t-48 17t-36 32.5t-14 56q0 28 12.5 49t33 35.5t47 20.5t54.5 4q38 -3 74.5 -22t59.5 -57zM217 -6l2 -25q58 -2 86 -24.5
t28 -57.5q0 -52 -33.5 -73.5t-87.5 -20.5q-20 0 -30.5 11t-12 24t7 24.5t28.5 12.5q9 0 19.5 0.5t18.5 2.5t13 6.5t4 13.5q-2 11 -11 14t-39 2q-4 0 -14.5 1t-20 9.5t-16 26.5t-1.5 53h59z" />
    <glyph glyph-name="Scaron" unicode="&#x160;" horiz-adv-x="469" 
d="M403 485q6 -15 -2 -26t-21 -15.5t-26 -2t-16 16.5q-7 29 -21.5 46t-30.5 26t-31 11.5t-22 3.5q-25 2 -46 -4.5t-36 -18t-24 -26.5t-10 -30q-3 -32 8 -52.5t32.5 -34.5t51 -25t61.5 -24q31 -13 61.5 -28.5t53 -38t34 -54.5t6.5 -77q-5 -47 -28 -79.5t-56.5 -51t-73 -24
t-77.5 2.5q-51 10 -91.5 40.5t-53.5 81.5q-1 18 9.5 30t23.5 16.5t25 0t14 -18.5q5 -36 34 -55t65 -24q23 -3 45 0.5t40 14.5t30.5 28.5t16.5 43.5q4 28 -4 48.5t-25 35.5t-41 26t-51 22q-34 13 -68.5 28t-61.5 37t-42.5 54.5t-10.5 80.5q4 39 22 67.5t45 47t59.5 27
t64.5 6.5q19 -1 43 -7.5t48 -21.5t44.5 -40t32.5 -64zM275 653q-9 -12 -20.5 -17t-23 -4.5t-21.5 6.5t-17 15l-47 69q-4 10 1 21t14 17.5t20.5 6t22.5 -12.5l31 -43l29 42q7 12 19 12.5t22 -5t16 -15.5t2 -20z" />
    <glyph glyph-name="scaron" unicode="&#x161;" horiz-adv-x="387" 
d="M344 278q7 -14 0 -25.5t-20 -17t-26 -3t-17 16.5q-12 20 -32.5 29.5t-35.5 11.5q-26 4 -49 -8t-27 -28q-3 -16 2.5 -25.5t16.5 -15.5t27 -10t34 -7q26 -5 51 -12.5t44 -21t30 -34.5t8 -54q-2 -27 -17.5 -46.5t-38 -31t-50 -15.5t-54.5 -1q-24 3 -47 11.5t-42.5 22.5
t-34 34t-21.5 46q-2 18 7.5 30t22.5 16.5t25 0.5t15 -18q8 -42 34 -57t54 -17q27 -2 48.5 6.5t23.5 22.5q4 26 -15.5 37t-49.5 17q-23 5 -49 10.5t-48 17t-36 32.5t-14 56q0 28 12.5 49t33 35.5t47 20.5t54.5 4q38 -3 74.5 -22t59.5 -57zM240 412q-9 -12 -20.5 -17t-23 -4.5
t-21.5 6.5t-17 15l-47 69q-4 10 1 21t14 17.5t20.5 6t22.5 -12.5l31 -43l29 42q7 12 19 12.5t22 -5t16 -15.5t2 -20z" />
    <glyph glyph-name="uni0162" unicode="&#x162;" horiz-adv-x="542" 
d="M474 611q18 -3 23.5 -16t2.5 -26t-13.5 -23t-24.5 -7l-156 -1l2 -519q0 -19 -11.5 -26.5t-25.5 -6.5t-25.5 8.5t-11.5 19.5l-7 524l-147 -1q-19 0 -26.5 11.5t-6.5 25.5t8.5 25.5t19.5 11.5h399zM243 -86q-10 9 -7 21.5t13 21t23.5 10t25.5 -11.5q13 -14 21.5 -37
t9.5 -49.5t-7.5 -55t-30.5 -52.5q-12 -13 -26.5 -14t-25 5.5t-14.5 18t5 22.5q16 14 23.5 32t7.5 35t-5 31.5t-13 22.5z" />
    <glyph glyph-name="uni0163" unicode="&#x163;" horiz-adv-x="387" 
d="M154 383l-2 158q3 18 17 24.5t28.5 5t25.5 -10.5t8 -21v-156h88q18 -3 25.5 -16t5.5 -26.5t-13 -23.5t-30 -8h-75l1 -277q0 -19 -12 -26.5t-26 -6.5t-26 8.5t-12 19.5l-2 282h-83q-19 0 -26.5 11.5t-6.5 25.5t8.5 25.5t19.5 11.5h87zM160 -85q-10 9 -7 21.5t13 21
t23.5 10t25.5 -11.5q13 -14 21.5 -37t9.5 -49.5t-7.5 -55t-30.5 -52.5q-12 -13 -26.5 -14t-25 5.5t-14.5 18t5 22.5q16 14 23.5 32t7.5 35t-5 31.5t-13 22.5z" />
    <glyph glyph-name="Tcaron" unicode="&#x164;" horiz-adv-x="542" 
d="M474 611q18 -3 23.5 -16t2.5 -26t-13.5 -23t-24.5 -7l-156 -1l2 -519q0 -19 -11.5 -26.5t-25.5 -6.5t-25.5 8.5t-11.5 19.5l-7 524l-147 -1q-19 0 -26.5 11.5t-6.5 25.5t8.5 25.5t19.5 11.5h399zM311 653q-9 -12 -20.5 -17t-23 -4.5t-21.5 6.5t-17 15l-47 69q-4 10 1 21
t14 17.5t20.5 6t22.5 -12.5l31 -43l29 42q7 12 19 12.5t22 -5t16 -15.5t2 -20z" />
    <glyph glyph-name="tcaron" unicode="&#x165;" horiz-adv-x="525" 
d="M167 387l-2 158q3 18 17 24.5t28.5 5t25.5 -10.5t8 -21v-156h88q18 -3 25.5 -16t5.5 -26.5t-13 -23.5t-30 -8h-75l1 -277q0 -19 -12 -26.5t-26 -6.5t-26 8.5t-12 19.5l-2 282h-83q-19 0 -26.5 11.5t-6.5 25.5t8.5 25.5t19.5 11.5h87zM394 377q-10 9 -7 21.5t13 21
t23.5 10t25.5 -11.5q13 -14 21.5 -37t9.5 -49.5t-7.5 -55t-30.5 -52.5q-12 -13 -26.5 -14t-25 5.5t-14.5 18t5 22.5q16 14 23.5 32t7.5 35t-5 31.5t-13 22.5z" />
    <glyph glyph-name="Tbar" unicode="&#x166;" horiz-adv-x="542" 
d="M474 611q18 -3 23.5 -16t2.5 -26t-13.5 -23t-24.5 -7l-156 -1l2 -519q0 -19 -11.5 -26.5t-25.5 -6.5t-25.5 8.5t-11.5 19.5l-7 524l-147 -1q-19 0 -26.5 11.5t-6.5 25.5t8.5 25.5t19.5 11.5h399zM393 500q18 -3 25.5 -16.5t6.5 -27t-10 -24t-23 -7.5l-241 -2
q-19 0 -26.5 11.5t-6.5 25.5t8.5 25.5t19.5 11.5z" />
    <glyph glyph-name="tbar" unicode="&#x167;" horiz-adv-x="399" 
d="M162 380l-2 158q3 18 17 24.5t28.5 5t25.5 -10.5t8 -21v-156h88q18 -3 25.5 -16t5.5 -26.5t-13 -23.5t-30 -8h-75l1 -277q0 -19 -12 -26.5t-26 -6.5t-26 8.5t-12 19.5l-2 282h-83q-19 0 -26.5 11.5t-6.5 25.5t8.5 25.5t19.5 11.5h87zM322 262q18 -3 25.5 -16.5t6.5 -27
t-10 -24t-23 -7.5l-241 -2q-19 0 -26.5 11.5t-6.5 25.5t8.5 25.5t19.5 11.5z" />
    <glyph glyph-name="Utilde" unicode="&#x168;" horiz-adv-x="496" 
d="M132 588q-7 -122 -5 -207.5t7 -143.5q5 -64 19 -98.5t30.5 -51t32 -20t22.5 -3.5q14 0 32.5 6.5t37 23t33.5 43.5t23 68l6 372q1 16 12 26.5t24.5 12t26 -6.5t15.5 -29l-7 -564q0 -19 -11.5 -26.5t-25.5 -6.5t-25.5 8.5t-11.5 19.5l-1 46q-17 -24 -47 -45.5t-68 -22.5
q-65 -1 -103.5 25.5t-59 69.5t-27.5 96.5t-9 107.5q-2 58 -2.5 131t4.5 164q1 19 13.5 26.5t27 6.5t26.5 -8.5t11 -19.5zM348 769q4 13 15.5 18t23.5 2.5t20.5 -12.5t7.5 -27q-4 -42 -29.5 -68.5t-57.5 -28.5q-26 -2 -43.5 10t-32.5 26t-30 25t-34 8q-15 -2 -21 -15t-13 -35
q-6 -17 -18.5 -20t-24 3t-18 19.5t-0.5 29.5q14 35 35 60t56 24q29 0 47.5 -11t32 -23.5t26.5 -23t31 -10.5q16 0 21 14t6 35z" />
    <glyph glyph-name="utilde" unicode="&#x169;" horiz-adv-x="423" 
d="M131 327q-7 -92 -2.5 -143.5t15 -77t24.5 -31.5t26 -6q21 0 39 8.5t32 23t22 33.5t8 40v142q1 16 12 26.5t24.5 12t26 -6.5t15.5 -29l-1 -301q0 -19 -11.5 -26.5t-25.5 -6.5t-25.5 8.5t-11.5 19.5l-1 16q-22 -17 -47.5 -26t-54.5 -9q-52 0 -82.5 23t-45 65.5t-16.5 103.5
t2 136q1 19 13.5 26.5t27 6.5t26.5 -8.5t11 -19.5zM311 499q4 13 15.5 18t23.5 2.5t20.5 -12.5t7.5 -27q-4 -42 -29.5 -68.5t-57.5 -28.5q-26 -2 -43.5 10t-32.5 26t-30 25t-34 8q-15 -2 -21 -15t-13 -35q-6 -17 -18.5 -20t-24 3t-18 19.5t-0.5 29.5q14 35 35 60t56 24
q29 0 47.5 -11t32 -23.5t26.5 -23t31 -10.5q16 0 21 14t6 35z" />
    <glyph glyph-name="Umacron" unicode="&#x16a;" horiz-adv-x="496" 
d="M132 588q-7 -122 -5 -207.5t7 -143.5q5 -64 19 -98.5t30.5 -51t32 -20t22.5 -3.5q14 0 32.5 6.5t37 23t33.5 43.5t23 68l6 372q1 16 12 26.5t24.5 12t26 -6.5t15.5 -29l-7 -564q0 -19 -11.5 -26.5t-25.5 -6.5t-25.5 8.5t-11.5 19.5l-1 46q-17 -24 -47 -45.5t-68 -22.5
q-65 -1 -103.5 25.5t-59 69.5t-27.5 96.5t-9 107.5q-2 58 -2.5 131t4.5 164q1 19 13.5 26.5t27 6.5t26.5 -8.5t11 -19.5zM370 714q18 -3 25.5 -16.5t6.5 -27t-10 -24t-23 -7.5l-241 -2q-19 0 -26.5 11.5t-6.5 25.5t8.5 25.5t19.5 11.5z" />
    <glyph glyph-name="umacron" unicode="&#x16b;" horiz-adv-x="423" 
d="M131 327q-7 -92 -2.5 -143.5t15 -77t24.5 -31.5t26 -6q21 0 39 8.5t32 23t22 33.5t8 40v142q1 16 12 26.5t24.5 12t26 -6.5t15.5 -29l-1 -301q0 -19 -11.5 -26.5t-25.5 -6.5t-25.5 8.5t-11.5 19.5l-1 16q-22 -17 -47.5 -26t-54.5 -9q-52 0 -82.5 23t-45 65.5t-16.5 103.5
t2 136q1 19 13.5 26.5t27 6.5t26.5 -8.5t11 -19.5zM337 480q18 -3 25.5 -16.5t6.5 -27t-10 -24t-23 -7.5l-241 -2q-19 0 -26.5 11.5t-6.5 25.5t8.5 25.5t19.5 11.5z" />
    <glyph glyph-name="Ubreve" unicode="&#x16c;" horiz-adv-x="496" 
d="M132 588q-7 -122 -5 -207.5t7 -143.5q5 -64 19 -98.5t30.5 -51t32 -20t22.5 -3.5q14 0 32.5 6.5t37 23t33.5 43.5t23 68l6 372q1 16 12 26.5t24.5 12t26 -6.5t15.5 -29l-7 -564q0 -19 -11.5 -26.5t-25.5 -6.5t-25.5 8.5t-11.5 19.5l-1 46q-17 -24 -47 -45.5t-68 -22.5
q-65 -1 -103.5 25.5t-59 69.5t-27.5 96.5t-9 107.5q-2 58 -2.5 131t4.5 164q1 19 13.5 26.5t27 6.5t26.5 -8.5t11 -19.5zM308 734q6 12 18 13t22 -5t15 -17.5t-2 -25.5q-17 -32 -47.5 -47.5t-63.5 -15t-63.5 15.5t-48.5 45q-9 15 -4 26t15 16.5t21.5 4.5t14.5 -10
q12 -24 30.5 -34t36.5 -8.5t33.5 12.5t22.5 30z" />
    <glyph glyph-name="ubreve" unicode="&#x16d;" horiz-adv-x="423" 
d="M131 327q-7 -92 -2.5 -143.5t15 -77t24.5 -31.5t26 -6q21 0 39 8.5t32 23t22 33.5t8 40v142q1 16 12 26.5t24.5 12t26 -6.5t15.5 -29l-1 -301q0 -19 -11.5 -26.5t-25.5 -6.5t-25.5 8.5t-11.5 19.5l-1 16q-22 -17 -47.5 -26t-54.5 -9q-52 0 -82.5 23t-45 65.5t-16.5 103.5
t2 136q1 19 13.5 26.5t27 6.5t26.5 -8.5t11 -19.5zM272 464q6 12 18 13t22 -5t15 -17.5t-2 -25.5q-17 -32 -47.5 -47.5t-63.5 -15t-63.5 15.5t-48.5 45q-9 15 -4 26t15 16.5t21.5 4.5t14.5 -10q12 -24 30.5 -34t36.5 -8.5t33.5 12.5t22.5 30z" />
    <glyph glyph-name="Uring" unicode="&#x16e;" horiz-adv-x="496" 
d="M132 588q-7 -122 -5 -207.5t7 -143.5q5 -64 19 -98.5t30.5 -51t32 -20t22.5 -3.5q14 0 32.5 6.5t37 23t33.5 43.5t23 68l6 372q1 16 12 26.5t24.5 12t26 -6.5t15.5 -29l-7 -564q0 -19 -11.5 -26.5t-25.5 -6.5t-25.5 8.5t-11.5 19.5l-1 46q-17 -24 -47 -45.5t-68 -22.5
q-65 -1 -103.5 25.5t-59 69.5t-27.5 96.5t-9 107.5q-2 58 -2.5 131t4.5 164q1 19 13.5 26.5t27 6.5t26.5 -8.5t11 -19.5zM228 695q0 -19 19 -19q8 0 14 5.5t6 13.5t-6 14t-14 6t-13.5 -6t-5.5 -14zM183 695q0 27 18.5 46t45.5 19t46 -19t19 -46t-19 -45.5t-46 -18.5
t-45.5 18.5t-18.5 45.5z" />
    <glyph glyph-name="uring" unicode="&#x16f;" horiz-adv-x="423" 
d="M131 327q-7 -92 -2.5 -143.5t15 -77t24.5 -31.5t26 -6q21 0 39 8.5t32 23t22 33.5t8 40v142q1 16 12 26.5t24.5 12t26 -6.5t15.5 -29l-1 -301q0 -19 -11.5 -26.5t-25.5 -6.5t-25.5 8.5t-11.5 19.5l-1 16q-22 -17 -47.5 -26t-54.5 -9q-52 0 -82.5 23t-45 65.5t-16.5 103.5
t2 136q1 19 13.5 26.5t27 6.5t26.5 -8.5t11 -19.5zM192 425q0 -19 19 -19q8 0 14 5.5t6 13.5t-6 14t-14 6t-13.5 -6t-5.5 -14zM147 425q0 27 18.5 46t45.5 19t46 -19t19 -46t-19 -45.5t-46 -18.5t-45.5 18.5t-18.5 45.5z" />
    <glyph glyph-name="Uhungarumlaut" unicode="&#x170;" horiz-adv-x="496" 
d="M132 588q-7 -122 -5 -207.5t7 -143.5q5 -64 19 -98.5t30.5 -51t32 -20t22.5 -3.5q14 0 32.5 6.5t37 23t33.5 43.5t23 68l6 372q1 16 12 26.5t24.5 12t26 -6.5t15.5 -29l-7 -564q0 -19 -11.5 -26.5t-25.5 -6.5t-25.5 8.5t-11.5 19.5l-1 46q-17 -24 -47 -45.5t-68 -22.5
q-65 -1 -103.5 25.5t-59 69.5t-27.5 96.5t-9 107.5q-2 58 -2.5 131t4.5 164q1 19 13.5 26.5t27 6.5t26.5 -8.5t11 -19.5zM211 748q15 11 29.5 7.5t24 -14t11 -23.5t-10.5 -22l-63 -70q-13 -14 -26.5 -11t-23 13t-12.5 23.5t5 21.5zM340 748q15 11 29.5 7.5t24 -14t11 -23.5
t-10.5 -22l-63 -70q-13 -14 -26.5 -11t-23 13t-12.5 23.5t5 21.5z" />
    <glyph glyph-name="uhungarumlaut" unicode="&#x171;" horiz-adv-x="423" 
d="M131 327q-7 -92 -2.5 -143.5t15 -77t24.5 -31.5t26 -6q21 0 39 8.5t32 23t22 33.5t8 40v142q1 16 12 26.5t24.5 12t26 -6.5t15.5 -29l-1 -301q0 -19 -11.5 -26.5t-25.5 -6.5t-25.5 8.5t-11.5 19.5l-1 16q-22 -17 -47.5 -26t-54.5 -9q-52 0 -82.5 23t-45 65.5t-16.5 103.5
t2 136q1 19 13.5 26.5t27 6.5t26.5 -8.5t11 -19.5zM188 505q15 11 29.5 7.5t24 -14t11 -23.5t-10.5 -22l-63 -70q-13 -14 -26.5 -11t-23 13t-12.5 23.5t5 21.5zM317 505q15 11 29.5 7.5t24 -14t11 -23.5t-10.5 -22l-63 -70q-13 -14 -26.5 -11t-23 13t-12.5 23.5t5 21.5z" />
    <glyph glyph-name="Uogonek" unicode="&#x172;" horiz-adv-x="496" 
d="M132 588q-7 -122 -5 -207.5t7 -143.5q5 -64 19 -98.5t30.5 -51t32 -20t22.5 -3.5q14 0 32.5 6.5t37 23t33.5 43.5t23 68l6 372q1 16 12 26.5t24.5 12t26 -6.5t15.5 -29l-7 -564q0 -19 -11.5 -26.5t-25.5 -6.5t-25.5 8.5t-11.5 19.5l-1 46q-17 -24 -47 -45.5t-68 -22.5
q-65 -1 -103.5 25.5t-59 69.5t-27.5 96.5t-9 107.5q-2 58 -2.5 131t4.5 164q1 19 13.5 26.5t27 6.5t26.5 -8.5t11 -19.5zM422 -17q-8 -8 -13 -20.5t-5 -27.5t7 -31t24 -30q9 -11 5 -22.5t-14.5 -18t-25 -5.5t-26.5 14q-22 24 -30.5 50.5t-7.5 51t9.5 45.5t21.5 35
q12 13 25.5 11.5t23.5 -10t13 -21t-7 -21.5z" />
    <glyph glyph-name="uogonek" unicode="&#x173;" horiz-adv-x="423" 
d="M131 327q-7 -92 -2.5 -143.5t15 -77t24.5 -31.5t26 -6q21 0 39 8.5t32 23t22 33.5t8 40v142q1 16 12 26.5t24.5 12t26 -6.5t15.5 -29l-1 -301q0 -19 -11.5 -26.5t-25.5 -6.5t-25.5 8.5t-11.5 19.5l-1 16q-22 -17 -47.5 -26t-54.5 -9q-52 0 -82.5 23t-45 65.5t-16.5 103.5
t2 136q1 19 13.5 26.5t27 6.5t26.5 -8.5t11 -19.5zM366 -6q-8 -8 -13 -20.5t-5 -27.5t7 -31t24 -30q9 -11 5 -22.5t-14.5 -18t-25 -5.5t-26.5 14q-22 24 -30.5 50.5t-7.5 51t9.5 45.5t21.5 35q12 13 25.5 11.5t23.5 -10t13 -21t-7 -21.5z" />
    <glyph glyph-name="Wcircumflex" unicode="&#x174;" horiz-adv-x="830" 
d="M418 404l-107 -400q-8 -17 -20.5 -22.5t-24.5 -3t-22.5 10t-14.5 18.5l-179 555q-4 11 4 22t21 16.5t26.5 2.5t19.5 -20l149 -458l113 435q4 11 13.5 16.5t20.5 5.5t21 -5t15 -16l115 -435l147 458q6 17 19.5 20t26.5 -2.5t21 -16.5t4 -22l-177 -555q-4 -11 -14.5 -18.5
t-22.5 -10t-24.5 3t-20.5 22.5zM374 746q9 12 20.5 17t23 4.5t21.5 -6.5t17 -15l47 -69q4 -10 -1 -21t-14 -17.5t-21 -6t-22 12.5l-31 43l-29 -42q-8 -12 -19.5 -12.5t-21.5 5t-16 15.5t-2 20z" />
    <glyph glyph-name="wcircumflex" unicode="&#x175;" horiz-adv-x="616" 
d="M464 13q-8 -17 -20.5 -22.5t-24.5 -3t-22.5 10t-14.5 18.5l-73 189l-65 -190q-8 -17 -20.5 -22.5t-24.5 -3t-22.5 10t-14.5 18.5l-111 289q-4 11 4 22t21 16.5t26.5 2.5t19.5 -20l81 -202l69 194q5 13 15.5 20.5t22.5 8.5t23 -5.5t17 -21.5l73 -198l71 204q6 17 19.5 20
t26.5 -2.5t21 -16.5t4 -22zM274 518q9 12 20.5 17t23 4.5t21.5 -6.5t17 -15l47 -69q4 -10 -1 -21t-14 -17.5t-21 -6t-22 12.5l-31 43l-29 -42q-8 -12 -19.5 -12.5t-21.5 5t-16 15.5t-2 20z" />
    <glyph glyph-name="Ycircumflex" unicode="&#x176;" horiz-adv-x="460" 
d="M198 255q-2 4 -3 7l-157 307q-4 11 3.5 21.5t19.5 16t25.5 2.5t22.5 -19l130 -245l112 246q7 17 21 20t26.5 -2.5t20 -16.5t3.5 -22l-144 -309l-1 -251q0 -19 -11.5 -26.5t-25.5 -6.5t-25.5 8.5t-11.5 19.5zM189 746q9 12 20.5 17t23 4.5t21.5 -6.5t17 -15l47 -69
q4 -10 -1 -21t-14 -17.5t-21 -6t-22 12.5l-31 43l-29 -42q-8 -12 -19.5 -12.5t-21.5 5t-16 15.5t-2 20z" />
    <glyph glyph-name="ycircumflex" unicode="&#x177;" horiz-adv-x="458" 
d="M216 -1l-171 304q-4 18 5 29.5t22.5 16t27 1t18.5 -15.5l135 -232l84 234q10 16 24.5 18t27.5 -4.5t20 -18.5t2 -24l-175 -470q-6 -17 -19.5 -20t-26 3t-20.5 17t-4 22zM188 476q9 12 20.5 17t23 4.5t21.5 -6.5t17 -15l47 -69q4 -10 -1 -21t-14 -17.5t-21 -6t-22 12.5
l-31 43l-29 -42q-8 -12 -19.5 -12.5t-21.5 5t-16 15.5t-2 20z" />
    <glyph glyph-name="Ydieresis" unicode="&#x178;" horiz-adv-x="460" 
d="M198 255q-2 4 -3 7l-157 307q-4 11 3.5 21.5t19.5 16t25.5 2.5t22.5 -19l130 -245l112 246q7 17 21 20t26.5 -2.5t20 -16.5t3.5 -22l-144 -309l-1 -251q0 -19 -11.5 -26.5t-25.5 -6.5t-25.5 8.5t-11.5 19.5zM122 675q0 19 12.5 32t31.5 13t32 -13t13 -32t-13 -31.5
t-32 -12.5t-31.5 12.5t-12.5 31.5zM248 675q0 19 12.5 32t31.5 13t32 -13t13 -32t-13 -31.5t-32 -12.5t-31.5 12.5t-12.5 31.5z" />
    <glyph glyph-name="Zacute" unicode="&#x179;" horiz-adv-x="482" 
d="M84 -13q-17 0 -25 8.5t-9 22t4.5 28.5t16.5 28l261 462l-260 -2q-18 3 -25 16t-6 27t9.5 25t22.5 11h329q9 0 18 -5.5t14 -16.5t3 -28t-15 -39l-261 -461l248 -1q19 0 26.5 -11.5t6.5 -25.5t-8.5 -25.5t-19.5 -11.5zM242 768q15 11 29.5 8.5t23.5 -12t10.5 -23
t-9.5 -25.5l-63 -70q-13 -14 -26.5 -11t-23 13t-12.5 23.5t5 21.5z" />
    <glyph glyph-name="zacute" unicode="&#x17a;" horiz-adv-x="411" 
d="M84 -13q-17 0 -27 6t-13.5 16.5t0 23.5t14.5 26l194 218l-184 -2q-18 3 -25 16t-6 27t9.5 25t22.5 11h267q9 0 18.5 -8t14.5 -21t3.5 -29t-16.5 -31l-192 -202l177 -1q19 0 26.5 -11.5t6.5 -25.5t-8.5 -25.5t-19.5 -11.5zM202 517q15 11 29.5 8.5t23.5 -12t10.5 -23
t-9.5 -25.5l-63 -70q-13 -14 -26.5 -11t-23 13t-12.5 23.5t5 21.5z" />
    <glyph glyph-name="Zdotaccent" unicode="&#x17b;" horiz-adv-x="482" 
d="M84 -13q-17 0 -25 8.5t-9 22t4.5 28.5t16.5 28l261 462l-260 -2q-18 3 -25 16t-6 27t9.5 25t22.5 11h329q9 0 18 -5.5t14 -16.5t3 -28t-15 -39l-261 -461l248 -1q19 0 26.5 -11.5t6.5 -25.5t-8.5 -25.5t-19.5 -11.5zM196 684q0 19 12.5 32t31.5 13t32 -13t13 -32
t-13 -31.5t-32 -12.5t-31.5 12.5t-12.5 31.5z" />
    <glyph glyph-name="zdotaccent" unicode="&#x17c;" horiz-adv-x="411" 
d="M84 -13q-17 0 -27 6t-13.5 16.5t0 23.5t14.5 26l194 218l-184 -2q-18 3 -25 16t-6 27t9.5 25t22.5 11h267q9 0 18.5 -8t14.5 -21t3.5 -29t-16.5 -31l-192 -202l177 -1q19 0 26.5 -11.5t6.5 -25.5t-8.5 -25.5t-19.5 -11.5zM161 438q0 19 12.5 32t31.5 13t32 -13t13 -32
t-13 -31.5t-32 -12.5t-31.5 12.5t-12.5 31.5z" />
    <glyph glyph-name="Zcaron" unicode="&#x17d;" horiz-adv-x="482" 
d="M84 -13q-17 0 -25 8.5t-9 22t4.5 28.5t16.5 28l261 462l-260 -2q-18 3 -25 16t-6 27t9.5 25t22.5 11h329q9 0 18 -5.5t14 -16.5t3 -28t-15 -39l-261 -461l248 -1q19 0 26.5 -11.5t6.5 -25.5t-8.5 -25.5t-19.5 -11.5zM281 653q-9 -12 -20.5 -17t-23 -4.5t-21.5 6.5t-17 15
l-47 69q-4 10 1 21t14 17.5t20.5 6t22.5 -12.5l31 -43l29 42q7 12 19 12.5t22 -5t16 -15.5t2 -20z" />
    <glyph glyph-name="zcaron" unicode="&#x17e;" horiz-adv-x="411" 
d="M84 -13q-17 0 -27 6t-13.5 16.5t0 23.5t14.5 26l194 218l-184 -2q-18 3 -25 16t-6 27t9.5 25t22.5 11h267q9 0 18.5 -8t14.5 -21t3.5 -29t-16.5 -31l-192 -202l177 -1q19 0 26.5 -11.5t6.5 -25.5t-8.5 -25.5t-19.5 -11.5zM253 409q-9 -12 -20.5 -17t-23 -4.5t-21.5 6.5
t-17 15l-47 69q-4 10 1 21t14 17.5t20.5 6t22.5 -12.5l31 -43l29 42q7 12 19 12.5t22 -5t16 -15.5t2 -20z" />
    <glyph glyph-name="AEacute" unicode="&#x1fc;" horiz-adv-x="787" 
d="M436 -16q-9 0 -20 2t-20 6.5t-15 10.5t-6 15l-3 198l-140 2l-116 -203q-10 -17 -25 -17t-27 8t-18.5 21t0.5 24l315 542q9 11 17.5 16t17.5 7t18 1.5t20 -0.5l269 -2q19 0 26.5 -11.5t6.5 -25.5t-8.5 -25.5t-19.5 -11.5l-261 -3v-188l173 -1q19 0 26.5 -11.5t6.5 -25.5
t-8.5 -25.5t-19.5 -11.5l-177 -3l1 -209l256 -2q19 0 26.5 -11.5t6.5 -25.5t-8.5 -25.5t-19.5 -11.5zM271 293h100l-2 166zM549 779q15 11 29.5 8.5t23.5 -12t10.5 -23t-9.5 -25.5l-63 -70q-13 -14 -26.5 -11t-23 13t-12.5 23.5t5 21.5z" />
    <glyph glyph-name="aeacute" unicode="&#x1fd;" horiz-adv-x="630" 
d="M505 102q10 11 25 11t27 -7.5t16.5 -20t-6.5 -26.5q-26 -32 -58.5 -49.5t-66.5 -22t-67 3.5t-60 27q-22 -17 -47.5 -26t-54.5 -9q-36 0 -68 14.5t-56 39.5t-37.5 58t-13.5 69t13.5 69t37.5 57.5t56 39t68 14.5q26 0 50.5 -8.5t44.5 -22.5q22 17 48.5 26.5t55.5 10.5
q31 1 59.5 -8t51 -26t37.5 -42t20 -56q5 -34 -10.5 -53.5t-68.5 -19.5l-188 1v-7q8 -30 28.5 -51t48 -28.5t58 1.5t57.5 41zM111 163q0 -21 8 -40t22 -33.5t32 -23t39 -8.5q28 0 51 15q-12 20 -19 44t-7 53q0 46 21 85q-11 5 -22.5 8.5t-23.5 3.5q-21 0 -39 -8.5t-32 -22.5
t-22 -33t-8 -40zM411 275q-29 -1 -52 -16.5t-36 -40.5l184 -2q-5 19 -15 30.5t-23 18t-28 8.5t-30 2zM317 498q15 11 29.5 8.5t23.5 -12t10.5 -23t-9.5 -25.5l-63 -70q-13 -14 -26.5 -11t-23 13t-12.5 23.5t5 21.5z" />
    <glyph glyph-name="Oslashacute" unicode="&#x1fe;" horiz-adv-x="556" 
d="M59 299q0 64 17 121.5t47 101t70 68.5t85 25t85 -25t70 -68.5t47 -101t17 -121.5q0 -65 -17 -120.5t-47 -97t-70 -65t-85 -23.5t-85 23.5t-70 65t-47 97t-17 120.5zM133 293q0 -46 11.5 -86.5t31.5 -71t46.5 -48t56.5 -17.5t56 17.5t45.5 48t30.5 71t11 86.5t-11.5 89.5
t-31.5 77t-46.5 54t-56.5 20.5t-56 -20.5t-45.5 -54t-30.5 -77t-11 -89.5zM366 595q10 15 25 16t27 -5.5t19 -19t1 -24.5l-254 -553q-8 -17 -21.5 -19.5t-25.5 4t-19.5 18t-2.5 22.5zM279 768q15 11 29.5 8.5t23.5 -12t10.5 -23t-9.5 -25.5l-63 -70q-13 -14 -26.5 -11
t-23 13t-12.5 23.5t5 21.5z" />
    <glyph glyph-name="oslashacute" unicode="&#x1ff;" 
d="M315 332q10 15 25 16t27 -5.5t19 -19t1 -24.5l-239 -302q-8 -17 -21.5 -19.5t-25.5 4t-19.5 18t-2.5 22.5zM46 170q0 36 13.5 69t37.5 57.5t56 39t68 14.5t68 -14.5t56 -39t37.5 -57.5t13.5 -69t-13.5 -69t-37.5 -58t-56 -39.5t-68 -14.5t-68 14.5t-56 39.5t-37.5 58
t-13.5 69zM119 169q0 -21 8 -40t22 -33.5t32 -23t39 -8.5t39 8.5t32 23t22 33.5t8 40t-8 40t-22 33t-32 22.5t-39 8.5t-39 -8.5t-32 -22.5t-22 -33t-8 -40zM224 498q15 11 29.5 8.5t23.5 -12t10.5 -23t-9.5 -25.5l-63 -70q-13 -14 -26.5 -11t-23 13t-12.5 23.5t5 21.5z" />
    <glyph glyph-name="uni0218" unicode="&#x218;" horiz-adv-x="469" 
d="M403 485q6 -15 -2 -26t-21 -15.5t-26 -2t-16 16.5q-7 29 -21.5 46t-30.5 26t-31 11.5t-22 3.5q-25 2 -46 -4.5t-36 -18t-24 -26.5t-10 -30q-3 -32 8 -52.5t32.5 -34.5t51 -25t61.5 -24q31 -13 61.5 -28.5t53 -38t34 -54.5t6.5 -77q-5 -47 -28 -79.5t-56.5 -51t-73 -24
t-77.5 2.5q-51 10 -91.5 40.5t-53.5 81.5q-1 18 9.5 30t23.5 16.5t25 0t14 -18.5q5 -36 34 -55t65 -24q23 -3 45 0.5t40 14.5t30.5 28.5t16.5 43.5q4 28 -4 48.5t-25 35.5t-41 26t-51 22q-34 13 -68.5 28t-61.5 37t-42.5 54.5t-10.5 80.5q4 39 22 67.5t45 47t59.5 27
t64.5 6.5q19 -1 43 -7.5t48 -21.5t44.5 -40t32.5 -64zM180 -87q-10 9 -7 21.5t13 21t23.5 10t25.5 -11.5q13 -14 21.5 -37t9.5 -49.5t-7.5 -55t-30.5 -52.5q-12 -13 -26.5 -14t-25 5.5t-14.5 18t5 22.5q16 14 23.5 32t7.5 35t-5 31.5t-13 22.5z" />
    <glyph glyph-name="uni0219" unicode="&#x219;" horiz-adv-x="387" 
d="M344 278q7 -14 0 -25.5t-20 -17t-26 -3t-17 16.5q-12 20 -32.5 29.5t-35.5 11.5q-26 4 -49 -8t-27 -28q-3 -16 2.5 -25.5t16.5 -15.5t27 -10t34 -7q26 -5 51 -12.5t44 -21t30 -34.5t8 -54q-2 -27 -17.5 -46.5t-38 -31t-50 -15.5t-54.5 -1q-24 3 -47 11.5t-42.5 22.5
t-34 34t-21.5 46q-2 18 7.5 30t22.5 16.5t25 0.5t15 -18q8 -42 34 -57t54 -17q27 -2 48.5 6.5t23.5 22.5q4 26 -15.5 37t-49.5 17q-23 5 -49 10.5t-48 17t-36 32.5t-14 56q0 28 12.5 49t33 35.5t47 20.5t54.5 4q38 -3 74.5 -22t59.5 -57zM165 -94q-10 9 -7 21.5t13 21
t23.5 10t25.5 -11.5q13 -14 21.5 -37t9.5 -49.5t-7.5 -55t-30.5 -52.5q-12 -13 -26.5 -14t-25 5.5t-14.5 18t5 22.5q16 14 23.5 32t7.5 35t-5 31.5t-13 22.5z" />
    <glyph glyph-name="uni0237" unicode="&#x237;" horiz-adv-x="182" 
d="M55 340q0 12 11.5 19.5t25.5 8.5t25.5 -6.5t11.5 -26.5v-261q0 -65 -10.5 -115.5t-33.5 -84.5t-59 -48.5t-88 -6.5q-20 3 -28 16t-6.5 26.5t12.5 24t31 7.5q57 -8 83.5 48.5t25.5 183.5z" />
    <glyph glyph-name="uni02B2" unicode="&#x2b2;" horiz-adv-x="125" 
d="M41 354q0 7 7 11.5t15 5t15 -4t7 -15.5v-157q0 -39 -6 -69t-19.5 -50.5t-35.5 -29.5t-53 -4q-12 2 -17 10t-4 16t7.5 14t18.5 5q35 -5 51 29t15 110zM36 418q0 11 8 19t19 8t19 -8t8 -19t-8 -19t-19 -8t-19 8t-8 19z" />
    <glyph glyph-name="uni02B7" unicode="&#x2b7;" horiz-adv-x="386" 
d="M286 158q-5 -10 -12 -13.5t-14.5 -2t-13.5 6.5t-9 11l-44 113l-39 -114q-5 -10 -12 -13t-14.5 -2t-13.5 6t-9 11l-66 173q-3 7 2 13.5t12.5 10t15.5 1.5t12 -12l49 -121l41 116q3 7 9.5 12t13.5 5.5t13.5 -3.5t10.5 -13l44 -119l42 123q4 10 12.5 12t16 -1.5t12.5 -10
t2 -13.5z" />
    <glyph glyph-name="uni02B8" unicode="&#x2b8;" horiz-adv-x="291" 
d="M138 149l-103 183q-3 10 2.5 17t13.5 10t16.5 0.5t11.5 -9.5l81 -139l50 141q6 9 15 10.5t16.5 -2.5t12 -11.5t1.5 -14.5l-105 -282q-4 -10 -12 -11.5t-15.5 1.5t-12.5 10t-2 13z" />
    <glyph glyph-name="circumflex" unicode="&#x2c6;" horiz-adv-x="267" 
d="M92 476q9 12 20.5 17t23 4.5t21.5 -6.5t17 -15l47 -69q4 -10 -1 -21t-14 -17.5t-21 -6t-22 12.5l-31 43l-29 -42q-8 -12 -19.5 -12.5t-21.5 5t-16 15.5t-2 20z" />
    <glyph glyph-name="caron" unicode="&#x2c7;" horiz-adv-x="258" 
d="M168 383q-9 -12 -20.5 -17t-23 -4.5t-21.5 6.5t-17 15l-47 69q-4 10 1 21t14 17.5t20.5 6t22.5 -12.5l31 -43l29 42q7 12 19 12.5t22 -5t16 -15.5t2 -20z" />
    <glyph glyph-name="breve" unicode="&#x2d8;" horiz-adv-x="335" 
d="M229 464q6 12 18 13t22 -5t15 -17.5t-2 -25.5q-17 -32 -47.5 -47.5t-63.5 -15t-63.5 15.5t-48.5 45q-9 15 -4 26t15 16.5t21.5 4.5t14.5 -10q12 -24 30.5 -34t36.5 -8.5t33.5 12.5t22.5 30z" />
    <glyph glyph-name="dotaccent" unicode="&#x2d9;" horiz-adv-x="163" 
d="M35 414q0 19 12.5 32t31.5 13t32 -13t13 -32t-13 -31.5t-32 -12.5t-31.5 12.5t-12.5 31.5z" />
    <glyph glyph-name="ring" unicode="&#x2da;" horiz-adv-x="208" 
d="M83 425q0 -19 19 -19q8 0 14 5.5t6 13.5t-6 14t-14 6t-13.5 -6t-5.5 -14zM38 425q0 27 18.5 46t45.5 19t46 -19t19 -46t-19 -45.5t-46 -18.5t-45.5 18.5t-18.5 45.5z" />
    <glyph glyph-name="ogonek" unicode="&#x2db;" horiz-adv-x="212" 
d="M150 16q-8 -8 -13 -20.5t-5 -27.5t7 -31t24 -30q9 -11 5 -22.5t-14.5 -18t-25 -5.5t-26.5 14q-22 24 -30.5 50.5t-7.5 51t9.5 45.5t21.5 35q12 13 25.5 11.5t23.5 -10t13 -21t-7 -21.5z" />
    <glyph glyph-name="tilde" unicode="&#x2dc;" horiz-adv-x="413" 
d="M297 499q4 13 15.5 18t23.5 2.5t20.5 -12.5t7.5 -27q-4 -42 -29.5 -68.5t-57.5 -28.5q-26 -2 -43.5 10t-32.5 26t-30 25t-34 8q-15 -2 -21 -15t-13 -35q-6 -17 -18.5 -20t-24 3t-18 19.5t-0.5 29.5q14 35 35 60t56 24q29 0 47.5 -11t32 -23.5t26.5 -23t31 -10.5
q16 0 21 14t6 35z" />
    <glyph glyph-name="hungarumlaut" unicode="&#x2dd;" horiz-adv-x="347" 
d="M118 498q15 11 29.5 7.5t24 -14t11 -23.5t-10.5 -22l-63 -70q-13 -14 -26.5 -11t-23 13t-12.5 23.5t5 21.5zM247 498q15 11 29.5 7.5t24 -14t11 -23.5t-10.5 -22l-63 -70q-13 -14 -26.5 -11t-23 13t-12.5 23.5t5 21.5z" />
    <glyph glyph-name="uni02E3" unicode="&#x2e3;" horiz-adv-x="252" 
d="M154 251l56 -76q6 -10 2.5 -17.5t-11 -11.5t-15.5 -4t-12 6l-48 64l-48 -64q-3 -6 -11.5 -6t-15.5 4t-10.5 11.5t2.5 17.5l55 76l-57 77q-4 10 1.5 17t14 10t17 1t11.5 -9l41 -57l42 57q3 7 11.5 9t17 -1t13.5 -10t1 -17z" />
    <glyph glyph-name="Wgrave" unicode="&#x1e80;" horiz-adv-x="830" 
d="M418 404l-107 -400q-8 -17 -20.5 -22.5t-24.5 -3t-22.5 10t-14.5 18.5l-179 555q-4 11 4 22t21 16.5t26.5 2.5t19.5 -20l149 -458l113 435q4 11 13.5 16.5t20.5 5.5t21 -5t15 -16l115 -435l147 458q6 17 19.5 20t26.5 -2.5t21 -16.5t4 -22l-177 -555q-4 -11 -14.5 -18.5
t-22.5 -10t-24.5 3t-20.5 22.5zM479 693q8 -8 5 -21.5t-12.5 -23.5t-23 -13t-26.5 11l-63 70q-12 9 -10.5 22t11 23.5t24 14t29.5 -7.5z" />
    <glyph glyph-name="wgrave" unicode="&#x1e81;" horiz-adv-x="616" 
d="M464 13q-8 -17 -20.5 -22.5t-24.5 -3t-22.5 10t-14.5 18.5l-73 189l-65 -190q-8 -17 -20.5 -22.5t-24.5 -3t-22.5 10t-14.5 18.5l-111 289q-4 11 4 22t21 16.5t26.5 2.5t19.5 -20l81 -202l69 194q5 13 15.5 20.5t22.5 8.5t23 -5.5t17 -21.5l73 -198l71 204q6 17 19.5 20
t26.5 -2.5t21 -16.5t4 -22zM379 466q8 -8 5 -21.5t-12.5 -23.5t-23 -13t-26.5 11l-63 70q-12 9 -10.5 22t11 23.5t24 14t29.5 -7.5z" />
    <glyph glyph-name="Wacute" unicode="&#x1e82;" horiz-adv-x="830" 
d="M418 404l-107 -400q-8 -17 -20.5 -22.5t-24.5 -3t-22.5 10t-14.5 18.5l-179 555q-4 11 4 22t21 16.5t26.5 2.5t19.5 -20l149 -458l113 435q4 11 13.5 16.5t20.5 5.5t21 -5t15 -16l115 -435l147 458q6 17 19.5 20t26.5 -2.5t21 -16.5t4 -22l-177 -555q-4 -11 -14.5 -18.5
t-22.5 -10t-24.5 3t-20.5 22.5zM416 768q15 11 29.5 8.5t23.5 -12t10.5 -23t-9.5 -25.5l-63 -70q-13 -14 -26.5 -11t-23 13t-12.5 23.5t5 21.5z" />
    <glyph glyph-name="wacute" unicode="&#x1e83;" horiz-adv-x="616" 
d="M464 13q-8 -17 -20.5 -22.5t-24.5 -3t-22.5 10t-14.5 18.5l-73 189l-65 -190q-8 -17 -20.5 -22.5t-24.5 -3t-22.5 10t-14.5 18.5l-111 289q-4 11 4 22t21 16.5t26.5 2.5t19.5 -20l81 -202l69 194q5 13 15.5 20.5t22.5 8.5t23 -5.5t17 -21.5l73 -198l71 204q6 17 19.5 20
t26.5 -2.5t21 -16.5t4 -22zM329 540q15 11 29.5 8.5t23.5 -12t10.5 -23t-9.5 -25.5l-63 -70q-13 -14 -26.5 -11t-23 13t-12.5 23.5t5 21.5z" />
    <glyph glyph-name="Wdieresis" unicode="&#x1e84;" horiz-adv-x="830" 
d="M418 404l-107 -400q-8 -17 -20.5 -22.5t-24.5 -3t-22.5 10t-14.5 18.5l-179 555q-4 11 4 22t21 16.5t26.5 2.5t19.5 -20l149 -458l113 435q4 11 13.5 16.5t20.5 5.5t21 -5t15 -16l115 -435l147 458q6 17 19.5 20t26.5 -2.5t21 -16.5t4 -22l-177 -555q-4 -11 -14.5 -18.5
t-22.5 -10t-24.5 3t-20.5 22.5zM307 675q0 19 12.5 32t31.5 13t32 -13t13 -32t-13 -31.5t-32 -12.5t-31.5 12.5t-12.5 31.5zM433 675q0 19 12.5 32t31.5 13t32 -13t13 -32t-13 -31.5t-32 -12.5t-31.5 12.5t-12.5 31.5z" />
    <glyph glyph-name="wdieresis" unicode="&#x1e85;" horiz-adv-x="616" 
d="M464 13q-8 -17 -20.5 -22.5t-24.5 -3t-22.5 10t-14.5 18.5l-73 189l-65 -190q-8 -17 -20.5 -22.5t-24.5 -3t-22.5 10t-14.5 18.5l-111 289q-4 11 4 22t21 16.5t26.5 2.5t19.5 -20l81 -202l69 194q5 13 15.5 20.5t22.5 8.5t23 -5.5t17 -21.5l73 -198l71 204q6 17 19.5 20
t26.5 -2.5t21 -16.5t4 -22zM203 446q0 19 12.5 32t31.5 13t32 -13t13 -32t-13 -31.5t-32 -12.5t-31.5 12.5t-12.5 31.5zM329 446q0 19 12.5 32t31.5 13t32 -13t13 -32t-13 -31.5t-32 -12.5t-31.5 12.5t-12.5 31.5z" />
    <glyph glyph-name="Ygrave" unicode="&#x1ef2;" horiz-adv-x="460" 
d="M198 255q-2 4 -3 7l-157 307q-4 11 3.5 21.5t19.5 16t25.5 2.5t22.5 -19l130 -245l112 246q7 17 21 20t26.5 -2.5t20 -16.5t3.5 -22l-144 -309l-1 -251q0 -19 -11.5 -26.5t-25.5 -6.5t-25.5 8.5t-11.5 19.5zM294 693q8 -8 5 -21.5t-12.5 -23.5t-23 -13t-26.5 11l-63 70
q-12 9 -10.5 22t11 23.5t24 14t29.5 -7.5z" />
    <glyph glyph-name="ygrave" unicode="&#x1ef3;" horiz-adv-x="458" 
d="M216 -1l-171 304q-4 18 5 29.5t22.5 16t27 1t18.5 -15.5l135 -232l84 234q10 16 24.5 18t27.5 -4.5t20 -18.5t2 -24l-175 -470q-6 -17 -19.5 -20t-26 3t-20.5 17t-4 22zM293 423q8 -8 5 -21.5t-12.5 -23.5t-23 -13t-26.5 11l-63 70q-12 9 -10.5 22t11 23.5t24 14
t29.5 -7.5z" />
    <glyph glyph-name="endash" unicode="&#x2013;" horiz-adv-x="403" 
d="M321 272q18 -3 25.5 -16.5t6.5 -27t-10 -24t-23 -7.5l-241 -2q-19 0 -26.5 11.5t-6.5 25.5t8.5 25.5t19.5 11.5z" />
    <glyph glyph-name="emdash" unicode="&#x2014;" horiz-adv-x="463" 
d="M387 272q18 -3 25.5 -16.5t6.5 -27t-10 -24t-23 -7.5l-307 -2q-19 0 -26.5 11.5t-6.5 25.5t8.5 25.5t19.5 11.5z" />
    <glyph glyph-name="quoteleft" unicode="&#x2018;" horiz-adv-x="237" 
d="M149 311q10 -9 7 -21.5t-13 -21t-23.5 -10t-25.5 11.5q-13 14 -21.5 37t-9.5 49.5t7.5 55t30.5 52.5q12 13 26.5 14t25 -5.5t14.5 -18t-5 -22.5q-17 -14 -24 -32t-7 -35t5 -31.5t13 -22.5z" />
    <glyph glyph-name="quoteright" unicode="&#x2019;" horiz-adv-x="237" 
d="M82 426q-10 9 -7 21.5t13 21t23.5 10t25.5 -11.5q13 -14 21.5 -37t9.5 -49.5t-7.5 -55t-30.5 -52.5q-12 -13 -26.5 -14t-25 5.5t-14.5 18t5 22.5q16 14 23.5 32t7.5 35t-5 31.5t-13 22.5z" />
    <glyph glyph-name="quotesinglbase" unicode="&#x201a;" horiz-adv-x="237" 
d="M68 120q-10 9 -7 21.5t13 21t23.5 10t25.5 -11.5q13 -14 21.5 -37t9.5 -49.5t-7.5 -55t-30.5 -52.5q-12 -13 -26.5 -14t-25 5.5t-14.5 18t5 22.5q16 14 23.5 32t7.5 35t-5 31.5t-13 22.5z" />
    <glyph glyph-name="quotedblleft" unicode="&#x201c;" horiz-adv-x="380" 
d="M288 360q10 -9 7 -21.5t-13 -21t-23.5 -10t-25.5 11.5q-13 14 -21.5 37t-9.5 49.5t7.5 55t30.5 52.5q12 13 26.5 14t25 -5.5t14.5 -18t-5 -22.5q-17 -14 -24 -32t-7 -35t5 -31.5t13 -22.5zM149 356q10 -9 7 -21.5t-13 -21t-23.5 -10t-25.5 11.5q-13 14 -21.5 37
t-9.5 49.5t7.5 55t30.5 52.5q12 13 26.5 14t25 -5.5t14.5 -18t-5 -22.5q-17 -14 -24 -32t-7 -35t5 -31.5t13 -22.5z" />
    <glyph glyph-name="quotedblright" unicode="&#x201d;" horiz-adv-x="380" 
d="M82 471q-10 9 -7 21.5t13 21t23.5 10t25.5 -11.5q13 -14 21.5 -37t9.5 -49.5t-7.5 -55t-30.5 -52.5q-12 -13 -26.5 -14t-25 5.5t-14.5 18t5 22.5q16 14 23.5 32t7.5 35t-5 31.5t-13 22.5zM221 475q-10 9 -7 21.5t13 21t23.5 10t25.5 -11.5q13 -14 21.5 -37t9.5 -49.5
t-7.5 -55t-30.5 -52.5q-12 -13 -26.5 -14t-25 5.5t-14.5 18t5 22.5q16 14 23.5 32t7.5 35t-5 31.5t-13 22.5z" />
    <glyph glyph-name="quotedblbase" unicode="&#x201e;" horiz-adv-x="380" 
d="M92 127q-10 9 -7 21.5t13 21t23.5 10t25.5 -11.5q13 -14 21.5 -37t9.5 -49.5t-7.5 -55t-30.5 -52.5q-12 -13 -26.5 -14t-25 5.5t-14.5 18t5 22.5q16 14 23.5 32t7.5 35t-5 31.5t-13 22.5zM231 131q-10 9 -7 21.5t13 21t23.5 10t25.5 -11.5q13 -14 21.5 -37t9.5 -49.5
t-7.5 -55t-30.5 -52.5q-12 -13 -26.5 -14t-25 5.5t-14.5 18t5 22.5q16 14 23.5 32t7.5 35t-5 31.5t-13 22.5z" />
    <glyph glyph-name="bullet" unicode="&#x2022;" horiz-adv-x="204" 
d="M47 254q0 23 16 39.5t39 16.5t39.5 -16.5t16.5 -39.5t-16.5 -39t-39.5 -16t-39 16t-16 39z" />
    <glyph glyph-name="ellipsis" unicode="&#x2026;" horiz-adv-x="418" 
d="M39 41q0 19 12.5 32t31.5 13t32 -13t13 -32t-13 -31.5t-32 -12.5t-31.5 12.5t-12.5 31.5zM165 41q0 19 12.5 32t31.5 13t32 -13t13 -32t-13 -31.5t-32 -12.5t-31.5 12.5t-12.5 31.5zM291 41q0 19 12.5 32t31.5 13t32 -13t13 -32t-13 -31.5t-32 -12.5t-31.5 12.5
t-12.5 31.5z" />
    <glyph glyph-name="guilsinglleft" unicode="&#x2039;" horiz-adv-x="414" 
d="M81 200q-16 9 -21 21.5t-2 24.5t11 22t19 14l194 109q11 4 21.5 -3.5t15 -20t1 -26t-19.5 -22.5l-141 -76l151 -77q17 -6 19.5 -19.5t-3.5 -26t-18 -20.5t-22 -3z" />
    <glyph glyph-name="guilsinglright" unicode="&#x203a;" horiz-adv-x="388" 
d="M109 98q-11 -5 -22.5 3t-17.5 20.5t-3.5 26t19.5 19.5l151 77l-141 76q-16 9 -19.5 22.5t1 26t15 20t21.5 3.5l194 -109q10 -4 18.5 -14t11.5 -22t-2 -24.5t-21 -21.5z" />
    <glyph glyph-name="fraction" unicode="&#x2044;" horiz-adv-x="387" 
d="M281 601q10 15 25 16t27 -5.5t19 -19t1 -24.5l-254 -553q-8 -17 -21.5 -19.5t-25.5 4t-19.5 18t-2.5 22.5z" />
    <glyph glyph-name="uni2070" unicode="&#x2070;" horiz-adv-x="336" 
d="M37 329q0 39 10.5 73.5t28.5 60.5t42 41t51 15t51 -15t41.5 -41t28 -60.5t10.5 -73.5t-10.5 -72t-28 -58t-41.5 -39t-51 -14t-51 14t-42 39t-28.5 58t-10.5 72zM82 326q0 -28 7 -52.5t19 -42.5t27.5 -28.5t33.5 -10.5t33.5 10.5t27.5 28.5t18.5 42.5t6.5 52.5t-7 54
t-19 46t-27.5 32t-33.5 12t-33.5 -12t-27.5 -32t-18.5 -46t-6.5 -54z" />
    <glyph glyph-name="uni2074" unicode="&#x2074;" horiz-adv-x="281" 
d="M196 314h-112q-21 0 -34.5 6.5t-13.5 26.5l-2 150q2 11 10.5 14.5t17.5 2t15 -7.5t5 -13l-1 -132h115l-1 136q2 11 10.5 15t17 2.5t14.5 -7t5 -12.5l1 -328q0 -11 -7 -15.5t-15.5 -4t-15.5 5t-7 11.5z" />
    <glyph glyph-name="uni2075" unicode="&#x2075;" horiz-adv-x="287" 
d="M37 471q0 21 6.5 34t26.5 13h170q11 -2 14.5 -10t2 -17t-7 -15.5t-12.5 -4.5l-153 2v-81q38 9 68.5 4t52.5 -20.5t34.5 -40t14.5 -53.5q5 -78 -31 -117.5t-109 -26.5q-39 7 -61.5 34t-21.5 65q0 9 7.5 14.5t16 7t15.5 -2.5t8 -14q2 -32 18 -45.5t33 -15.5q23 -3 38.5 3.5
t25 20t13 32t2.5 38.5q-1 21 -10 38t-25.5 27.5t-38.5 12t-48 -8.5q-4 -2 -11 -3t-14.5 1.5t-13.5 9.5t-8 21z" />
    <glyph glyph-name="uni2076" unicode="&#x2076;" horiz-adv-x="308" 
d="M239 517q7 -3 10 -11.5t2 -17t-7 -14.5t-16 -3q-39 6 -64.5 -6.5t-40.5 -32.5t-22.5 -42.5t-10.5 -37.5q12 9 28.5 14t32.5 7q24 2 45.5 -5t38 -21.5t26.5 -35.5t12 -45q1 -24 -6.5 -46t-22 -40t-35 -29.5t-44.5 -13.5q-38 -3 -64 11.5t-41 41.5t-20 62.5t0 73.5
q3 27 12 63t30.5 67.5t59 50.5t97.5 10zM84 249q1 -15 8 -28t18 -22.5t24.5 -14.5t27.5 -3q29 3 48.5 26.5t18.5 52.5q-2 28 -24.5 47.5t-51.5 17.5q-14 -2 -27.5 -7.5t-23 -15t-15 -23t-3.5 -30.5z" />
    <glyph glyph-name="uni2077" unicode="&#x2077;" horiz-adv-x="302" 
d="M235 521q24 0 32.5 -12.5t-2.5 -37.5l-133 -313q-4 -11 -12 -12.5t-16 1.5t-13 9.5t-3 12.5l129 306h-164q-11 0 -15.5 6.5t-4 15t5.5 15t12 6.5z" />
    <glyph glyph-name="uni2078" unicode="&#x2078;" horiz-adv-x="283" 
d="M250 251q0 -22 -8.5 -41.5t-23.5 -34.5t-34.5 -23.5t-41.5 -8.5t-41 8.5t-33.5 23.5t-23 34.5t-8.5 41.5q0 25 11 47.5t30 37.5q-19 14 -29.5 34.5t-10.5 46.5q0 22 8 41.5t22.5 34.5t33.5 23.5t41 8.5t41 -8.5t33 -23.5t22.5 -34.5t8.5 -41.5q0 -26 -11 -46t-29 -34
q20 -15 31.5 -37.5t11.5 -48.5zM207 251q0 26 -19.5 44.5t-44.5 18.5t-43.5 -18.5t-18.5 -44.5q0 -25 18.5 -43.5t43.5 -18.5t44.5 18.5t19.5 43.5zM81 416q0 -25 17.5 -40t42.5 -15t43 15t18 40q0 26 -18 44.5t-43 18.5t-42.5 -18.5t-17.5 -44.5z" />
    <glyph glyph-name="uni2079" unicode="&#x2079;" horiz-adv-x="282" 
d="M199 498q0 7 7 11.5t15 5t15 -4t7 -15.5l1 -334q-2 -12 -9.5 -17t-16 -4t-15 7t-6.5 16v11v27t-0.5 35t-0.5 35v27v12q-27 -19 -59 -19q-22 0 -41 9t-33.5 24t-22.5 35t-8 42t8 41.5t22.5 34.5t33.5 23.5t41 8.5q35 0 61 -21zM76 401q0 -25 17.5 -44.5t42.5 -19.5
t43.5 18.5t17.5 44.5q-2 32 -19 48t-42 16t-42.5 -18.5t-17.5 -44.5z" />
    <glyph glyph-name="uni207F" unicode="&#x207f;" horiz-adv-x="266" 
d="M187 159q1 51 -2.5 82t-10 47t-14.5 21t-15 5q-25 0 -42.5 -19t-17.5 -44v-85q0 -10 -7 -16t-15 -7t-15.5 4t-9.5 17l1 180q0 11 7 15.5t15 4t15 -5t7 -11.5l1 -9q27 21 61 21q31 0 48.5 -15t26 -41t10.5 -62t2 -79q0 -11 -7 -15.5t-15.5 -4t-15.5 5t-7 11.5z" />
    <glyph glyph-name="uni2080" unicode="&#x2080;" horiz-adv-x="336" 
d="M37 79q0 39 10.5 73.5t28.5 60.5t42 41t51 15t51 -15t41.5 -41t28 -60.5t10.5 -73.5t-10.5 -72t-28 -58t-41.5 -39t-51 -14t-51 14t-42 39t-28.5 58t-10.5 72zM82 76q0 -28 7 -52.5t19 -42.5t27.5 -28.5t33.5 -10.5t33.5 10.5t27.5 28.5t18.5 42.5t6.5 52.5t-7 54t-19 46
t-27.5 32t-33.5 12t-33.5 -12t-27.5 -32t-18.5 -46t-6.5 -54z" />
    <glyph glyph-name="uni2081" unicode="&#x2081;" horiz-adv-x="126" 
d="M39 247q2 11 10 15t16.5 3.5t15 -6t6.5 -13.5l1 -329q0 -11 -7 -15.5t-15.5 -4t-15.5 5t-7 11.5z" />
    <glyph glyph-name="uni2082" unicode="&#x2082;" horiz-adv-x="281" 
d="M58 -104q-11 0 -16 6t-6.5 13.5t1.5 15t9 9.5q30 28 57.5 58.5t48.5 60.5t33.5 58.5t12.5 54.5q-1 23 -13.5 36.5t-31.5 16.5q-12 2 -24 0t-23 -8.5t-19.5 -17.5t-12.5 -26q-2 -8 -9.5 -9.5t-15.5 1.5t-13 10t-1 16q9 23 23.5 39.5t32.5 26.5t38 13t39 -1q32 -6 55.5 -32
t20.5 -68q-2 -32 -13.5 -62.5t-28.5 -59.5t-39 -55.5t-45 -50.5h115q11 -2 14.5 -10t2 -16t-7 -13.5t-14.5 -3.5z" />
    <glyph glyph-name="uni2083" unicode="&#x2083;" horiz-adv-x="293" 
d="M139 71q-5 0 -9.5 6t-6 13.5t1.5 14t12 8.5q9 0 21 3.5t23.5 11t18.5 20.5t5 32q-1 9 -6.5 18t-14.5 16t-21.5 10.5t-27.5 2.5q-5 0 -13.5 -2t-18.5 -7t-18.5 -15t-12.5 -28q-2 -8 -9.5 -10t-15.5 1t-13 9.5t-1 15.5q7 23 19.5 38t27 24t29 13t25.5 5q19 1 39 -4t36 -16
t27 -28.5t13 -40.5q3 -31 -7 -51.5t-28 -34.5q23 -14 36 -41.5t8 -66.5q-3 -31 -15.5 -52t-30 -33.5t-38.5 -17.5t-40 -4q-11 1 -25.5 4.5t-29 12.5t-27 24.5t-19.5 38.5q-4 9 1 15.5t13 9.5t15.5 1t9.5 -10q4 -17 12.5 -27.5t18.5 -15.5t18.5 -7t13.5 -2q30 -2 53 16.5
t26 49.5q2 19 -3.5 34t-16 25t-25 15.5t-30.5 5.5z" />
    <glyph glyph-name="uni2084" unicode="&#x2084;" horiz-adv-x="281" 
d="M196 64h-112q-21 0 -34.5 6.5t-13.5 26.5l-2 150q2 11 10.5 14.5t17.5 2t15 -7.5t5 -13l-1 -132h115l-1 136q2 11 10.5 15t17 2.5t14.5 -7t5 -12.5l1 -328q0 -11 -7 -15.5t-15.5 -4t-15.5 5t-7 11.5z" />
    <glyph glyph-name="uni2085" unicode="&#x2085;" horiz-adv-x="287" 
d="M37 221q0 21 6.5 34t26.5 13h170q11 -2 14.5 -10t2 -17t-7 -15.5t-12.5 -4.5l-153 2v-81q38 9 68.5 4t52.5 -20.5t34.5 -40t14.5 -53.5q5 -78 -31 -117.5t-109 -26.5q-39 7 -61.5 34t-21.5 65q0 9 7.5 14.5t16 7t15.5 -2.5t8 -14q2 -32 18 -45.5t33 -15.5q23 -3 38.5 3.5
t25 20t13 32t2.5 38.5q-1 21 -10 38t-25.5 27.5t-38.5 12t-48 -8.5q-4 -2 -11 -3t-14.5 1.5t-13.5 9.5t-8 21z" />
    <glyph glyph-name="uni2086" unicode="&#x2086;" horiz-adv-x="308" 
d="M239 267q7 -3 10 -11.5t2 -17t-7 -14.5t-16 -3q-39 6 -64.5 -6.5t-40.5 -32.5t-22.5 -42.5t-10.5 -37.5q12 9 28.5 14t32.5 7q24 2 45.5 -5t38 -21.5t26.5 -35.5t12 -45q1 -24 -6.5 -46t-22 -40t-35 -29.5t-44.5 -13.5q-38 -3 -64 11.5t-41 41.5t-20 62.5t0 73.5
q3 27 12 63t30.5 67.5t59 50.5t97.5 10zM84 -1q1 -15 8 -28t18 -22.5t24.5 -14.5t27.5 -3q29 3 48.5 26.5t18.5 52.5q-2 28 -24.5 47.5t-51.5 17.5q-14 -2 -27.5 -7.5t-23 -15t-15 -23t-3.5 -30.5z" />
    <glyph glyph-name="uni2087" unicode="&#x2087;" horiz-adv-x="302" 
d="M235 271q24 0 32.5 -12.5t-2.5 -37.5l-133 -313q-4 -11 -12 -12.5t-16 1.5t-13 9.5t-3 12.5l129 306h-164q-11 0 -15.5 6.5t-4 15t5.5 15t12 6.5z" />
    <glyph glyph-name="uni2088" unicode="&#x2088;" horiz-adv-x="283" 
d="M250 1q0 -22 -8.5 -41.5t-23.5 -34.5t-34.5 -23.5t-41.5 -8.5t-41 8.5t-33.5 23.5t-23 34.5t-8.5 41.5q0 25 11 47.5t30 37.5q-19 14 -29.5 34.5t-10.5 46.5q0 22 8 41.5t22.5 34.5t33.5 23.5t41 8.5t41 -8.5t33 -23.5t22.5 -34.5t8.5 -41.5q0 -26 -11 -46t-29 -34
q20 -15 31.5 -37.5t11.5 -48.5zM207 1q0 26 -19.5 44.5t-44.5 18.5t-43.5 -18.5t-18.5 -44.5q0 -25 18.5 -43.5t43.5 -18.5t44.5 18.5t19.5 43.5zM81 166q0 -25 17.5 -40t42.5 -15t43 15t18 40q0 26 -18 44.5t-43 18.5t-42.5 -18.5t-17.5 -44.5z" />
    <glyph glyph-name="uni2089" unicode="&#x2089;" horiz-adv-x="282" 
d="M199 248q0 7 7 11.5t15 5t15 -4t7 -15.5l1 -334q-2 -12 -9.5 -17t-16 -4t-15 7t-6.5 16v11v27t-0.5 35t-0.5 35v27v12q-27 -19 -59 -19q-22 0 -41 9t-33.5 24t-22.5 35t-8 42t8 41.5t22.5 34.5t33.5 23.5t41 8.5q35 0 61 -21zM76 151q0 -25 17.5 -44.5t42.5 -19.5
t43.5 18.5t17.5 44.5q-2 32 -19 48t-42 16t-42.5 -18.5t-17.5 -44.5z" />
    <glyph glyph-name="Euro" unicode="&#x20ac;" horiz-adv-x="557" 
d="M102 402q11 46 31.5 85t47.5 67.5t59.5 44.5t68.5 16q63 0 112 -34t77 -110q8 -12 0.5 -24.5t-21.5 -19t-29.5 -4t-24.5 20.5q-20 51 -49 70t-67 19q-41 0 -74 -36.5t-52 -93.5l140 2q18 -3 25.5 -16.5t6.5 -27t-10 -24t-23 -7.5l-154 -2q-1 -8 -1.5 -17t-0.5 -18v-19
l157 2q18 -3 25.5 -16.5t6.5 -27t-10 -24t-23 -7.5l-143 -2q18 -57 53.5 -92t79.5 -35q39 0 71.5 30.5t50.5 78.5q7 18 21.5 20.5t27 -5t19 -23t-2.5 -33.5q-29 -67 -78.5 -108t-109.5 -41q-36 0 -69 15.5t-60 43t-47.5 65.5t-31.5 84h-22q-19 0 -26.5 11.5t-6.5 25.5
t8.5 25.5t19.5 11.5h16v26v14.5t1 14.5h-12q-19 0 -26.5 11.5t-6.5 25.5t8.5 25.5t19.5 11.5h28z" />
    <glyph glyph-name="onethird" unicode="&#x2153;" horiz-adv-x="557" 
d="M62 588q2 11 10 15t16.5 3.5t15 -6t6.5 -13.5l1 -329q0 -11 -7 -15.5t-15.5 -4t-15.5 5t-7 11.5zM389 608q8 7 17 6t15 -6.5t8.5 -14t-2.5 -14.5l-343 -567q-7 -9 -15 -8.5t-14.5 5.5t-9.5 13t1 14zM392 183q-5 0 -9.5 6t-6 13.5t1.5 14t12 8.5q9 0 21 3.5t23.5 11
t18.5 20.5t5 32q-1 9 -6.5 18t-14.5 16t-21.5 10.5t-27.5 2.5q-5 0 -13.5 -2t-18.5 -7t-18.5 -15t-12.5 -28q-2 -8 -9.5 -10t-15.5 1t-13 9.5t-1 15.5q7 23 19.5 38t27 24t29 13t25.5 5q19 1 39 -4t36 -16t27 -28.5t13 -40.5q3 -31 -7 -51.5t-28 -34.5q23 -14 36 -41.5
t8 -66.5q-3 -31 -15.5 -52t-30 -33.5t-38.5 -17.5t-40 -4q-11 1 -25.5 4.5t-29 12.5t-27 24.5t-19.5 38.5q-4 9 1 15.5t13 9.5t15.5 1t9.5 -10q4 -17 12.5 -27.5t18.5 -15.5t18.5 -7t13.5 -2q30 -2 53 16.5t26 49.5q2 19 -3.5 34t-16 25t-25 15.5t-30.5 5.5z" />
    <glyph glyph-name="twothirds" unicode="&#x2154;" horiz-adv-x="687" 
d="M519 608q8 7 17 6t15 -6.5t8.5 -14t-2.5 -14.5l-343 -567q-7 -9 -15 -8.5t-14.5 5.5t-9.5 13t1 14zM72 233q-11 0 -16 6t-6.5 13.5t1.5 15t9 9.5q30 28 57.5 58.5t48.5 60.5t33.5 58.5t12.5 54.5q-1 23 -13.5 36.5t-31.5 16.5q-12 2 -24 0t-23 -8.5t-19.5 -17.5
t-12.5 -26q-2 -8 -9.5 -9.5t-15.5 1.5t-13 10t-1 16q9 23 23.5 39.5t32.5 26.5t38 13t39 -1q32 -6 55.5 -32t20.5 -68q-2 -32 -13.5 -62.5t-28.5 -59.5t-39 -55.5t-45 -50.5h115q11 -2 14.5 -10t2 -16t-7 -13.5t-14.5 -3.5zM523 188q-5 0 -9.5 6t-6 13.5t1.5 14t12 8.5
q9 0 21 3.5t23.5 11t18.5 20.5t5 32q-1 9 -6.5 18t-14.5 16t-21.5 10.5t-27.5 2.5q-5 0 -13.5 -2t-18.5 -7t-18.5 -15t-12.5 -28q-2 -8 -9.5 -10t-15.5 1t-13 9.5t-1 15.5q7 23 19.5 38t27 24t29 13t25.5 5q19 1 39 -4t36 -16t27 -28.5t13 -40.5q3 -31 -7 -51.5t-28 -34.5
q23 -14 36 -41.5t8 -66.5q-3 -31 -15.5 -52t-30 -33.5t-38.5 -17.5t-40 -4q-11 1 -25.5 4.5t-29 12.5t-27 24.5t-19.5 38.5q-4 9 1 15.5t13 9.5t15.5 1t9.5 -10q4 -17 12.5 -27.5t18.5 -15.5t18.5 -7t13.5 -2q30 -2 53 16.5t26 49.5q2 19 -3.5 34t-16 25t-25 15.5t-30.5 5.5
z" />
    <glyph glyph-name="oneeighth" unicode="&#x215b;" horiz-adv-x="557" 
d="M62 588q2 11 10 15t16.5 3.5t15 -6t6.5 -13.5l1 -329q0 -11 -7 -15.5t-15.5 -4t-15.5 5t-7 11.5zM389 608q8 7 17 6t15 -6.5t8.5 -14t-2.5 -14.5l-343 -567q-7 -9 -15 -8.5t-14.5 5.5t-9.5 13t1 14zM511 102q0 -22 -8.5 -41.5t-23.5 -34.5t-34.5 -23.5t-41.5 -8.5
t-41 8.5t-33.5 23.5t-23 34.5t-8.5 41.5q0 25 11 47.5t30 37.5q-19 14 -29.5 34.5t-10.5 46.5q0 22 8 41.5t22.5 34.5t33.5 23.5t41 8.5t41 -8.5t33 -23.5t22.5 -34.5t8.5 -41.5q0 -26 -11 -46t-29 -34q20 -15 31.5 -37.5t11.5 -48.5zM468 102q0 26 -19.5 44.5t-44.5 18.5
t-43.5 -18.5t-18.5 -44.5q0 -25 18.5 -43.5t43.5 -18.5t44.5 18.5t19.5 43.5zM342 267q0 -25 17.5 -40t42.5 -15t43 15t18 40q0 26 -18 44.5t-43 18.5t-42.5 -18.5t-17.5 -44.5z" />
    <glyph glyph-name="threeeighths" unicode="&#x215c;" horiz-adv-x="647" 
d="M479 608q8 7 17 6t15 -6.5t8.5 -14t-2.5 -14.5l-343 -567q-7 -9 -15 -8.5t-14.5 5.5t-9.5 13t1 14zM146 413q-5 0 -9.5 6t-6 13.5t1.5 14t12 8.5q9 0 21 3.5t23.5 11t18.5 20.5t5 32q-1 9 -6.5 18t-14.5 16t-21.5 10.5t-27.5 2.5q-5 0 -13.5 -2t-18.5 -7t-18.5 -15
t-12.5 -28q-2 -8 -9.5 -10t-15.5 1t-13 9.5t-1 15.5q7 23 19.5 38t27 24t29 13t25.5 5q19 1 39 -4t36 -16t27 -28.5t13 -40.5q3 -31 -7 -51.5t-28 -34.5q23 -14 36 -41.5t8 -66.5q-3 -31 -15.5 -52t-30 -33.5t-38.5 -17.5t-40 -4q-11 1 -25.5 4.5t-29 12.5t-27 24.5
t-19.5 38.5q-4 9 1 15.5t13 9.5t15.5 1t9.5 -10q4 -17 12.5 -27.5t18.5 -15.5t18.5 -7t13.5 -2q30 -2 53 16.5t26 49.5q2 19 -3.5 34t-16 25t-25 15.5t-30.5 5.5zM600 99q0 -22 -8.5 -41.5t-23.5 -34.5t-34.5 -23.5t-41.5 -8.5t-41 8.5t-33.5 23.5t-23 34.5t-8.5 41.5
q0 25 11 47.5t30 37.5q-19 14 -29.5 34.5t-10.5 46.5q0 22 8 41.5t22.5 34.5t33.5 23.5t41 8.5t41 -8.5t33 -23.5t22.5 -34.5t8.5 -41.5q0 -26 -11 -46t-29 -34q20 -15 31.5 -37.5t11.5 -48.5zM557 99q0 26 -19.5 44.5t-44.5 18.5t-43.5 -18.5t-18.5 -44.5q0 -25 18.5 -43.5
t43.5 -18.5t44.5 18.5t19.5 43.5zM431 264q0 -25 17.5 -40t42.5 -15t43 15t18 40q0 26 -18 44.5t-43 18.5t-42.5 -18.5t-17.5 -44.5z" />
    <glyph glyph-name="fiveeighths" unicode="&#x215d;" horiz-adv-x="648" 
d="M491 608q8 7 17 6t15 -6.5t8.5 -14t-2.5 -14.5l-343 -567q-7 -9 -15 -8.5t-14.5 5.5t-9.5 13t1 14zM604 105q0 -22 -8.5 -41.5t-23.5 -34.5t-34.5 -23.5t-41.5 -8.5t-41 8.5t-33.5 23.5t-23 34.5t-8.5 41.5q0 25 11 47.5t30 37.5q-19 14 -29.5 34.5t-10.5 46.5
q0 22 8 41.5t22.5 34.5t33.5 23.5t41 8.5t41 -8.5t33 -23.5t22.5 -34.5t8.5 -41.5q0 -26 -11 -46t-29 -34q20 -15 31.5 -37.5t11.5 -48.5zM561 105q0 26 -19.5 44.5t-44.5 18.5t-43.5 -18.5t-18.5 -44.5q0 -25 18.5 -43.5t43.5 -18.5t44.5 18.5t19.5 43.5zM435 270
q0 -25 17.5 -40t42.5 -15t43 15t18 40q0 26 -18 44.5t-43 18.5t-42.5 -18.5t-17.5 -44.5zM53 557q0 21 6.5 34t26.5 13h170q11 -2 14.5 -10t2 -17t-7 -15.5t-12.5 -4.5l-153 2v-81q38 9 68.5 4t52.5 -20.5t34.5 -40t14.5 -53.5q5 -78 -31 -117.5t-109 -26.5q-39 7 -61.5 34
t-21.5 65q0 9 7.5 14.5t16 7t15.5 -2.5t8 -14q2 -32 18 -45.5t33 -15.5q23 -3 38.5 3.5t25 20t13 32t2.5 38.5q-1 21 -10 38t-25.5 27.5t-38.5 12t-48 -8.5q-4 -2 -11 -3t-14.5 1.5t-13.5 9.5t-8 21z" />
    <glyph glyph-name="seveneighths" unicode="&#x215e;" horiz-adv-x="541" 
d="M389 608q8 7 17 6t15 -6.5t8.5 -14t-2.5 -14.5l-343 -567q-7 -9 -15 -8.5t-14.5 5.5t-9.5 13t1 14zM503 102q0 -22 -8.5 -41.5t-23.5 -34.5t-34.5 -23.5t-41.5 -8.5t-41 8.5t-33.5 23.5t-23 34.5t-8.5 41.5q0 25 11 47.5t30 37.5q-19 14 -29.5 34.5t-10.5 46.5
q0 22 8 41.5t22.5 34.5t33.5 23.5t41 8.5t41 -8.5t33 -23.5t22.5 -34.5t8.5 -41.5q0 -26 -11 -46t-29 -34q20 -15 31.5 -37.5t11.5 -48.5zM460 102q0 26 -19.5 44.5t-44.5 18.5t-43.5 -18.5t-18.5 -44.5q0 -25 18.5 -43.5t43.5 -18.5t44.5 18.5t19.5 43.5zM334 267
q0 -25 17.5 -40t42.5 -15t43 15t18 40q0 26 -18 44.5t-43 18.5t-42.5 -18.5t-17.5 -44.5zM238 605q24 0 32.5 -12.5t-2.5 -37.5l-133 -313q-4 -11 -12 -12.5t-16 1.5t-13 9.5t-3 12.5l129 306h-164q-11 0 -15.5 6.5t-4 15t5.5 15t12 6.5z" />
    <glyph glyph-name="minus" unicode="&#x2212;" horiz-adv-x="403" 
d="M321 273q18 -3 25.5 -16.5t6.5 -27t-10 -24t-23 -7.5l-241 -2q-19 0 -26.5 11.5t-6.5 25.5t8.5 25.5t19.5 11.5z" />
    <glyph glyph-name="approxequal" unicode="&#x2248;" horiz-adv-x="410" 
d="M302 403q4 13 15.5 18t23.5 2.5t20.5 -12.5t7.5 -27q-4 -42 -29.5 -68.5t-57.5 -28.5q-26 -2 -43.5 10t-32.5 26t-30 25t-34 8q-15 -2 -21 -15t-13 -35q-6 -17 -18.5 -20t-24 3t-18 19.5t-0.5 29.5q14 35 35 60t56 24q29 0 47.5 -11t32 -23.5t26.5 -23t31 -10.5
q16 0 21 14t6 35zM295 234q4 13 15.5 18t23.5 2.5t20.5 -12.5t7.5 -27q-4 -42 -29.5 -68.5t-57.5 -28.5q-26 -2 -43.5 10t-32.5 26t-30 25t-34 8q-15 -2 -21 -15t-13 -35q-6 -17 -18.5 -20t-24 3t-18 19.5t-0.5 29.5q14 35 35 60t56 24q29 0 47.5 -11t32 -23.5t26.5 -23
t31 -10.5q16 0 21 14t6 35z" />
    <glyph glyph-name="notequal" unicode="&#x2260;" horiz-adv-x="404" 
d="M222 389q10 15 25 16t27 -5.5t19 -19t1 -24.5l-131 -290q-8 -17 -21.5 -19.5t-25.5 4t-19.5 18t-2.5 22.5zM321 207q18 -3 25.5 -16.5t6.5 -27t-10 -24t-23 -7.5l-241 -2q-19 0 -26.5 11.5t-6.5 25.5t8.5 25.5t19.5 11.5zM321 336q18 -3 25.5 -16.5t6.5 -27t-10 -24
t-23 -7.5l-241 -2q-19 0 -26.5 11.5t-6.5 25.5t8.5 25.5t19.5 11.5z" />
    <glyph glyph-name="lessequal" unicode="&#x2264;" horiz-adv-x="381" 
d="M80 305q-16 9 -21 21.5t-2 24.5t11 22t19 14l194 109q11 4 21.5 -3.5t15 -20t1 -26t-19.5 -22.5l-141 -76l151 -77q17 -6 19.5 -19.5t-3.5 -26t-18 -20.5t-22 -3zM318 165q18 -3 25.5 -16.5t6.5 -27t-10 -24t-23 -7.5l-241 -2q-19 0 -26.5 11.5t-6.5 25.5t8.5 25.5
t19.5 11.5z" />
    <glyph glyph-name="greaterequal" unicode="&#x2265;" horiz-adv-x="395" 
d="M107 202q-11 -5 -22.5 3t-17.5 20.5t-3.5 26t19.5 19.5l151 77l-141 76q-16 9 -19.5 22.5t1 26t15 20t21.5 3.5l194 -109q10 -4 18.5 -14t11.5 -22t-2 -24.5t-21 -21.5zM321 162q12 0 19.5 -11.5t8.5 -25.5t-6.5 -25.5t-26.5 -11.5l-241 2q-14 -3 -23 7.5t-10 24t6.5 27
t25.5 16.5z" />
    <glyph glyph-name="glyph138" horiz-adv-x="294" 
d="M112 370q-10 9 -7 21.5t13 21t23.5 10t25.5 -11.5q13 -14 21.5 -37t9.5 -49.5t-7.5 -55t-30.5 -52.5q-12 -13 -26.5 -14t-25 5.5t-14.5 18t5 22.5q16 14 23.5 32t7.5 35t-5 31.5t-13 22.5z" />
    <glyph glyph-name="glyph344" horiz-adv-x="282" 
d="M202 164q-29 -21 -61 -21q-22 0 -41 9t-33.5 24t-22.5 34.5t-8 41.5t8 41.5t22.5 34.5t33.5 23.5t41 8.5q33 0 58 -19q2 10 10.5 13.5t17.5 2.5t15.5 -6.5t4.5 -12.5v-180q0 -11 -7 -15.5t-15.5 -4t-15.5 5t-7 11.5v9zM79 251q0 -25 18 -44t43 -19t43 19t18 44
q0 26 -18 44.5t-43 18.5t-43 -18.5t-18 -44.5z" />
    <glyph glyph-name="glyph345" horiz-adv-x="283" 
d="M85 155q0 -7 -7 -11.5t-15.5 -5t-15.5 4t-7 15.5v340q2 12 9 17t15.5 4t15 -7t7.5 -16v-11.5v-28.5v-37v-37t0.5 -29l0.5 -12q27 19 59 19q22 0 41 -8.5t33 -23.5t22.5 -34.5t8.5 -41.5t-8.5 -41.5t-22.5 -34.5t-33 -24t-41 -9q-33 0 -62 21v-9zM208 251q0 26 -18 44.5
t-43 18.5t-42.5 -18.5t-17.5 -44.5q0 -25 17.5 -44t42.5 -19t43 19t18 44z" />
    <glyph glyph-name="glyph346" horiz-adv-x="270" 
d="M195 224q5 7 13.5 7.5t15.5 -4t10 -12.5t-2 -17q-14 -25 -38 -40t-53 -15q-22 0 -41 9t-33.5 24t-22.5 34.5t-8 41.5t8 41.5t22.5 34.5t33.5 23.5t41 8.5q36 -1 59 -17.5t31 -38.5q3 -8 -2 -14t-12.5 -9.5t-15 -3t-10.5 6.5q-8 17 -21.5 23.5t-29.5 6.5q-25 0 -43 -18.5
t-18 -44.5q0 -25 18 -44t43 -19q18 0 30 7.5t25 28.5z" />
    <glyph glyph-name="glyph347" horiz-adv-x="287" 
d="M201 164q-27 -21 -61 -21q-22 0 -41 9t-33.5 24t-22.5 34.5t-8 41.5t8 41.5t22.5 34.5t33.5 23.5t41 8.5q32 0 59 -19v12v29t0.5 37t0.5 37v28.5v11.5q0 10 6.5 16t15 7t16 -4t9.5 -17l-1 -340q0 -11 -7 -15.5t-15 -4t-15 5t-7 11.5zM79 251q0 -25 17.5 -44t42.5 -19
t43 19t18 44q0 26 -18 44.5t-43 18.5t-42.5 -18.5t-17.5 -44.5z" />
    <glyph glyph-name="glyph348" horiz-adv-x="279" 
d="M196 211q6 7 15 7t16.5 -4.5t10.5 -12t-4 -16.5q-26 -32 -60 -40t-64.5 2.5t-52 37.5t-21.5 67q0 22 8 41t22.5 34t33.5 23.5t41 9.5q37 1 66 -20t34 -59q4 -20 -5.5 -32t-41.5 -12l-113 1q4 -19 16 -32.5t28.5 -19t35 0t35.5 24.5zM140 315q-37 -2 -53 -34l111 -1
q-6 23 -23.5 29.5t-34.5 5.5z" />
    <glyph glyph-name="glyph349" horiz-adv-x="281" 
d="M130 325q-1 -48 -1 -94t1 -79q1 -4 -6.5 -7.5t-16.5 -4t-17 3t-7 14.5q-1 17 -1 30v30v42v65h-31q-11 0 -15.5 7t-4 15t5 15t11.5 7h35q3 31 9 59t16.5 49t26.5 33t38 12q18 0 31.5 -6t23 -15t15 -19t7.5 -17q5 -11 1 -20t-11.5 -13.5t-16 -3.5t-12.5 12q-9 33 -37 33
q-20 1 -30 -29.5t-14 -74.5h69q11 -2 14.5 -9.5t2 -15.5t-7 -14t-14.5 -4z" />
    <glyph glyph-name="glyph350" horiz-adv-x="278" 
d="M198 354q0 7 7 11.5t15.5 5t15.5 -4t7 -15.5v-157q0 -78 -26 -116.5t-89 -36.5q-25 2 -43.5 12.5t-39.5 34.5q-8 8 -5 15.5t10 12.5t16 6.5t14 -3.5q12 -18 26.5 -24.5t26.5 -8.5q36 -3 50 20.5t12 58.5q-11 -8 -27.5 -12t-31.5 -4q-22 0 -41 8.5t-33.5 23.5t-22.5 34.5
t-8 41.5t8 41.5t22.5 34.5t33.5 23.5t41 8.5q35 0 62 -21v10zM75 257q0 -25 18 -43.5t43 -18.5t42.5 18.5t17.5 43.5q0 26 -17.5 44.5t-42.5 18.5t-43 -18.5t-18 -44.5z" />
    <glyph glyph-name="glyph351" horiz-adv-x="266" 
d="M187 159q1 51 -2.5 82t-10 47t-14.5 21t-15 5q-25 0 -42.5 -19t-17.5 -44v-85q0 -10 -7 -16t-15 -7t-15.5 4t-9.5 17l1 332q0 11 7 15.5t15 4t15 -5t7 -11.5l1 -161q27 21 61 21q31 0 48.5 -15t26 -41t10.5 -62t2 -79q0 -11 -7 -15.5t-15.5 -4t-15.5 5t-7 11.5z" />
    <glyph glyph-name="glyph352" horiz-adv-x="132" 
d="M43 340q2 10 10.5 14t17.5 3t15.5 -6.5t4.5 -12.5v-171q0 -11 -7 -15.5t-15.5 -4t-15.5 5t-7 11.5zM42 401q0 11 8 19t19 8t19 -8t8 -19t-8 -18.5t-19 -7.5t-19 7.5t-8 18.5z" />
    <glyph glyph-name="glyph354" horiz-adv-x="258" 
d="M39 497q2 11 10.5 15t17.5 2.5t15 -7t5 -12.5v-202l94 80q10 4 18 -0.5t12.5 -12.5t4 -16.5t-7.5 -11.5l-55 -45l67 -111q4 -6 1 -13.5t-10 -13t-15.5 -6t-15.5 8.5l-65 105l-28 -22l1 -68q0 -11 -7 -15.5t-15.5 -4t-15.5 5t-7 11.5z" />
    <glyph glyph-name="glyph355" horiz-adv-x="128" 
d="M39 497q2 11 10 15t16.5 3.5t15 -6t6.5 -13.5l1 -329q0 -11 -7 -15.5t-15.5 -4t-15.5 5t-7 11.5z" />
    <glyph glyph-name="glyph356" horiz-adv-x="402" 
d="M187 159q1 51 -2.5 82t-10 47t-14.5 21t-15 5q-25 0 -42.5 -19t-17.5 -44v-85q0 -10 -7 -16t-15 -7t-15.5 4t-9.5 17l1 180q0 11 7 15.5t15 4t15 -5t7 -11.5l1 -9q27 21 61 21q25 0 41 -10t26 -28q14 19 34.5 29.5t36.5 10.5q31 0 49 -15t26 -41t10 -62t2 -79
q0 -11 -7 -15.5t-15.5 -4t-15 5t-6.5 11.5q1 52 -2.5 82.5t-10 46.5t-14.5 21t-15 5q-21 0 -35.5 -15t-21.5 -34q3 -23 4 -49t1 -56q0 -11 -7 -15.5t-15.5 -4t-15.5 5t-7 11.5z" />
    <glyph glyph-name="glyph358" horiz-adv-x="282" 
d="M36 252q0 22 8 41.5t22.5 34.5t33.5 23.5t41 8.5t41 -8.5t33 -23.5t22.5 -34.5t8.5 -41.5t-8.5 -41.5t-22.5 -34.5t-33 -24t-41 -9t-41 9t-33.5 24t-22.5 34.5t-8 41.5zM79 251q0 -25 18 -44t43 -19t43 19t18 44q0 26 -18 44.5t-43 18.5t-43 -18.5t-18 -44.5z" />
    <glyph glyph-name="glyph359" horiz-adv-x="284" 
d="M84 338q27 21 61 21q22 0 41 -9t33 -24t22.5 -34.5t8.5 -41.5t-8.5 -41.5t-22.5 -34.5t-33 -23.5t-41 -8.5q-32 0 -59 19l-0.5 -15.5t-0.5 -33.5v-33.5v-15.5q0 -10 -7 -16t-15 -7t-15.5 4t-9.5 17l1 283q0 11 7 15.5t15 4t15 -5t7 -11.5zM206 251q0 25 -18 44t-43 19
t-42.5 -19t-17.5 -44q0 -26 17.5 -44.5t42.5 -18.5t43 18.5t18 44.5z" />
    <glyph glyph-name="glyph360" horiz-adv-x="293" 
d="M251 343q0 -34 -1.5 -78t-0.5 -83.5t6 -67.5t16 -29t13.5 8t2.5 20q0 12 6.5 17.5t14.5 5t14.5 -6.5t7.5 -18q2 -32 -12 -51.5t-48 -20.5q-21 0 -33 14.5t-18 34.5t-8 41t-3 33q-15 -13 -32.5 -16.5t-32.5 -3.5q-22 0 -41 8.5t-33.5 23.5t-22.5 34.5t-8 41.5t8 41.5
t22.5 34.5t33.5 24t41 9q34 0 61 -21l1 9q0 7 8 11.5t17 5t16 -4t5 -16.5zM82 251q0 -26 17.5 -44.5t42.5 -18.5t43 18.5t18 44.5q0 25 -18 44t-43 19t-42.5 -19t-17.5 -44z" />
    <glyph glyph-name="glyph361" horiz-adv-x="258" 
d="M189 292q-9 8 -20 15t-24 7q-25 0 -42.5 -19t-17.5 -44v-85q0 -10 -7 -16t-15 -7t-15.5 4t-9.5 17l1 180q0 11 7 15.5t15 4t15 -5t7 -11.5l1 -9q27 21 61 21q25 0 46 -10.5t34 -30.5q4 -6 2 -14t-7.5 -13t-13.5 -6t-17 7z" />
    <glyph glyph-name="glyph362" horiz-adv-x="248" 
d="M214 317q4 -9 0 -15.5t-11.5 -10t-15.5 -2t-11 9.5q-8 12 -20 17.5t-21 7.5q-15 3 -29 -4.5t-16 -17.5q-2 -9 1 -15t10 -9.5t16.5 -5.5t20.5 -4q15 -3 30 -7.5t26.5 -13t18 -21t4.5 -32.5q-1 -16 -10 -27.5t-23 -18.5t-30.5 -9.5t-32.5 -0.5q-28 3 -53 20.5t-34 47.5
q-1 11 5 18.5t13.5 10t14.5 0.5t9 -11q6 -23 21 -33t32 -12q17 -1 29.5 4.5t13.5 13.5q2 16 -9.5 22t-29.5 10q-14 3 -29.5 6.5t-28.5 10.5t-21.5 19.5t-8.5 33.5q0 33 27 50.5t61 14.5q23 -2 45 -13t36 -34z" />
    <glyph glyph-name="glyph363" horiz-adv-x="278" 
d="M115 360l-1 112q2 11 10.5 15t17.5 3t15 -6.5t5 -12.5v-110h60q10 -2 14.5 -10t3 -16.5t-8 -15t-17.5 -5.5h-52l1 -150q0 -11 -7 -15.5t-16 -4t-16 5t-7 11.5l-1 154l-58 1q-11 0 -15.5 7t-4 15t5 15t11.5 7h60z" />
    <glyph glyph-name="glyph364" horiz-adv-x="270" 
d="M87 346q-4 -55 -1.5 -86t8.5 -46.5t14.5 -19t15.5 -3.5q25 0 43 19t18 44v86q0 9 6.5 15t15 7t16 -4t9.5 -17l-1 -180q0 -11 -7 -15.5t-15 -4t-15 5t-7 11.5l-1 9q-27 -21 -61 -21q-31 0 -49 14t-27 39.5t-10.5 62t1.5 81.5q1 11 8.5 15.5t16 4t15.5 -5t7 -11.5z" />
    <glyph glyph-name="glyph365" horiz-adv-x="251" 
d="M154 159q-5 -10 -12 -13t-14.5 -2t-13.5 6t-9 11l-66 173q-3 7 2 13.5t12.5 10t15.5 1.5t12 -12l49 -126l42 127q4 10 12.5 12t16 -1.5t12.5 -10t2 -13.5z" />
    <glyph glyph-name="glyph369" horiz-adv-x="263" 
d="M58 142q-20 0 -24.5 14t9.5 29l116 131l-110 -1q-11 2 -15.5 9.5t-3.5 16t6 15t13 6.5h161q5 0 10.5 -5t9 -12.5t2.5 -17t-10 -18.5l-116 -121l107 -1q11 0 15.5 -7t4 -15t-5 -15t-11.5 -7z" />
    </font>
</defs>
</svg>
